<ttFont>
<head>
    <!-- Most of this table will be recalculated by the compiler -->
    <tableVersion value="1.0"/>
    <fontRevision value="4.00299"/>
    <checkSumAdjustment value="0xed2bbe5b"/>
    <magicNumber value="0x5f0f3cf5"/>
    <flags value="00000000 00000011"/>
    <unitsPerEm value="1000"/>
    <created value="Tue Mar  5 22:52:48 2019"/>
    <modified value="Tue Mar  5 14:52:51 2019"/>
    <xMin value="-491"/>
    <yMin value="-543"/>
    <xMax value="2707"/>
    <yMax value="1026"/>
    <macStyle value="00000000 00000010"/>
    <lowestRecPPEM value="7"/>
    <fontDirectionHint value="2"/>
    <indexToLocFormat value="1"/>
    <glyphDataFormat value="0"/>
  </head>
    <TTGlyph name=".notdef" xMin="0" yMin="0" xMax="500" yMax="700">
      <contour>
        <pt x="0" y="700" on="1"/>
        <pt x="500" y="700" on="1"/>
        <pt x="500" y="0" on="1"/>
        <pt x="0" y="0" on="1"/>
      </contour>
      <contour>
        <pt x="420" y="650" on="1"/>
        <pt x="80" y="650" on="1"/>
        <pt x="250" y="395" on="1"/>
      </contour>
      <contour>
        <pt x="50" y="95" on="1"/>
        <pt x="220" y="350" on="1"/>
        <pt x="50" y="605" on="1"/>
      </contour>
      <contour>
        <pt x="450" y="95" on="1"/>
        <pt x="450" y="605" on="1"/>
        <pt x="280" y="350" on="1"/>
      </contour>
      <contour>
        <pt x="420" y="50" on="1"/>
        <pt x="250" y="305" on="1"/>
        <pt x="80" y="50" on="1"/>
      </contour>
    </TTGlyph>
    <TTGlyph name="A" xMin="-18" yMin="0" xMax="523" yMax="683">
      <contour>
        <pt x="461" y="194" on="1"/>
        <pt x="113" y="194" on="1"/>
        <pt x="5" y="0" on="1"/>
        <pt x="-18" y="0" on="1"/>
        <pt x="364" y="683" on="1"/>
        <pt x="384" y="683" on="1"/>
        <pt x="523" y="0" on="1"/>
        <pt x="500" y="0" on="1"/>
      </contour>
      <contour>
        <pt x="457" y="212" on="1"/>
        <pt x="368" y="651" on="1"/>
        <pt x="123" y="212" on="1"/>
      </contour>
    </TTGlyph>
    <TTGlyph name="AE" xMin="-38" yMin="0" xMax="864" yMax="704">
      <contour>
        <pt x="536" y="686" on="1"/>
        <pt x="479" y="361" on="1"/>
        <pt x="773" y="361" on="1"/>
        <pt x="770" y="343" on="1"/>
        <pt x="476" y="343" on="1"/>
        <pt x="419" y="18" on="1"/>
        <pt x="743" y="18" on="1"/>
        <pt x="739" y="0" on="1"/>
        <pt x="395" y="0" on="1"/>
        <pt x="429" y="194" on="1"/>
        <pt x="139" y="194" on="1"/>
        <pt x="-15" y="0" on="1"/>
        <pt x="-38" y="0" on="1"/>
        <pt x="520" y="704" on="1"/>
        <pt x="864" y="704" on="1"/>
        <pt x="860" y="686" on="1"/>
      </contour>
      <contour>
        <pt x="513" y="667" on="1"/>
        <pt x="153" y="212" on="1"/>
        <pt x="433" y="212" on="1"/>
      </contour>
    </TTGlyph>
    <TTGlyph name="Aacute" xMin="-18" yMin="0" xMax="523" yMax="883">
      <component glyphName="A" x="0" y="0" flags="0x0"/>
      <component glyphName="acute" x="179" y="143" flags="0x4"/>
    </TTGlyph>
    <TTGlyph name="Abreve" xMin="-18" yMin="0" xMax="524" yMax="867">
      <component glyphName="A" x="0" y="0" flags="0x0"/>
      <component glyphName="breve" x="168" y="143" flags="0x4"/>
    </TTGlyph>
    <TTGlyph name="Acircumflex" xMin="-18" yMin="0" xMax="523" yMax="864">
      <component glyphName="A" x="0" y="0" flags="0x0"/>
      <component glyphName="circumflex" x="162" y="143" flags="0x4"/>
    </TTGlyph>
    <TTGlyph name="Adieresis" xMin="-18" yMin="0" xMax="523" yMax="830">
      <component glyphName="A" x="0" y="0" flags="0x0"/>
      <component glyphName="dieresis" x="167" y="143" flags="0x4"/>
    </TTGlyph>
    <TTGlyph name="Agrave" xMin="-18" yMin="0" xMax="523" yMax="883">
      <component glyphName="A" x="0" y="0" flags="0x0"/>
      <component glyphName="grave" x="179" y="143" flags="0x4"/>
    </TTGlyph>
    <TTGlyph name="Amacron" xMin="-18" yMin="0" xMax="552" yMax="820">
      <component glyphName="A" x="0" y="0" flags="0x0"/>
      <component glyphName="macron" x="131" y="143" flags="0x4"/>
    </TTGlyph>
    <TTGlyph name="Aogonek" xMin="-18" yMin="-190" xMax="523" yMax="683">
      <contour>
        <pt x="360" y="-149" on="0"/>
        <pt x="393" y="-171" on="0"/>
        <pt x="420" y="-171" on="1"/>
        <pt x="449" y="-171" on="0"/>
        <pt x="486" y="-158" on="1"/>
        <pt x="482" y="-178" on="1"/>
        <pt x="449" y="-190" on="0"/>
        <pt x="418" y="-190" on="1"/>
        <pt x="382" y="-190" on="0"/>
        <pt x="340" y="-161" on="0"/>
        <pt x="340" y="-131" on="1"/>
        <pt x="340" y="-97" on="0"/>
        <pt x="391" y="-36" on="0"/>
        <pt x="445" y="-13" on="1"/>
        <pt x="498" y="9" on="1"/>
        <pt x="461" y="194" on="1"/>
        <pt x="113" y="194" on="1"/>
        <pt x="5" y="0" on="1"/>
        <pt x="-18" y="0" on="1"/>
        <pt x="364" y="683" on="1"/>
        <pt x="384" y="683" on="1"/>
        <pt x="523" y="0" on="1"/>
        <pt x="446" y="-33" on="1"/>
        <pt x="360" y="-69" on="0"/>
        <pt x="360" y="-127" on="1"/>
      </contour>
      <contour>
        <pt x="457" y="212" on="1"/>
        <pt x="368" y="651" on="1"/>
        <pt x="123" y="212" on="1"/>
      </contour>
    </TTGlyph>
    <TTGlyph name="Aring" xMin="-18" yMin="0" xMax="523" yMax="938">
      <component glyphName="A" x="0" y="0" flags="0x0"/>
      <component glyphName="ring" x="196" y="143" flags="0x4"/>
    </TTGlyph>
    <TTGlyph name="Atilde" xMin="-18" yMin="0" xMax="530" yMax="813">
      <component glyphName="A" x="0" y="0" flags="0x0"/>
      <component glyphName="tilde" x="190" y="143" flags="0x4"/>
    </TTGlyph>
    <TTGlyph name="B" xMin="37" yMin="0" xMax="543" yMax="704">
      <contour>
        <pt x="528" y="462" on="0"/>
        <pt x="438" y="379" on="0"/>
        <pt x="380" y="366" on="1"/>
        <pt x="433" y="355" on="0"/>
        <pt x="499" y="276" on="0"/>
        <pt x="499" y="220" on="1"/>
        <pt x="499" y="205" on="0"/>
        <pt x="496" y="188" on="1"/>
        <pt x="481" y="105" on="0"/>
        <pt x="348" y="0" on="0"/>
        <pt x="239" y="0" on="1"/>
        <pt x="37" y="0" on="1"/>
        <pt x="162" y="704" on="1"/>
        <pt x="364" y="704" on="1"/>
        <pt x="456" y="704" on="0"/>
        <pt x="543" y="630" on="0"/>
        <pt x="543" y="568" on="1"/>
        <pt x="543" y="550" on="0"/>
        <pt x="540" y="532" on="1"/>
      </contour>
      <contour>
        <pt x="400" y="376" on="0"/>
        <pt x="507" y="459" on="0"/>
        <pt x="520" y="532" on="1"/>
        <pt x="523" y="549" on="0"/>
        <pt x="523" y="565" on="1"/>
        <pt x="523" y="620" on="0"/>
        <pt x="443" y="684" on="0"/>
        <pt x="360" y="684" on="1"/>
        <pt x="178" y="684" on="1"/>
        <pt x="124" y="376" on="1"/>
        <pt x="312" y="376" on="1"/>
      </contour>
      <contour>
        <pt x="479" y="205" on="0"/>
        <pt x="479" y="220" on="1"/>
        <pt x="479" y="283" on="0"/>
        <pt x="385" y="356" on="0"/>
        <pt x="300" y="356" on="1"/>
        <pt x="120" y="356" on="1"/>
        <pt x="61" y="20" on="1"/>
        <pt x="243" y="20" on="1"/>
        <pt x="339" y="20" on="0"/>
        <pt x="462" y="110" on="0"/>
        <pt x="476" y="188" on="1"/>
      </contour>
    </TTGlyph>
    <TTGlyph name="C" xMin="67" yMin="-7" xMax="749" yMax="711">
      <contour>
        <pt x="93" y="456" on="0"/>
        <pt x="206" y="619" on="0"/>
        <pt x="372" y="711" on="0"/>
        <pt x="466" y="711" on="1"/>
        <pt x="589" y="711" on="0"/>
        <pt x="729" y="597" on="0"/>
        <pt x="749" y="496" on="1"/>
        <pt x="729" y="496" on="1"/>
        <pt x="712" y="585" on="0"/>
        <pt x="578" y="693" on="0"/>
        <pt x="463" y="693" on="1"/>
        <pt x="377" y="693" on="0"/>
        <pt x="223" y="610" on="0"/>
        <pt x="113" y="455" on="0"/>
        <pt x="95" y="351" on="1"/>
        <pt x="88" y="313" on="0"/>
        <pt x="88" y="274" on="1"/>
        <pt x="88" y="193" on="0"/>
        <pt x="153" y="74" on="0"/>
        <pt x="268" y="11" on="0"/>
        <pt x="342" y="11" on="1"/>
        <pt x="457" y="11" on="0"/>
        <pt x="630" y="118" on="0"/>
        <pt x="678" y="207" on="1"/>
        <pt x="698" y="207" on="1"/>
        <pt x="643" y="106" on="0"/>
        <pt x="462" y="-7" on="0"/>
        <pt x="339" y="-7" on="1"/>
        <pt x="257" y="-7" on="0"/>
        <pt x="134" y="63" on="0"/>
        <pt x="67" y="190" on="0"/>
        <pt x="67" y="273" on="1"/>
        <pt x="67" y="313" on="0"/>
        <pt x="74" y="351" on="1"/>
      </contour>
    </TTGlyph>
    <TTGlyph name="Cacute" xMin="67" yMin="-7" xMax="749" yMax="883">
      <component glyphName="C" x="0" y="0" flags="0x0"/>
      <component glyphName="acute" x="289" y="143" flags="0x4"/>
    </TTGlyph>
    <TTGlyph name="Ccaron" xMin="67" yMin="-7" xMax="749" yMax="861">
      <component glyphName="C" x="0" y="0" flags="0x0"/>
      <component glyphName="caron" x="272" y="143" flags="0x4"/>
    </TTGlyph>
    <TTGlyph name="Ccedilla" xMin="67" yMin="-254" xMax="749" yMax="711">
      <contour>
        <pt x="377" y="693" on="0"/>
        <pt x="223" y="610" on="0"/>
        <pt x="113" y="455" on="0"/>
        <pt x="95" y="351" on="1"/>
        <pt x="88" y="313" on="0"/>
        <pt x="88" y="274" on="1"/>
        <pt x="88" y="193" on="0"/>
        <pt x="153" y="74" on="0"/>
        <pt x="268" y="11" on="0"/>
        <pt x="342" y="11" on="1"/>
        <pt x="457" y="11" on="0"/>
        <pt x="630" y="118" on="0"/>
        <pt x="678" y="207" on="1"/>
        <pt x="698" y="207" on="1"/>
        <pt x="647" y="114" on="0"/>
        <pt x="484" y="2" on="0"/>
        <pt x="375" y="-6" on="1"/>
        <pt x="360" y="-89" on="1"/>
        <pt x="416" y="-85" on="0"/>
        <pt x="473" y="-119" on="0"/>
        <pt x="473" y="-153" on="1"/>
        <pt x="473" y="-163" on="0"/>
        <pt x="472" y="-168" on="1"/>
        <pt x="465" y="-207" on="0"/>
        <pt x="402" y="-254" on="0"/>
        <pt x="351" y="-254" on="1"/>
        <pt x="288" y="-254" on="1"/>
        <pt x="291" y="-234" on="1"/>
        <pt x="351" y="-234" on="1"/>
        <pt x="440" y="-234" on="0"/>
        <pt x="452" y="-168" on="1"/>
        <pt x="453" y="-164" on="0"/>
        <pt x="453" y="-156" on="1"/>
        <pt x="453" y="-134" on="0"/>
        <pt x="416" y="-107" on="0"/>
        <pt x="374" y="-107" on="1"/>
        <pt x="337" y="-107" on="1"/>
        <pt x="355" y="-7" on="1"/>
        <pt x="339" y="-7" on="1"/>
        <pt x="257" y="-7" on="0"/>
        <pt x="134" y="63" on="0"/>
        <pt x="67" y="190" on="0"/>
        <pt x="67" y="273" on="1"/>
        <pt x="67" y="313" on="0"/>
        <pt x="74" y="351" on="1"/>
        <pt x="93" y="456" on="0"/>
        <pt x="206" y="619" on="0"/>
        <pt x="372" y="711" on="0"/>
        <pt x="466" y="711" on="1"/>
        <pt x="589" y="711" on="0"/>
        <pt x="729" y="597" on="0"/>
        <pt x="749" y="496" on="1"/>
        <pt x="729" y="496" on="1"/>
        <pt x="712" y="585" on="0"/>
        <pt x="578" y="693" on="0"/>
        <pt x="463" y="693" on="1"/>
      </contour>
    </TTGlyph>
    <TTGlyph name="Cdotaccent" xMin="67" yMin="-7" xMax="749" yMax="808">
      <component glyphName="C" x="0" y="0" flags="0x0"/>
      <component glyphName="dotaccent" x="355" y="121" flags="0x4"/>
    </TTGlyph>
    <TTGlyph name="D" xMin="37" yMin="0" xMax="664" yMax="704">
      <contour>
        <pt x="504" y="704" on="0"/>
        <pt x="664" y="567" on="0"/>
        <pt x="664" y="439" on="1"/>
        <pt x="664" y="393" on="0"/>
        <pt x="656" y="352" on="1"/>
        <pt x="626" y="184" on="0"/>
        <pt x="404" y="0" on="0"/>
        <pt x="222" y="0" on="1"/>
        <pt x="37" y="0" on="1"/>
        <pt x="162" y="704" on="1"/>
        <pt x="347" y="704" on="1"/>
      </contour>
      <contour>
        <pt x="400" y="18" on="0"/>
        <pt x="608" y="194" on="0"/>
        <pt x="636" y="352" on="1"/>
        <pt x="644" y="398" on="0"/>
        <pt x="644" y="434" on="1"/>
        <pt x="644" y="554" on="0"/>
        <pt x="492" y="686" on="0"/>
        <pt x="343" y="686" on="1"/>
        <pt x="178" y="686" on="1"/>
        <pt x="61" y="18" on="1"/>
        <pt x="226" y="18" on="1"/>
      </contour>
    </TTGlyph>
    <TTGlyph name="Dcaron" xMin="37" yMin="0" xMax="664" yMax="861">
      <component glyphName="D" x="0" y="0" flags="0x0"/>
      <component glyphName="caron" x="201" y="143" flags="0x4"/>
    </TTGlyph>
    <TTGlyph name="Dcroat" xMin="23" yMin="0" xMax="704" yMax="704">
      <component glyphName="Eth" x="0" y="0" flags="0x0"/>
    </TTGlyph>
    <TTGlyph name="E" xMin="37" yMin="0" xMax="506" yMax="704">
      <contour>
        <pt x="178" y="686" on="1"/>
        <pt x="121" y="361" on="1"/>
        <pt x="415" y="361" on="1"/>
        <pt x="412" y="343" on="1"/>
        <pt x="118" y="343" on="1"/>
        <pt x="61" y="18" on="1"/>
        <pt x="385" y="18" on="1"/>
        <pt x="381" y="0" on="1"/>
        <pt x="37" y="0" on="1"/>
        <pt x="162" y="704" on="1"/>
        <pt x="506" y="704" on="1"/>
        <pt x="502" y="686" on="1"/>
      </contour>
    </TTGlyph>
    <TTGlyph name="Eacute" xMin="37" yMin="0" xMax="506" yMax="883">
      <component glyphName="E" x="0" y="0" flags="0x0"/>
      <component glyphName="acute" x="111" y="143" flags="0x4"/>
    </TTGlyph>
    <TTGlyph name="Ebreve" xMin="37" yMin="0" xMax="506" yMax="867">
      <component glyphName="E" x="0" y="0" flags="0x0"/>
      <component glyphName="breve" x="100" y="143" flags="0x4"/>
    </TTGlyph>
    <TTGlyph name="Ecaron" xMin="37" yMin="0" xMax="506" yMax="861">
      <component glyphName="E" x="0" y="0" flags="0x0"/>
      <component glyphName="caron" x="94" y="143" flags="0x4"/>
    </TTGlyph>
    <TTGlyph name="Ecircumflex" xMin="37" yMin="0" xMax="506" yMax="864">
      <component glyphName="E" x="0" y="0" flags="0x0"/>
      <component glyphName="circumflex" x="94" y="143" flags="0x4"/>
    </TTGlyph>
    <TTGlyph name="Edieresis" xMin="37" yMin="0" xMax="506" yMax="830">
      <component glyphName="E" x="0" y="0" flags="0x0"/>
      <component glyphName="dieresis" x="99" y="143" flags="0x4"/>
    </TTGlyph>
    <TTGlyph name="Edotaccent" xMin="37" yMin="0" xMax="506" yMax="808">
      <component glyphName="E" x="0" y="0" flags="0x0"/>
      <component glyphName="dotaccent" x="177" y="121" flags="0x4"/>
    </TTGlyph>
    <TTGlyph name="Egrave" xMin="37" yMin="0" xMax="506" yMax="883">
      <component glyphName="E" x="0" y="0" flags="0x0"/>
      <component glyphName="grave" x="111" y="143" flags="0x4"/>
    </TTGlyph>
    <TTGlyph name="Emacron" xMin="37" yMin="0" xMax="506" yMax="820">
      <component glyphName="E" x="0" y="0" flags="0x0"/>
      <component glyphName="macron" x="63" y="143" flags="0x4"/>
    </TTGlyph>
    <TTGlyph name="Eogonek" xMin="37" yMin="-190" xMax="506" yMax="704">
      <contour>
        <pt x="178" y="686" on="1"/>
        <pt x="121" y="361" on="1"/>
        <pt x="415" y="361" on="1"/>
        <pt x="412" y="343" on="1"/>
        <pt x="118" y="343" on="1"/>
        <pt x="61" y="18" on="1"/>
        <pt x="385" y="18" on="1"/>
        <pt x="381" y="0" on="1"/>
        <pt x="304" y="-33" on="1"/>
        <pt x="218" y="-69" on="0"/>
        <pt x="218" y="-127" on="1"/>
        <pt x="218" y="-149" on="0"/>
        <pt x="251" y="-171" on="0"/>
        <pt x="278" y="-171" on="1"/>
        <pt x="307" y="-171" on="0"/>
        <pt x="344" y="-158" on="1"/>
        <pt x="340" y="-178" on="1"/>
        <pt x="307" y="-190" on="0"/>
        <pt x="275" y="-190" on="1"/>
        <pt x="240" y="-190" on="0"/>
        <pt x="198" y="-161" on="0"/>
        <pt x="198" y="-131" on="1"/>
        <pt x="198" y="-58" on="0"/>
        <pt x="301" y="-15" on="1"/>
        <pt x="337" y="0" on="1"/>
        <pt x="37" y="0" on="1"/>
        <pt x="162" y="704" on="1"/>
        <pt x="506" y="704" on="1"/>
        <pt x="502" y="686" on="1"/>
      </contour>
    </TTGlyph>
    <TTGlyph name="Eth" xMin="23" yMin="0" xMax="704" yMax="704">
      <contour>
        <pt x="544" y="704" on="0"/>
        <pt x="704" y="567" on="0"/>
        <pt x="704" y="439" on="1"/>
        <pt x="704" y="393" on="0"/>
        <pt x="696" y="352" on="1"/>
        <pt x="666" y="184" on="0"/>
        <pt x="444" y="0" on="0"/>
        <pt x="262" y="0" on="1"/>
        <pt x="77" y="0" on="1"/>
        <pt x="138" y="343" on="1"/>
        <pt x="23" y="343" on="1"/>
        <pt x="26" y="361" on="1"/>
        <pt x="141" y="361" on="1"/>
        <pt x="202" y="704" on="1"/>
        <pt x="387" y="704" on="1"/>
      </contour>
      <contour>
        <pt x="684" y="398" on="0"/>
        <pt x="684" y="434" on="1"/>
        <pt x="684" y="554" on="0"/>
        <pt x="532" y="686" on="0"/>
        <pt x="383" y="686" on="1"/>
        <pt x="218" y="686" on="1"/>
        <pt x="161" y="361" on="1"/>
        <pt x="394" y="361" on="1"/>
        <pt x="391" y="343" on="1"/>
        <pt x="158" y="343" on="1"/>
        <pt x="101" y="18" on="1"/>
        <pt x="266" y="18" on="1"/>
        <pt x="440" y="18" on="0"/>
        <pt x="648" y="194" on="0"/>
        <pt x="676" y="352" on="1"/>
      </contour>
    </TTGlyph>
    <TTGlyph name="Euro" xMin="17" yMin="-7" xMax="817" yMax="711">
      <contour>
        <pt x="457" y="693" on="0"/>
        <pt x="320" y="630" on="0"/>
        <pt x="213" y="512" on="0"/>
        <pt x="184" y="431" on="1"/>
        <pt x="486" y="431" on="1"/>
        <pt x="483" y="413" on="1"/>
        <pt x="178" y="413" on="1"/>
        <pt x="169" y="381" on="0"/>
        <pt x="163" y="351" on="1"/>
        <pt x="156" y="312" on="0"/>
        <pt x="156" y="271" on="1"/>
        <pt x="458" y="271" on="1"/>
        <pt x="455" y="253" on="1"/>
        <pt x="157" y="253" on="1"/>
        <pt x="161" y="178" on="0"/>
        <pt x="227" y="69" on="0"/>
        <pt x="339" y="11" on="0"/>
        <pt x="410" y="11" on="1"/>
        <pt x="525" y="11" on="0"/>
        <pt x="698" y="118" on="0"/>
        <pt x="746" y="207" on="1"/>
        <pt x="766" y="207" on="1"/>
        <pt x="711" y="106" on="0"/>
        <pt x="530" y="-7" on="0"/>
        <pt x="407" y="-7" on="1"/>
        <pt x="328" y="-7" on="0"/>
        <pt x="208" y="57" on="0"/>
        <pt x="139" y="175" on="0"/>
        <pt x="135" y="253" on="1"/>
        <pt x="17" y="253" on="1"/>
        <pt x="20" y="271" on="1"/>
        <pt x="135" y="271" on="1"/>
        <pt x="135" y="312" on="0"/>
        <pt x="142" y="351" on="1"/>
        <pt x="148" y="384" on="0"/>
        <pt x="157" y="413" on="1"/>
        <pt x="45" y="413" on="1"/>
        <pt x="48" y="431" on="1"/>
        <pt x="163" y="431" on="1"/>
        <pt x="193" y="514" on="0"/>
        <pt x="304" y="641" on="0"/>
        <pt x="452" y="711" on="0"/>
        <pt x="534" y="711" on="1"/>
        <pt x="657" y="711" on="0"/>
        <pt x="797" y="597" on="0"/>
        <pt x="817" y="496" on="1"/>
        <pt x="797" y="496" on="1"/>
        <pt x="780" y="585" on="0"/>
        <pt x="646" y="693" on="0"/>
        <pt x="531" y="693" on="1"/>
      </contour>
    </TTGlyph>
    <TTGlyph name="F" xMin="37" yMin="0" xMax="506" yMax="704">
      <contour>
        <pt x="506" y="704" on="1"/>
        <pt x="502" y="686" on="1"/>
        <pt x="178" y="686" on="1"/>
        <pt x="121" y="361" on="1"/>
        <pt x="415" y="361" on="1"/>
        <pt x="412" y="343" on="1"/>
        <pt x="118" y="343" on="1"/>
        <pt x="57" y="0" on="1"/>
        <pt x="37" y="0" on="1"/>
        <pt x="162" y="704" on="1"/>
      </contour>
    </TTGlyph>
    <TTGlyph name="G" xMin="67" yMin="-8" xMax="749" yMax="710">
      <contour>
        <pt x="92" y="455" on="0"/>
        <pt x="207" y="619" on="0"/>
        <pt x="377" y="710" on="0"/>
        <pt x="474" y="710" on="1"/>
        <pt x="587" y="710" on="0"/>
        <pt x="729" y="595" on="0"/>
        <pt x="749" y="495" on="1"/>
        <pt x="729" y="495" on="1"/>
        <pt x="713" y="583" on="0"/>
        <pt x="576" y="692" on="0"/>
        <pt x="470" y="692" on="1"/>
        <pt x="382" y="692" on="0"/>
        <pt x="224" y="609" on="0"/>
        <pt x="114" y="454" on="0"/>
        <pt x="95" y="351" on="1"/>
        <pt x="88" y="315" on="0"/>
        <pt x="88" y="275" on="1"/>
        <pt x="88" y="194" on="0"/>
        <pt x="155" y="74" on="0"/>
        <pt x="273" y="10" on="0"/>
        <pt x="350" y="10" on="1"/>
        <pt x="436" y="10" on="0"/>
        <pt x="593" y="90" on="0"/>
        <pt x="706" y="241" on="0"/>
        <pt x="726" y="341" on="1"/>
        <pt x="394" y="341" on="1"/>
        <pt x="397" y="359" on="1"/>
        <pt x="748" y="359" on="1"/>
        <pt x="746" y="351" on="1"/>
        <pt x="728" y="247" on="0"/>
        <pt x="613" y="83" on="0"/>
        <pt x="444" y="-8" on="0"/>
        <pt x="347" y="-8" on="1"/>
        <pt x="263" y="-8" on="0"/>
        <pt x="136" y="62" on="0"/>
        <pt x="67" y="190" on="0"/>
        <pt x="67" y="274" on="1"/>
        <pt x="67" y="313" on="0"/>
        <pt x="74" y="351" on="1"/>
      </contour>
    </TTGlyph>
    <TTGlyph name="Gbreve" xMin="67" yMin="-8" xMax="749" yMax="867">
      <component glyphName="G" x="0" y="0" flags="0x0"/>
      <component glyphName="breve" x="278" y="143" flags="0x4"/>
    </TTGlyph>
    <TTGlyph name="Gdotaccent" xMin="67" yMin="-8" xMax="749" yMax="808">
      <component glyphName="G" x="0" y="0" flags="0x0"/>
      <component glyphName="dotaccent" x="355" y="121" flags="0x4"/>
    </TTGlyph>
    <TTGlyph name="H" xMin="37" yMin="0" xMax="641" yMax="704">
      <contour>
        <pt x="641" y="704" on="1"/>
        <pt x="516" y="0" on="1"/>
        <pt x="496" y="0" on="1"/>
        <pt x="559" y="353" on="1"/>
        <pt x="120" y="353" on="1"/>
        <pt x="57" y="0" on="1"/>
        <pt x="37" y="0" on="1"/>
        <pt x="162" y="704" on="1"/>
        <pt x="182" y="704" on="1"/>
        <pt x="123" y="371" on="1"/>
        <pt x="562" y="371" on="1"/>
        <pt x="621" y="704" on="1"/>
      </contour>
    </TTGlyph>
    <TTGlyph name="I" xMin="37" yMin="0" xMax="182" yMax="704">
      <contour>
        <pt x="182" y="704" on="1"/>
        <pt x="57" y="0" on="1"/>
        <pt x="37" y="0" on="1"/>
        <pt x="162" y="704" on="1"/>
      </contour>
    </TTGlyph>
    <TTGlyph name="Iacute" xMin="37" yMin="0" xMax="283" yMax="883">
      <component glyphName="I" x="0" y="0" flags="0x0"/>
      <component glyphName="acute" x="-27" y="143" flags="0x4"/>
    </TTGlyph>
    <TTGlyph name="Icircumflex" xMin="37" yMin="0" xMax="308" yMax="864">
      <component glyphName="I" x="0" y="0" flags="0x0"/>
      <component glyphName="circumflex" x="-44" y="143" flags="0x4"/>
    </TTGlyph>
    <TTGlyph name="Idieresis" xMin="37" yMin="0" xMax="285" yMax="830">
      <component glyphName="I" x="0" y="0" flags="0x0"/>
      <component glyphName="dieresis" x="-39" y="143" flags="0x4"/>
    </TTGlyph>
    <TTGlyph name="Idotaccent" xMin="37" yMin="0" xMax="214" yMax="808">
      <component glyphName="I" x="0" y="0" flags="0x0"/>
      <component glyphName="dotaccent" x="39" y="121" flags="0x4"/>
    </TTGlyph>
    <TTGlyph name="Igrave" xMin="37" yMin="0" xMax="259" yMax="883">
      <component glyphName="I" x="0" y="0" flags="0x0"/>
      <component glyphName="grave" x="-27" y="143" flags="0x4"/>
    </TTGlyph>
    <TTGlyph name="Imacron" xMin="34" yMin="0" xMax="346" yMax="820">
      <component glyphName="I" x="0" y="0" flags="0x0"/>
      <component glyphName="macron" x="-75" y="143" flags="0x4"/>
    </TTGlyph>
    <TTGlyph name="Iogonek" xMin="-126" yMin="-190" xMax="182" yMax="704">
      <contour>
        <pt x="-106" y="-69" on="0"/>
        <pt x="-106" y="-127" on="1"/>
        <pt x="-106" y="-149" on="0"/>
        <pt x="-73" y="-171" on="0"/>
        <pt x="-46" y="-171" on="1"/>
        <pt x="-17" y="-171" on="0"/>
        <pt x="20" y="-158" on="1"/>
        <pt x="16" y="-178" on="1"/>
        <pt x="-17" y="-190" on="0"/>
        <pt x="-49" y="-190" on="1"/>
        <pt x="-84" y="-190" on="0"/>
        <pt x="-126" y="-161" on="0"/>
        <pt x="-126" y="-131" on="1"/>
        <pt x="-126" y="-58" on="0"/>
        <pt x="-23" y="-15" on="1"/>
        <pt x="39" y="11" on="1"/>
        <pt x="162" y="704" on="1"/>
        <pt x="182" y="704" on="1"/>
        <pt x="57" y="0" on="1"/>
        <pt x="-20" y="-33" on="1"/>
      </contour>
    </TTGlyph>
    <TTGlyph name="Itilde" xMin="37" yMin="0" xMax="324" yMax="813">
      <component glyphName="I" x="0" y="0" flags="0x0"/>
      <component glyphName="tilde" x="-16" y="143" flags="0x4"/>
    </TTGlyph>
    <TTGlyph name="J" xMin="9" yMin="-7" xMax="423" yMax="704">
      <contour>
        <pt x="423" y="704" on="1"/>
        <pt x="324" y="143" on="1"/>
        <pt x="312" y="78" on="0"/>
        <pt x="216" y="-7" on="0"/>
        <pt x="144" y="-7" on="1"/>
        <pt x="78" y="-7" on="0"/>
        <pt x="9" y="64" on="0"/>
        <pt x="9" y="127" on="1"/>
        <pt x="9" y="152" on="0"/>
        <pt x="13" y="173" on="1"/>
        <pt x="33" y="173" on="1"/>
        <pt x="29" y="153" on="0"/>
        <pt x="29" y="128" on="1"/>
        <pt x="29" y="75" on="0"/>
        <pt x="85" y="11" on="0"/>
        <pt x="147" y="11" on="1"/>
        <pt x="218" y="11" on="0"/>
        <pt x="294" y="90" on="0"/>
        <pt x="304" y="143" on="1"/>
        <pt x="403" y="704" on="1"/>
      </contour>
    </TTGlyph>
    <TTGlyph name="K" xMin="37" yMin="0" xMax="551" yMax="704">
      <contour>
        <pt x="132" y="352" on="1"/>
        <pt x="426" y="0" on="1"/>
        <pt x="399" y="0" on="1"/>
        <pt x="117" y="336" on="1"/>
        <pt x="57" y="0" on="1"/>
        <pt x="37" y="0" on="1"/>
        <pt x="162" y="704" on="1"/>
        <pt x="182" y="704" on="1"/>
        <pt x="122" y="366" on="1"/>
        <pt x="524" y="704" on="1"/>
        <pt x="551" y="704" on="1"/>
      </contour>
    </TTGlyph>
    <TTGlyph name="L" xMin="37" yMin="0" xMax="331" yMax="704">
      <contour>
        <pt x="61" y="18" on="1"/>
        <pt x="331" y="18" on="1"/>
        <pt x="327" y="0" on="1"/>
        <pt x="37" y="0" on="1"/>
        <pt x="162" y="704" on="1"/>
        <pt x="182" y="704" on="1"/>
      </contour>
    </TTGlyph>
    <TTGlyph name="Lacute" xMin="37" yMin="0" xMax="390" yMax="883">
      <component glyphName="L" x="0" y="0" flags="0x0"/>
      <component glyphName="acute" x="80" y="143" flags="0x4"/>
    </TTGlyph>
    <TTGlyph name="Lcaron" xMin="37" yMin="0" xMax="365" yMax="704">
      <contour>
        <pt x="61" y="18" on="1"/>
        <pt x="331" y="18" on="1"/>
        <pt x="327" y="0" on="1"/>
        <pt x="37" y="0" on="1"/>
        <pt x="162" y="704" on="1"/>
        <pt x="182" y="704" on="1"/>
      </contour>
      <contour>
        <pt x="359" y="651" on="0"/>
        <pt x="356" y="635" on="1"/>
        <pt x="348" y="591" on="0"/>
        <pt x="309" y="557" on="0"/>
        <pt x="276" y="557" on="1"/>
        <pt x="279" y="577" on="1"/>
        <pt x="304" y="577" on="0"/>
        <pt x="328" y="599" on="0"/>
        <pt x="332" y="622" on="1"/>
        <pt x="337" y="651" on="1"/>
        <pt x="299" y="651" on="1"/>
        <pt x="309" y="704" on="1"/>
        <pt x="365" y="704" on="1"/>
      </contour>
    </TTGlyph>
    <TTGlyph name="Ldot" xMin="37" yMin="0" xMax="341" yMax="704">
      <contour>
        <pt x="162" y="704" on="1"/>
        <pt x="182" y="704" on="1"/>
        <pt x="61" y="18" on="1"/>
        <pt x="331" y="18" on="1"/>
        <pt x="327" y="0" on="1"/>
        <pt x="37" y="0" on="1"/>
      </contour>
      <contour>
        <pt x="296" y="308" on="0"/>
        <pt x="281" y="323" on="0"/>
        <pt x="281" y="333" on="1"/>
        <pt x="281" y="346" on="0"/>
        <pt x="303" y="368" on="0"/>
        <pt x="317" y="368" on="1"/>
        <pt x="327" y="368" on="0"/>
        <pt x="341" y="354" on="0"/>
        <pt x="341" y="343" on="1"/>
        <pt x="341" y="330" on="0"/>
        <pt x="320" y="308" on="0"/>
        <pt x="306" y="308" on="1"/>
      </contour>
    </TTGlyph>
    <TTGlyph name="Lslash" xMin="17" yMin="0" xMax="351" yMax="704">
      <contour>
        <pt x="351" y="18" on="1"/>
        <pt x="347" y="0" on="1"/>
        <pt x="57" y="0" on="1"/>
        <pt x="120" y="357" on="1"/>
        <pt x="17" y="312" on="1"/>
        <pt x="21" y="334" on="1"/>
        <pt x="124" y="379" on="1"/>
        <pt x="182" y="704" on="1"/>
        <pt x="202" y="704" on="1"/>
        <pt x="146" y="389" on="1"/>
        <pt x="320" y="464" on="1"/>
        <pt x="316" y="442" on="1"/>
        <pt x="142" y="367" on="1"/>
        <pt x="81" y="18" on="1"/>
      </contour>
    </TTGlyph>
    <TTGlyph name="M" xMin="37" yMin="0" xMax="785" yMax="684">
      <contour>
        <pt x="785" y="684" on="1"/>
        <pt x="664" y="0" on="1"/>
        <pt x="644" y="0" on="1"/>
        <pt x="756" y="635" on="1"/>
        <pt x="361" y="0" on="1"/>
        <pt x="341" y="0" on="1"/>
        <pt x="169" y="633" on="1"/>
        <pt x="57" y="0" on="1"/>
        <pt x="37" y="0" on="1"/>
        <pt x="158" y="684" on="1"/>
        <pt x="178" y="684" on="1"/>
        <pt x="357" y="27" on="1"/>
        <pt x="765" y="684" on="1"/>
      </contour>
    </TTGlyph>
    <TTGlyph name="N" xMin="37" yMin="0" xMax="638" yMax="703">
      <contour>
        <pt x="514" y="0" on="1"/>
        <pt x="494" y="0" on="1"/>
        <pt x="175" y="667" on="1"/>
        <pt x="57" y="0" on="1"/>
        <pt x="37" y="0" on="1"/>
        <pt x="161" y="703" on="1"/>
        <pt x="181" y="703" on="1"/>
        <pt x="501" y="37" on="1"/>
        <pt x="618" y="703" on="1"/>
        <pt x="638" y="703" on="1"/>
      </contour>
    </TTGlyph>
    <TTGlyph name="Nacute" xMin="37" yMin="0" xMax="638" yMax="883">
      <component glyphName="N" x="0" y="0" flags="0x0"/>
      <component glyphName="acute" x="202" y="143" flags="0x4"/>
    </TTGlyph>
    <TTGlyph name="Ncaron" xMin="37" yMin="0" xMax="638" yMax="861">
      <component glyphName="N" x="0" y="0" flags="0x0"/>
      <component glyphName="caron" x="185" y="143" flags="0x4"/>
    </TTGlyph>
    <TTGlyph name="Ntilde" xMin="37" yMin="0" xMax="638" yMax="813">
      <component glyphName="N" x="0" y="0" flags="0x0"/>
      <component glyphName="tilde" x="213" y="143" flags="0x4"/>
    </TTGlyph>
    <TTGlyph name="O" xMin="67" yMin="-8" xMax="753" yMax="710">
      <contour>
        <pt x="263" y="-8" on="0"/>
        <pt x="136" y="62" on="0"/>
        <pt x="67" y="190" on="0"/>
        <pt x="67" y="274" on="1"/>
        <pt x="67" y="389" on="0"/>
        <pt x="175" y="590" on="0"/>
        <pt x="361" y="710" on="0"/>
        <pt x="474" y="710" on="1"/>
        <pt x="558" y="710" on="0"/>
        <pt x="685" y="640" on="0"/>
        <pt x="753" y="512" on="0"/>
        <pt x="753" y="428" on="1"/>
        <pt x="753" y="313" on="0"/>
        <pt x="646" y="112" on="0"/>
        <pt x="459" y="-8" on="0"/>
        <pt x="347" y="-8" on="1"/>
      </contour>
      <contour>
        <pt x="457" y="10" on="0"/>
        <pt x="632" y="125" on="0"/>
        <pt x="732" y="317" on="0"/>
        <pt x="732" y="428" on="1"/>
        <pt x="732" y="509" on="0"/>
        <pt x="665" y="629" on="0"/>
        <pt x="547" y="692" on="0"/>
        <pt x="470" y="692" on="1"/>
        <pt x="362" y="692" on="0"/>
        <pt x="187" y="576" on="0"/>
        <pt x="88" y="384" on="0"/>
        <pt x="88" y="275" on="1"/>
        <pt x="88" y="194" on="0"/>
        <pt x="155" y="74" on="0"/>
        <pt x="273" y="10" on="0"/>
        <pt x="350" y="10" on="1"/>
      </contour>
    </TTGlyph>
    <TTGlyph name="OE" xMin="66" yMin="-8" xMax="1132" yMax="710">
      <contour>
        <pt x="747" y="361" on="1"/>
        <pt x="1041" y="361" on="1"/>
        <pt x="1038" y="343" on="1"/>
        <pt x="744" y="343" on="1"/>
        <pt x="687" y="18" on="1"/>
        <pt x="1011" y="18" on="1"/>
        <pt x="1007" y="0" on="1"/>
        <pt x="663" y="0" on="1"/>
        <pt x="706" y="240" on="1"/>
        <pt x="677" y="166" on="0"/>
        <pt x="566" y="54" on="0"/>
        <pt x="423" y="-8" on="0"/>
        <pt x="346" y="-8" on="1"/>
        <pt x="262" y="-8" on="0"/>
        <pt x="135" y="62" on="0"/>
        <pt x="66" y="190" on="0"/>
        <pt x="66" y="274" on="1"/>
        <pt x="66" y="313" on="0"/>
        <pt x="73" y="351" on="1"/>
        <pt x="91" y="455" on="0"/>
        <pt x="206" y="619" on="0"/>
        <pt x="376" y="710" on="0"/>
        <pt x="473" y="710" on="1"/>
        <pt x="550" y="710" on="0"/>
        <pt x="671" y="648" on="0"/>
        <pt x="742" y="536" on="0"/>
        <pt x="745" y="462" on="1"/>
        <pt x="788" y="704" on="1"/>
        <pt x="1132" y="704" on="1"/>
        <pt x="1128" y="686" on="1"/>
        <pt x="804" y="686" on="1"/>
      </contour>
      <contour>
        <pt x="87" y="315" on="0"/>
        <pt x="87" y="275" on="1"/>
        <pt x="87" y="194" on="0"/>
        <pt x="154" y="74" on="0"/>
        <pt x="272" y="10" on="0"/>
        <pt x="349" y="10" on="1"/>
        <pt x="437" y="10" on="0"/>
        <pt x="595" y="93" on="0"/>
        <pt x="706" y="248" on="0"/>
        <pt x="724" y="351" on="1"/>
        <pt x="731" y="389" on="0"/>
        <pt x="731" y="428" on="1"/>
        <pt x="731" y="509" on="0"/>
        <pt x="664" y="629" on="0"/>
        <pt x="546" y="692" on="0"/>
        <pt x="469" y="692" on="1"/>
        <pt x="381" y="692" on="0"/>
        <pt x="223" y="609" on="0"/>
        <pt x="113" y="454" on="0"/>
        <pt x="94" y="351" on="1"/>
      </contour>
    </TTGlyph>
    <TTGlyph name="Oacute" xMin="67" yMin="-8" xMax="753" yMax="883">
      <component glyphName="O" x="0" y="0" flags="0x0"/>
      <component glyphName="acute" x="285" y="143" flags="0x4"/>
    </TTGlyph>
    <TTGlyph name="Ocircumflex" xMin="67" yMin="-8" xMax="753" yMax="864">
      <component glyphName="O" x="0" y="0" flags="0x0"/>
      <component glyphName="circumflex" x="268" y="143" flags="0x4"/>
    </TTGlyph>
    <TTGlyph name="Odieresis" xMin="67" yMin="-8" xMax="753" yMax="830">
      <component glyphName="O" x="0" y="0" flags="0x0"/>
      <component glyphName="dieresis" x="273" y="143" flags="0x4"/>
    </TTGlyph>
    <TTGlyph name="Ograve" xMin="67" yMin="-8" xMax="753" yMax="883">
      <component glyphName="O" x="0" y="0" flags="0x0"/>
      <component glyphName="grave" x="285" y="143" flags="0x4"/>
    </TTGlyph>
    <TTGlyph name="Ohungarumlaut" xMin="67" yMin="-8" xMax="753" yMax="848">
      <component glyphName="O" x="0" y="0" flags="0x0"/>
      <component glyphName="hungarumlaut" x="320" y="143" flags="0x4"/>
    </TTGlyph>
    <TTGlyph name="Omacron" xMin="67" yMin="-8" xMax="753" yMax="820">
      <component glyphName="O" x="0" y="0" flags="0x0"/>
      <component glyphName="macron" x="237" y="143" flags="0x4"/>
    </TTGlyph>
    <TTGlyph name="Oslash" xMin="13" yMin="-8" xMax="808" yMax="710">
      <contour>
        <pt x="700" y="606" on="1"/>
        <pt x="753" y="533" on="0"/>
        <pt x="753" y="428" on="1"/>
        <pt x="753" y="313" on="0"/>
        <pt x="646" y="112" on="0"/>
        <pt x="459" y="-8" on="0"/>
        <pt x="347" y="-8" on="1"/>
        <pt x="278" y="-8" on="0"/>
        <pt x="167" y="40" on="0"/>
        <pt x="130" y="84" on="1"/>
        <pt x="38" y="0" on="1"/>
        <pt x="13" y="0" on="1"/>
        <pt x="119" y="97" on="1"/>
        <pt x="67" y="171" on="0"/>
        <pt x="67" y="274" on="1"/>
        <pt x="67" y="389" on="0"/>
        <pt x="175" y="590" on="0"/>
        <pt x="361" y="710" on="0"/>
        <pt x="474" y="710" on="1"/>
        <pt x="543" y="710" on="0"/>
        <pt x="654" y="662" on="0"/>
        <pt x="690" y="618" on="1"/>
        <pt x="784" y="704" on="1"/>
        <pt x="808" y="704" on="1"/>
      </contour>
      <contour>
        <pt x="88" y="178" on="0"/>
        <pt x="135" y="111" on="1"/>
        <pt x="675" y="604" on="1"/>
        <pt x="640" y="647" on="0"/>
        <pt x="534" y="692" on="0"/>
        <pt x="470" y="692" on="1"/>
        <pt x="362" y="692" on="0"/>
        <pt x="187" y="576" on="0"/>
        <pt x="88" y="384" on="0"/>
        <pt x="88" y="275" on="1"/>
      </contour>
      <contour>
        <pt x="732" y="525" on="0"/>
        <pt x="685" y="591" on="1"/>
        <pt x="145" y="98" on="1"/>
        <pt x="180" y="55" on="0"/>
        <pt x="286" y="10" on="0"/>
        <pt x="350" y="10" on="1"/>
        <pt x="457" y="10" on="0"/>
        <pt x="632" y="125" on="0"/>
        <pt x="732" y="317" on="0"/>
        <pt x="732" y="428" on="1"/>
      </contour>
    </TTGlyph>
    <TTGlyph name="Otilde" xMin="67" yMin="-8" xMax="753" yMax="813">
      <component glyphName="O" x="0" y="0" flags="0x0"/>
      <component glyphName="tilde" x="296" y="143" flags="0x4"/>
    </TTGlyph>
    <TTGlyph name="P" xMin="37" yMin="0" xMax="534" yMax="704">
      <contour>
        <pt x="513" y="413" on="0"/>
        <pt x="382" y="317" on="0"/>
        <pt x="271" y="317" on="1"/>
        <pt x="113" y="317" on="1"/>
        <pt x="57" y="0" on="1"/>
        <pt x="37" y="0" on="1"/>
        <pt x="162" y="704" on="1"/>
        <pt x="340" y="704" on="1"/>
        <pt x="439" y="704" on="0"/>
        <pt x="534" y="627" on="0"/>
        <pt x="534" y="557" on="1"/>
        <pt x="534" y="531" on="0"/>
        <pt x="530" y="510" on="1"/>
      </contour>
      <contour>
        <pt x="383" y="338" on="0"/>
        <pt x="496" y="428" on="0"/>
        <pt x="510" y="510" on="1"/>
        <pt x="515" y="537" on="0"/>
        <pt x="515" y="556" on="1"/>
        <pt x="515" y="619" on="0"/>
        <pt x="429" y="684" on="0"/>
        <pt x="336" y="684" on="1"/>
        <pt x="178" y="684" on="1"/>
        <pt x="117" y="338" on="1"/>
        <pt x="275" y="338" on="1"/>
      </contour>
    </TTGlyph>
    <TTGlyph name="Q" xMin="67" yMin="-149" xMax="753" yMax="710">
      <contour>
        <pt x="753" y="338" on="0"/>
        <pt x="686" y="173" on="0"/>
        <pt x="564" y="49" on="0"/>
        <pt x="486" y="18" on="1"/>
        <pt x="669" y="-149" on="1"/>
        <pt x="634" y="-149" on="1"/>
        <pt x="460" y="9" on="1"/>
        <pt x="406" y="-8" on="0"/>
        <pt x="347" y="-8" on="1"/>
        <pt x="263" y="-8" on="0"/>
        <pt x="136" y="62" on="0"/>
        <pt x="67" y="190" on="0"/>
        <pt x="67" y="274" on="1"/>
        <pt x="67" y="389" on="0"/>
        <pt x="175" y="590" on="0"/>
        <pt x="361" y="710" on="0"/>
        <pt x="474" y="710" on="1"/>
        <pt x="558" y="710" on="0"/>
        <pt x="685" y="640" on="0"/>
        <pt x="753" y="512" on="0"/>
        <pt x="753" y="428" on="1"/>
      </contour>
      <contour>
        <pt x="88" y="194" on="0"/>
        <pt x="155" y="74" on="0"/>
        <pt x="273" y="10" on="0"/>
        <pt x="350" y="10" on="1"/>
        <pt x="457" y="10" on="0"/>
        <pt x="632" y="125" on="0"/>
        <pt x="732" y="317" on="0"/>
        <pt x="732" y="428" on="1"/>
        <pt x="732" y="509" on="0"/>
        <pt x="665" y="629" on="0"/>
        <pt x="547" y="692" on="0"/>
        <pt x="470" y="692" on="1"/>
        <pt x="362" y="692" on="0"/>
        <pt x="187" y="576" on="0"/>
        <pt x="88" y="384" on="0"/>
        <pt x="88" y="275" on="1"/>
      </contour>
    </TTGlyph>
    <TTGlyph name="R" xMin="37" yMin="0" xMax="536" yMax="704">
      <contour>
        <pt x="439" y="704" on="0"/>
        <pt x="536" y="623" on="0"/>
        <pt x="536" y="550" on="1"/>
        <pt x="536" y="526" on="0"/>
        <pt x="532" y="506" on="1"/>
        <pt x="516" y="420" on="0"/>
        <pt x="403" y="319" on="0"/>
        <pt x="312" y="309" on="1"/>
        <pt x="447" y="0" on="1"/>
        <pt x="422" y="0" on="1"/>
        <pt x="288" y="307" on="1"/>
        <pt x="270" y="307" on="1"/>
        <pt x="112" y="307" on="1"/>
        <pt x="57" y="0" on="1"/>
        <pt x="37" y="0" on="1"/>
        <pt x="162" y="704" on="1"/>
        <pt x="338" y="704" on="1"/>
      </contour>
      <contour>
        <pt x="515" y="526" on="0"/>
        <pt x="515" y="550" on="1"/>
        <pt x="515" y="684" on="0"/>
        <pt x="334" y="684" on="1"/>
        <pt x="178" y="684" on="1"/>
        <pt x="115" y="326" on="1"/>
        <pt x="273" y="326" on="1"/>
        <pt x="376" y="326" on="0"/>
        <pt x="496" y="424" on="0"/>
        <pt x="511" y="506" on="1"/>
      </contour>
    </TTGlyph>
    <TTGlyph name="Racute" xMin="37" yMin="0" xMax="536" yMax="883">
      <component glyphName="R" x="0" y="0" flags="0x0"/>
      <component glyphName="acute" x="174" y="143" flags="0x4"/>
    </TTGlyph>
    <TTGlyph name="Rcaron" xMin="37" yMin="0" xMax="536" yMax="861">
      <component glyphName="R" x="0" y="0" flags="0x0"/>
      <component glyphName="caron" x="157" y="143" flags="0x4"/>
    </TTGlyph>
    <TTGlyph name="S" xMin="32" yMin="-7" xMax="501" yMax="711">
      <contour>
        <pt x="162" y="-7" on="0"/>
        <pt x="72" y="41" on="0"/>
        <pt x="32" y="120" on="0"/>
        <pt x="35" y="166" on="1"/>
        <pt x="55" y="166" on="1"/>
        <pt x="53" y="131" on="0"/>
        <pt x="82" y="61" on="0"/>
        <pt x="162" y="11" on="0"/>
        <pt x="232" y="11" on="1"/>
        <pt x="311" y="11" on="0"/>
        <pt x="417" y="91" on="0"/>
        <pt x="428" y="157" on="1"/>
        <pt x="431" y="177" on="0"/>
        <pt x="431" y="194" on="1"/>
        <pt x="431" y="241" on="0"/>
        <pt x="385" y="302" on="0"/>
        <pt x="317" y="338" on="0"/>
        <pt x="261" y="359" on="1"/>
        <pt x="205" y="380" on="0"/>
        <pt x="138" y="415" on="0"/>
        <pt x="92" y="476" on="0"/>
        <pt x="92" y="522" on="1"/>
        <pt x="92" y="539" on="0"/>
        <pt x="95" y="557" on="1"/>
        <pt x="102" y="599" on="0"/>
        <pt x="158" y="669" on="0"/>
        <pt x="252" y="711" on="0"/>
        <pt x="314" y="711" on="1"/>
        <pt x="375" y="711" on="0"/>
        <pt x="460" y="667" on="0"/>
        <pt x="501" y="599" on="0"/>
        <pt x="499" y="563" on="1"/>
        <pt x="479" y="563" on="1"/>
        <pt x="480" y="591" on="0"/>
        <pt x="444" y="651" on="0"/>
        <pt x="367" y="693" on="0"/>
        <pt x="311" y="693" on="1"/>
        <pt x="235" y="693" on="0"/>
        <pt x="126" y="620" on="0"/>
        <pt x="115" y="557" on="1"/>
        <pt x="112" y="541" on="0"/>
        <pt x="112" y="526" on="1"/>
        <pt x="112" y="484" on="0"/>
        <pt x="155" y="429" on="0"/>
        <pt x="219" y="397" on="0"/>
        <pt x="273" y="376" on="1"/>
        <pt x="333" y="353" on="0"/>
        <pt x="403" y="316" on="0"/>
        <pt x="452" y="249" on="0"/>
        <pt x="452" y="198" on="1"/>
        <pt x="452" y="177" on="0"/>
        <pt x="448" y="157" on="1"/>
        <pt x="440" y="113" on="0"/>
        <pt x="385" y="38" on="0"/>
        <pt x="291" y="-7" on="0"/>
        <pt x="229" y="-7" on="1"/>
      </contour>
    </TTGlyph>
    <TTGlyph name="Sacute" xMin="32" yMin="-7" xMax="501" yMax="883">
      <component glyphName="S" x="0" y="0" flags="0x0"/>
      <component glyphName="acute" x="145" y="143" flags="0x4"/>
    </TTGlyph>
    <TTGlyph name="Scaron" xMin="32" yMin="-7" xMax="501" yMax="861">
      <component glyphName="S" x="0" y="0" flags="0x0"/>
      <component glyphName="caron" x="128" y="143" flags="0x4"/>
    </TTGlyph>
    <TTGlyph name="T" xMin="93" yMin="0" xMax="527" yMax="704">
      <contour>
        <pt x="527" y="704" on="1"/>
        <pt x="523" y="686" on="1"/>
        <pt x="318" y="686" on="1"/>
        <pt x="197" y="0" on="1"/>
        <pt x="177" y="0" on="1"/>
        <pt x="298" y="686" on="1"/>
        <pt x="93" y="686" on="1"/>
        <pt x="97" y="704" on="1"/>
      </contour>
    </TTGlyph>
    <TTGlyph name="Tcaron" xMin="93" yMin="0" xMax="527" yMax="861">
      <component glyphName="T" x="0" y="0" flags="0x0"/>
      <component glyphName="caron" x="97" y="143" flags="0x4"/>
    </TTGlyph>
    <TTGlyph name="Thorn" xMin="37" yMin="0" xMax="506" yMax="704">
      <contour>
        <pt x="486" y="256" on="0"/>
        <pt x="354" y="159" on="0"/>
        <pt x="243" y="159" on="1"/>
        <pt x="85" y="159" on="1"/>
        <pt x="57" y="0" on="1"/>
        <pt x="37" y="0" on="1"/>
        <pt x="162" y="704" on="1"/>
        <pt x="182" y="704" on="1"/>
        <pt x="154" y="546" on="1"/>
        <pt x="312" y="546" on="1"/>
        <pt x="411" y="546" on="0"/>
        <pt x="506" y="469" on="0"/>
        <pt x="506" y="399" on="1"/>
        <pt x="506" y="373" on="0"/>
        <pt x="502" y="352" on="1"/>
      </contour>
      <contour>
        <pt x="355" y="180" on="0"/>
        <pt x="468" y="270" on="0"/>
        <pt x="482" y="352" on="1"/>
        <pt x="487" y="379" on="0"/>
        <pt x="487" y="398" on="1"/>
        <pt x="487" y="461" on="0"/>
        <pt x="401" y="526" on="0"/>
        <pt x="308" y="526" on="1"/>
        <pt x="150" y="526" on="1"/>
        <pt x="89" y="180" on="1"/>
        <pt x="247" y="180" on="1"/>
      </contour>
    </TTGlyph>
    <TTGlyph name="U" xMin="72" yMin="-7" xMax="626" yMax="704">
      <contour>
        <pt x="177" y="704" on="1"/>
        <pt x="99" y="267" on="1"/>
        <pt x="92" y="226" on="0"/>
        <pt x="92" y="189" on="1"/>
        <pt x="92" y="97" on="0"/>
        <pt x="187" y="11" on="0"/>
        <pt x="271" y="11" on="1"/>
        <pt x="369" y="11" on="0"/>
        <pt x="505" y="133" on="0"/>
        <pt x="528" y="267" on="1"/>
        <pt x="606" y="704" on="1"/>
        <pt x="626" y="704" on="1"/>
        <pt x="548" y="267" on="1"/>
        <pt x="523" y="127" on="0"/>
        <pt x="377" y="-7" on="0"/>
        <pt x="268" y="-7" on="1"/>
        <pt x="176" y="-7" on="0"/>
        <pt x="72" y="89" on="0"/>
        <pt x="72" y="188" on="1"/>
        <pt x="72" y="226" on="0"/>
        <pt x="79" y="267" on="1"/>
        <pt x="157" y="704" on="1"/>
      </contour>
    </TTGlyph>
    <TTGlyph name="Uacute" xMin="72" yMin="-7" xMax="626" yMax="883">
      <component glyphName="U" x="0" y="0" flags="0x0"/>
      <component glyphName="acute" x="192" y="143" flags="0x4"/>
    </TTGlyph>
    <TTGlyph name="Ubreve" xMin="72" yMin="-7" xMax="626" yMax="867">
      <component glyphName="U" x="0" y="0" flags="0x0"/>
      <component glyphName="breve" x="181" y="143" flags="0x4"/>
    </TTGlyph>
    <TTGlyph name="Ucircumflex" xMin="72" yMin="-7" xMax="626" yMax="864">
      <component glyphName="U" x="0" y="0" flags="0x0"/>
      <component glyphName="circumflex" x="175" y="143" flags="0x4"/>
    </TTGlyph>
    <TTGlyph name="Udieresis" xMin="72" yMin="-7" xMax="626" yMax="830">
      <component glyphName="U" x="0" y="0" flags="0x0"/>
      <component glyphName="dieresis" x="180" y="143" flags="0x4"/>
    </TTGlyph>
    <TTGlyph name="Ugrave" xMin="72" yMin="-7" xMax="626" yMax="883">
      <component glyphName="U" x="0" y="0" flags="0x0"/>
      <component glyphName="grave" x="192" y="143" flags="0x4"/>
    </TTGlyph>
    <TTGlyph name="Uhungarumlaut" xMin="72" yMin="-7" xMax="626" yMax="848">
      <component glyphName="U" x="0" y="0" flags="0x0"/>
      <component glyphName="hungarumlaut" x="227" y="143" flags="0x4"/>
    </TTGlyph>
    <TTGlyph name="Umacron" xMin="72" yMin="-7" xMax="626" yMax="820">
      <component glyphName="U" x="0" y="0" flags="0x0"/>
      <component glyphName="macron" x="144" y="143" flags="0x4"/>
    </TTGlyph>
    <TTGlyph name="Uogonek" xMin="72" yMin="-190" xMax="626" yMax="704">
      <contour>
        <pt x="626" y="704" on="1"/>
        <pt x="548" y="267" on="1"/>
        <pt x="527" y="147" on="0"/>
        <pt x="411" y="14" on="0"/>
        <pt x="325" y="-2" on="1"/>
        <pt x="253" y="-33" on="1"/>
        <pt x="167" y="-69" on="0"/>
        <pt x="167" y="-127" on="1"/>
        <pt x="167" y="-149" on="0"/>
        <pt x="200" y="-171" on="0"/>
        <pt x="227" y="-171" on="1"/>
        <pt x="256" y="-171" on="0"/>
        <pt x="293" y="-158" on="1"/>
        <pt x="289" y="-178" on="1"/>
        <pt x="256" y="-190" on="0"/>
        <pt x="224" y="-190" on="1"/>
        <pt x="189" y="-190" on="0"/>
        <pt x="147" y="-161" on="0"/>
        <pt x="147" y="-131" on="1"/>
        <pt x="147" y="-58" on="0"/>
        <pt x="250" y="-15" on="1"/>
        <pt x="269" y="-7" on="1"/>
        <pt x="268" y="-7" on="1"/>
        <pt x="176" y="-7" on="0"/>
        <pt x="72" y="89" on="0"/>
        <pt x="72" y="188" on="1"/>
        <pt x="72" y="226" on="0"/>
        <pt x="79" y="267" on="1"/>
        <pt x="157" y="704" on="1"/>
        <pt x="177" y="704" on="1"/>
        <pt x="99" y="267" on="1"/>
        <pt x="92" y="226" on="0"/>
        <pt x="92" y="189" on="1"/>
        <pt x="92" y="97" on="0"/>
        <pt x="187" y="11" on="0"/>
        <pt x="271" y="11" on="1"/>
        <pt x="300" y="11" on="0"/>
        <pt x="323" y="15" on="1"/>
        <pt x="324" y="16" on="1"/>
        <pt x="402" y="30" on="0"/>
        <pt x="508" y="152" on="0"/>
        <pt x="528" y="267" on="1"/>
        <pt x="606" y="704" on="1"/>
      </contour>
    </TTGlyph>
    <TTGlyph name="Uring" xMin="72" yMin="-7" xMax="626" yMax="938">
      <component glyphName="U" x="0" y="0" flags="0x0"/>
      <component glyphName="ring" x="209" y="143" flags="0x4"/>
    </TTGlyph>
    <TTGlyph name="Utilde" xMin="72" yMin="-7" xMax="626" yMax="813">
      <component glyphName="U" x="0" y="0" flags="0x0"/>
      <component glyphName="tilde" x="203" y="143" flags="0x4"/>
    </TTGlyph>
    <TTGlyph name="V" xMin="107" yMin="0" xMax="666" yMax="704">
      <contour>
        <pt x="131" y="704" on="1"/>
        <pt x="267" y="35" on="1"/>
        <pt x="642" y="704" on="1"/>
        <pt x="666" y="704" on="1"/>
        <pt x="271" y="0" on="1"/>
        <pt x="251" y="0" on="1"/>
        <pt x="107" y="704" on="1"/>
      </contour>
    </TTGlyph>
    <TTGlyph name="W" xMin="112" yMin="0" xMax="946" yMax="704">
      <contour>
        <pt x="946" y="704" on="1"/>
        <pt x="632" y="0" on="1"/>
        <pt x="612" y="0" on="1"/>
        <pt x="522" y="668" on="1"/>
        <pt x="196" y="0" on="1"/>
        <pt x="176" y="0" on="1"/>
        <pt x="112" y="704" on="1"/>
        <pt x="136" y="704" on="1"/>
        <pt x="195" y="43" on="1"/>
        <pt x="517" y="704" on="1"/>
        <pt x="541" y="704" on="1"/>
        <pt x="629" y="43" on="1"/>
        <pt x="922" y="704" on="1"/>
      </contour>
    </TTGlyph>
    <TTGlyph name="Wacute" xMin="112" yMin="0" xMax="946" yMax="904">
      <component glyphName="W" x="0" y="0" flags="0x0"/>
      <component glyphName="acute" x="409" y="164" flags="0x4"/>
    </TTGlyph>
    <TTGlyph name="Wcircumflex" xMin="112" yMin="0" xMax="946" yMax="885">
      <component glyphName="W" x="0" y="0" flags="0x0"/>
      <component glyphName="circumflex" x="289" y="164" flags="0x4"/>
    </TTGlyph>
    <TTGlyph name="Wdieresis" xMin="112" yMin="0" xMax="946" yMax="851">
      <component glyphName="W" x="0" y="0" flags="0x0"/>
      <component glyphName="dieresis" x="293" y="164" flags="0x4"/>
    </TTGlyph>
    <TTGlyph name="Wgrave" xMin="112" yMin="0" xMax="946" yMax="904">
      <component glyphName="W" x="0" y="0" flags="0x0"/>
      <component glyphName="grave" x="219" y="164" flags="0x4"/>
    </TTGlyph>
    <TTGlyph name="X" xMin="-18" yMin="0" xMax="547" yMax="704">
      <contour>
        <pt x="276" y="352" on="1"/>
        <pt x="422" y="0" on="1"/>
        <pt x="399" y="0" on="1"/>
        <pt x="259" y="338" on="1"/>
        <pt x="5" y="0" on="1"/>
        <pt x="-18" y="0" on="1"/>
        <pt x="251" y="357" on="1"/>
        <pt x="107" y="704" on="1"/>
        <pt x="130" y="704" on="1"/>
        <pt x="268" y="371" on="1"/>
        <pt x="524" y="704" on="1"/>
        <pt x="547" y="704" on="1"/>
      </contour>
    </TTGlyph>
    <TTGlyph name="Y" xMin="107" yMin="0" xMax="565" yMax="704">
      <contour>
        <pt x="565" y="704" on="1"/>
        <pt x="274" y="295" on="1"/>
        <pt x="222" y="0" on="1"/>
        <pt x="202" y="0" on="1"/>
        <pt x="254" y="295" on="1"/>
        <pt x="107" y="704" on="1"/>
        <pt x="131" y="704" on="1"/>
        <pt x="268" y="317" on="1"/>
        <pt x="541" y="704" on="1"/>
      </contour>
    </TTGlyph>
    <TTGlyph name="Yacute" xMin="107" yMin="0" xMax="565" yMax="883">
      <component glyphName="Y" x="0" y="0" flags="0x0"/>
      <component glyphName="acute" x="138" y="143" flags="0x4"/>
    </TTGlyph>
    <TTGlyph name="Ycircumflex" xMin="107" yMin="0" xMax="565" yMax="864">
      <component glyphName="Y" x="0" y="0" flags="0x0"/>
      <component glyphName="circumflex" x="121" y="143" flags="0x4"/>
    </TTGlyph>
    <TTGlyph name="Ydieresis" xMin="107" yMin="0" xMax="565" yMax="830">
      <component glyphName="Y" x="0" y="0" flags="0x0"/>
      <component glyphName="dieresis" x="126" y="143" flags="0x4"/>
    </TTGlyph>
    <TTGlyph name="Ygrave" xMin="107" yMin="0" xMax="565" yMax="883">
      <component glyphName="Y" x="0" y="0" flags="0x0"/>
      <component glyphName="grave" x="138" y="143" flags="0x4"/>
    </TTGlyph>
    <TTGlyph name="Z" xMin="-13" yMin="0" xMax="519" yMax="704">
      <contour>
        <pt x="13" y="19" on="1"/>
        <pt x="408" y="19" on="1"/>
        <pt x="404" y="0" on="1"/>
        <pt x="-13" y="0" on="1"/>
        <pt x="-9" y="19" on="1"/>
        <pt x="494" y="684" on="1"/>
        <pt x="121" y="684" on="1"/>
        <pt x="125" y="704" on="1"/>
        <pt x="519" y="704" on="1"/>
        <pt x="515" y="684" on="1"/>
      </contour>
    </TTGlyph>
    <TTGlyph name="Zacute" xMin="-13" yMin="0" xMax="519" yMax="883">
      <component glyphName="Z" x="0" y="0" flags="0x0"/>
      <component glyphName="acute" x="123" y="143" flags="0x4"/>
    </TTGlyph>
    <TTGlyph name="Zcaron" xMin="-13" yMin="0" xMax="519" yMax="861">
      <component glyphName="Z" x="0" y="0" flags="0x0"/>
      <component glyphName="caron" x="106" y="143" flags="0x4"/>
    </TTGlyph>
    <TTGlyph name="Zdotaccent" xMin="-13" yMin="0" xMax="519" yMax="808">
      <component glyphName="Z" x="0" y="0" flags="0x0"/>
      <component glyphName="dotaccent" x="189" y="121" flags="0x4"/>
    </TTGlyph>
    <TTGlyph name="a" xMin="54" yMin="-7" xMax="634" yMax="547">
      <contour>
        <pt x="75" y="355" on="0"/>
        <pt x="163" y="480" on="0"/>
        <pt x="295" y="547" on="0"/>
        <pt x="372" y="547" on="1"/>
        <pt x="465" y="547" on="0"/>
        <pt x="577" y="451" on="0"/>
        <pt x="586" y="375" on="1"/>
        <pt x="615" y="540" on="1"/>
        <pt x="634" y="540" on="1"/>
        <pt x="538" y="0" on="1"/>
        <pt x="519" y="0" on="1"/>
        <pt x="548" y="165" on="1"/>
        <pt x="513" y="90" on="0"/>
        <pt x="367" y="-7" on="0"/>
        <pt x="274" y="-7" on="1"/>
        <pt x="172" y="-7" on="0"/>
        <pt x="54" y="107" on="0"/>
        <pt x="54" y="206" on="1"/>
        <pt x="54" y="237" on="0"/>
        <pt x="60" y="270" on="1"/>
      </contour>
      <contour>
        <pt x="572" y="295" on="0"/>
        <pt x="572" y="327" on="1"/>
        <pt x="572" y="420" on="0"/>
        <pt x="462" y="529" on="0"/>
        <pt x="369" y="529" on="1"/>
        <pt x="257" y="529" on="0"/>
        <pt x="101" y="390" on="0"/>
        <pt x="80" y="270" on="1"/>
        <pt x="74" y="237" on="0"/>
        <pt x="74" y="208" on="1"/>
        <pt x="74" y="115" on="0"/>
        <pt x="181" y="11" on="0"/>
        <pt x="277" y="11" on="1"/>
        <pt x="347" y="11" on="0"/>
        <pt x="470" y="76" on="0"/>
        <pt x="553" y="193" on="0"/>
        <pt x="567" y="270" on="1"/>
      </contour>
    </TTGlyph>
    <TTGlyph name="a.ss02" xMin="38" yMin="-10" xMax="503" yMax="545">
      <contour>
        <pt x="411" y="75" on="0"/>
        <pt x="278" y="-10" on="0"/>
        <pt x="191" y="-10" on="1"/>
        <pt x="120" y="-10" on="0"/>
        <pt x="38" y="62" on="0"/>
        <pt x="38" y="128" on="1"/>
        <pt x="38" y="184" on="0"/>
        <pt x="97" y="269" on="0"/>
        <pt x="202" y="315" on="0"/>
        <pt x="269" y="315" on="1"/>
        <pt x="478" y="315" on="1"/>
        <pt x="483" y="350" on="0"/>
        <pt x="483" y="374" on="1"/>
        <pt x="483" y="452" on="0"/>
        <pt x="408" y="528" on="0"/>
        <pt x="330" y="528" on="1"/>
        <pt x="251" y="528" on="0"/>
        <pt x="136" y="439" on="0"/>
        <pt x="109" y="360" on="1"/>
        <pt x="90" y="360" on="1"/>
        <pt x="119" y="444" on="0"/>
        <pt x="243" y="545" on="0"/>
        <pt x="333" y="545" on="1"/>
        <pt x="415" y="545" on="0"/>
        <pt x="503" y="461" on="0"/>
        <pt x="503" y="378" on="1"/>
        <pt x="503" y="349" on="0"/>
        <pt x="497" y="314" on="1"/>
        <pt x="442" y="0" on="1"/>
        <pt x="423" y="0" on="1"/>
        <pt x="449" y="146" on="1"/>
      </contour>
      <contour>
        <pt x="260" y="7" on="0"/>
        <pt x="375" y="68" on="0"/>
        <pt x="454" y="180" on="0"/>
        <pt x="467" y="253" on="1"/>
        <pt x="475" y="297" on="1"/>
        <pt x="266" y="297" on="1"/>
        <pt x="202" y="297" on="0"/>
        <pt x="107" y="254" on="0"/>
        <pt x="56" y="177" on="0"/>
        <pt x="56" y="128" on="1"/>
        <pt x="56" y="71" on="0"/>
        <pt x="131" y="7" on="0"/>
        <pt x="194" y="7" on="1"/>
      </contour>
    </TTGlyph>
    <TTGlyph name="aacute" xMin="54" yMin="-7" xMax="634" yMax="740">
      <component glyphName="a" x="0" y="0" flags="0x0"/>
      <component glyphName="acute" x="192" y="0" flags="0x0"/>
    </TTGlyph>
    <TTGlyph name="aacute.ss02" xMin="38" yMin="-10" xMax="503" yMax="740">
      <component glyphName="acute" x="192" y="0" flags="0x0"/>
      <component glyphName="a.ss02" x="0" y="0" flags="0x0"/>
    </TTGlyph>
    <TTGlyph name="abreve" xMin="54" yMin="-7" xMax="634" yMax="724">
      <component glyphName="a" x="0" y="0" flags="0x0"/>
      <component glyphName="breve" x="181" y="0" flags="0x0"/>
    </TTGlyph>
    <TTGlyph name="abreve.ss02" xMin="38" yMin="-10" xMax="535" yMax="724">
      <component glyphName="breve" x="179" y="0" flags="0x0"/>
      <component glyphName="a.ss02" x="0" y="0" flags="0x0"/>
    </TTGlyph>
    <TTGlyph name="acircumflex" xMin="54" yMin="-7" xMax="634" yMax="721">
      <component glyphName="a" x="0" y="0" flags="0x0"/>
      <component glyphName="circumflex" x="175" y="0" flags="0x0"/>
    </TTGlyph>
    <TTGlyph name="acircumflex.ss02" xMin="38" yMin="-10" xMax="525" yMax="721">
      <component glyphName="circumflex" x="173" y="0" flags="0x0"/>
      <component glyphName="a.ss02" x="0" y="0" flags="0x0"/>
    </TTGlyph>
    <TTGlyph name="acute" xMin="96" yMin="586" xMax="310" yMax="740">
      <contour>
        <pt x="306" y="716" on="1"/>
        <pt x="96" y="586" on="1"/>
        <pt x="99" y="606" on="1"/>
        <pt x="310" y="740" on="1"/>
      </contour>
    </TTGlyph>
    <TTGlyph name="adieresis" xMin="54" yMin="-7" xMax="634" yMax="687">
      <component glyphName="a" x="0" y="0" flags="0x0"/>
      <component glyphName="dieresis" x="180" y="0" flags="0x0"/>
    </TTGlyph>
    <TTGlyph name="adieresis.ss02" xMin="38" yMin="-10" xMax="503" yMax="687">
      <component glyphName="dieresis" x="178" y="0" flags="0x0"/>
      <component glyphName="a.ss02" x="0" y="0" flags="0x0"/>
    </TTGlyph>
    <TTGlyph name="ae" xMin="54" yMin="-7" xMax="1087" yMax="547">
      <contour>
        <pt x="945" y="547" on="0"/>
        <pt x="1040" y="494" on="0"/>
        <pt x="1087" y="408" on="0"/>
        <pt x="1087" y="356" on="1"/>
        <pt x="1087" y="343" on="0"/>
        <pt x="1083" y="315" on="1"/>
        <pt x="1076" y="279" on="0"/>
        <pt x="1069" y="261" on="1"/>
        <pt x="585" y="261" on="1"/>
        <pt x="580" y="229" on="0"/>
        <pt x="580" y="206" on="1"/>
        <pt x="580" y="110" on="0"/>
        <pt x="694" y="11" on="0"/>
        <pt x="781" y="11" on="1"/>
        <pt x="872" y="11" on="0"/>
        <pt x="1013" y="104" on="0"/>
        <pt x="1040" y="183" on="1"/>
        <pt x="1060" y="183" on="1"/>
        <pt x="1031" y="98" on="0"/>
        <pt x="881" y="-7" on="0"/>
        <pt x="778" y="-7" on="1"/>
        <pt x="689" y="-7" on="0"/>
        <pt x="574" y="87" on="0"/>
        <pt x="569" y="175" on="1"/>
        <pt x="538" y="0" on="1"/>
        <pt x="519" y="0" on="1"/>
        <pt x="550" y="174" on="1"/>
        <pt x="514" y="93" on="0"/>
        <pt x="368" y="-7" on="0"/>
        <pt x="274" y="-7" on="1"/>
        <pt x="172" y="-7" on="0"/>
        <pt x="54" y="107" on="0"/>
        <pt x="54" y="206" on="1"/>
        <pt x="54" y="237" on="0"/>
        <pt x="60" y="270" on="1"/>
        <pt x="75" y="355" on="0"/>
        <pt x="163" y="480" on="0"/>
        <pt x="295" y="547" on="0"/>
        <pt x="372" y="547" on="1"/>
        <pt x="465" y="547" on="0"/>
        <pt x="576" y="447" on="0"/>
        <pt x="584" y="366" on="1"/>
        <pt x="615" y="540" on="1"/>
        <pt x="634" y="540" on="1"/>
        <pt x="603" y="365" on="1"/>
        <pt x="639" y="452" on="0"/>
        <pt x="788" y="547" on="0"/>
        <pt x="876" y="547" on="1"/>
      </contour>
      <contour>
        <pt x="572" y="295" on="0"/>
        <pt x="572" y="327" on="1"/>
        <pt x="572" y="420" on="0"/>
        <pt x="462" y="529" on="0"/>
        <pt x="369" y="529" on="1"/>
        <pt x="257" y="529" on="0"/>
        <pt x="101" y="390" on="0"/>
        <pt x="80" y="270" on="1"/>
        <pt x="74" y="237" on="0"/>
        <pt x="74" y="208" on="1"/>
        <pt x="74" y="115" on="0"/>
        <pt x="181" y="11" on="0"/>
        <pt x="277" y="11" on="1"/>
        <pt x="347" y="11" on="0"/>
        <pt x="470" y="76" on="0"/>
        <pt x="553" y="193" on="0"/>
        <pt x="567" y="270" on="1"/>
      </contour>
      <contour>
        <pt x="1068" y="318" on="0"/>
        <pt x="1068" y="349" on="1"/>
        <pt x="1068" y="438" on="0"/>
        <pt x="956" y="529" on="0"/>
        <pt x="873" y="529" on="1"/>
        <pt x="809" y="529" on="0"/>
        <pt x="691" y="474" on="0"/>
        <pt x="604" y="362" on="0"/>
        <pt x="589" y="279" on="1"/>
        <pt x="1059" y="279" on="1"/>
      </contour>
    </TTGlyph>
    <TTGlyph name="agrave" xMin="54" yMin="-7" xMax="634" yMax="740">
      <component glyphName="a" x="0" y="0" flags="0x0"/>
      <component glyphName="grave" x="192" y="0" flags="0x0"/>
    </TTGlyph>
    <TTGlyph name="agrave.ss02" xMin="38" yMin="-10" xMax="503" yMax="740">
      <component glyphName="grave" x="190" y="0" flags="0x0"/>
      <component glyphName="a.ss02" x="0" y="0" flags="0x0"/>
    </TTGlyph>
    <TTGlyph name="amacron" xMin="54" yMin="-7" xMax="634" yMax="677">
      <component glyphName="a" x="0" y="0" flags="0x0"/>
      <component glyphName="macron" x="144" y="0" flags="0x0"/>
    </TTGlyph>
    <TTGlyph name="amacron.ss02" xMin="38" yMin="-10" xMax="563" yMax="677">
      <component glyphName="macron" x="142" y="0" flags="0x0"/>
      <component glyphName="a.ss02" x="0" y="0" flags="0x0"/>
    </TTGlyph>
    <TTGlyph name="ampersand" xMin="28" yMin="-10" xMax="680" yMax="709">
      <contour>
        <pt x="602" y="255" on="1"/>
        <pt x="540" y="172" on="0"/>
        <pt x="492" y="123" on="1"/>
        <pt x="589" y="0" on="1"/>
        <pt x="566" y="0" on="1"/>
        <pt x="479" y="109" on="1"/>
        <pt x="416" y="47" on="0"/>
        <pt x="295" y="-10" on="0"/>
        <pt x="224" y="-10" on="1"/>
        <pt x="166" y="-10" on="0"/>
        <pt x="77" y="35" on="0"/>
        <pt x="28" y="116" on="0"/>
        <pt x="28" y="168" on="1"/>
        <pt x="28" y="251" on="0"/>
        <pt x="138" y="378" on="0"/>
        <pt x="234" y="412" on="1"/>
        <pt x="237" y="413" on="1"/>
        <pt x="208" y="449" on="0"/>
        <pt x="179" y="513" on="0"/>
        <pt x="179" y="547" on="1"/>
        <pt x="179" y="593" on="0"/>
        <pt x="226" y="667" on="0"/>
        <pt x="309" y="709" on="0"/>
        <pt x="359" y="709" on="1"/>
        <pt x="416" y="709" on="0"/>
        <pt x="492" y="650" on="0"/>
        <pt x="492" y="597" on="1"/>
        <pt x="492" y="589" on="0"/>
        <pt x="490" y="573" on="1"/>
        <pt x="470" y="573" on="1"/>
        <pt x="472" y="587" on="0"/>
        <pt x="472" y="594" on="1"/>
        <pt x="472" y="640" on="0"/>
        <pt x="407" y="690" on="0"/>
        <pt x="358" y="690" on="1"/>
        <pt x="290" y="690" on="0"/>
        <pt x="199" y="611" on="0"/>
        <pt x="199" y="548" on="1"/>
        <pt x="199" y="518" on="0"/>
        <pt x="226" y="460" on="0"/>
        <pt x="252" y="427" on="1"/>
        <pt x="481" y="137" on="1"/>
        <pt x="529" y="188" on="0"/>
        <pt x="594" y="275" on="1"/>
        <pt x="658" y="360" on="1"/>
        <pt x="680" y="360" on="1"/>
      </contour>
      <contour>
        <pt x="292" y="9" on="0"/>
        <pt x="408" y="64" on="0"/>
        <pt x="468" y="124" on="1"/>
        <pt x="249" y="398" on="1"/>
        <pt x="241" y="395" on="1"/>
        <pt x="150" y="363" on="0"/>
        <pt x="48" y="248" on="0"/>
        <pt x="48" y="168" on="1"/>
        <pt x="48" y="97" on="0"/>
        <pt x="145" y="9" on="0"/>
        <pt x="224" y="9" on="1"/>
      </contour>
    </TTGlyph>
    <TTGlyph name="ampersand.ss03" xMin="23" yMin="-7" xMax="614" yMax="711">
      <contour>
        <pt x="590" y="0" on="1"/>
        <pt x="406" y="243" on="1"/>
        <pt x="411" y="226" on="0"/>
        <pt x="411" y="214" on="1"/>
        <pt x="411" y="206" on="0"/>
        <pt x="407" y="180" on="1"/>
        <pt x="398" y="126" on="0"/>
        <pt x="335" y="41" on="0"/>
        <pt x="241" y="-7" on="0"/>
        <pt x="188" y="-7" on="1"/>
        <pt x="116" y="-7" on="0"/>
        <pt x="23" y="77" on="0"/>
        <pt x="23" y="151" on="1"/>
        <pt x="23" y="174" on="0"/>
        <pt x="27" y="194" on="1"/>
        <pt x="43" y="286" on="0"/>
        <pt x="161" y="386" on="0"/>
        <pt x="237" y="386" on="1"/>
        <pt x="264" y="386" on="0"/>
        <pt x="310" y="370" on="0"/>
        <pt x="323" y="357" on="1"/>
        <pt x="285" y="404" on="1"/>
        <pt x="258" y="438" on="0"/>
        <pt x="230" y="494" on="0"/>
        <pt x="230" y="531" on="1"/>
        <pt x="230" y="548" on="0"/>
        <pt x="233" y="566" on="1"/>
        <pt x="240" y="604" on="0"/>
        <pt x="287" y="670" on="0"/>
        <pt x="365" y="711" on="0"/>
        <pt x="415" y="711" on="1"/>
        <pt x="487" y="711" on="0"/>
        <pt x="554" y="639" on="0"/>
        <pt x="554" y="583" on="1"/>
        <pt x="554" y="566" on="0"/>
        <pt x="551" y="548" on="1"/>
        <pt x="550" y="544" on="0"/>
        <pt x="548" y="530" on="0"/>
        <pt x="545" y="521" on="1"/>
        <pt x="525" y="521" on="1"/>
        <pt x="528" y="529" on="0"/>
        <pt x="530" y="542" on="0"/>
        <pt x="531" y="546" on="1"/>
        <pt x="534" y="564" on="0"/>
        <pt x="534" y="581" on="1"/>
        <pt x="534" y="634" on="0"/>
        <pt x="470" y="693" on="0"/>
        <pt x="412" y="693" on="1"/>
        <pt x="348" y="693" on="0"/>
        <pt x="263" y="619" on="0"/>
        <pt x="253" y="566" on="1"/>
        <pt x="250" y="550" on="0"/>
        <pt x="250" y="535" on="1"/>
        <pt x="250" y="504" on="0"/>
        <pt x="272" y="457" on="0"/>
        <pt x="293" y="428" on="1"/>
        <pt x="614" y="0" on="1"/>
      </contour>
      <contour>
        <pt x="390" y="197" on="0"/>
        <pt x="390" y="211" on="1"/>
        <pt x="390" y="255" on="0"/>
        <pt x="346" y="326" on="0"/>
        <pt x="274" y="366" on="0"/>
        <pt x="234" y="366" on="1"/>
        <pt x="165" y="366" on="0"/>
        <pt x="61" y="277" on="0"/>
        <pt x="47" y="194" on="1"/>
        <pt x="43" y="166" on="0"/>
        <pt x="43" y="155" on="1"/>
        <pt x="43" y="88" on="0"/>
        <pt x="128" y="13" on="0"/>
        <pt x="192" y="13" on="1"/>
        <pt x="265" y="13" on="0"/>
        <pt x="374" y="107" on="0"/>
        <pt x="387" y="180" on="1"/>
      </contour>
    </TTGlyph>
    <TTGlyph name="aogonek" xMin="54" yMin="-190" xMax="634" yMax="547">
      <contour>
        <pt x="375" y="-69" on="0"/>
        <pt x="375" y="-127" on="1"/>
        <pt x="375" y="-149" on="0"/>
        <pt x="408" y="-171" on="0"/>
        <pt x="435" y="-171" on="1"/>
        <pt x="464" y="-171" on="0"/>
        <pt x="501" y="-158" on="1"/>
        <pt x="497" y="-178" on="1"/>
        <pt x="464" y="-190" on="0"/>
        <pt x="432" y="-190" on="1"/>
        <pt x="397" y="-190" on="0"/>
        <pt x="355" y="-161" on="0"/>
        <pt x="355" y="-131" on="1"/>
        <pt x="355" y="-58" on="0"/>
        <pt x="458" y="-15" on="1"/>
        <pt x="521" y="11" on="1"/>
        <pt x="548" y="165" on="1"/>
        <pt x="513" y="90" on="0"/>
        <pt x="367" y="-7" on="0"/>
        <pt x="274" y="-7" on="1"/>
        <pt x="172" y="-7" on="0"/>
        <pt x="54" y="107" on="0"/>
        <pt x="54" y="206" on="1"/>
        <pt x="54" y="237" on="0"/>
        <pt x="60" y="270" on="1"/>
        <pt x="75" y="355" on="0"/>
        <pt x="163" y="480" on="0"/>
        <pt x="295" y="547" on="0"/>
        <pt x="372" y="547" on="1"/>
        <pt x="465" y="547" on="0"/>
        <pt x="577" y="451" on="0"/>
        <pt x="586" y="375" on="1"/>
        <pt x="615" y="540" on="1"/>
        <pt x="634" y="540" on="1"/>
        <pt x="538" y="0" on="1"/>
        <pt x="461" y="-33" on="1"/>
      </contour>
      <contour>
        <pt x="347" y="11" on="0"/>
        <pt x="470" y="76" on="0"/>
        <pt x="553" y="193" on="0"/>
        <pt x="567" y="270" on="1"/>
        <pt x="572" y="295" on="0"/>
        <pt x="572" y="327" on="1"/>
        <pt x="572" y="420" on="0"/>
        <pt x="462" y="529" on="0"/>
        <pt x="369" y="529" on="1"/>
        <pt x="257" y="529" on="0"/>
        <pt x="101" y="390" on="0"/>
        <pt x="80" y="270" on="1"/>
        <pt x="74" y="237" on="0"/>
        <pt x="74" y="208" on="1"/>
        <pt x="74" y="115" on="0"/>
        <pt x="181" y="11" on="0"/>
        <pt x="277" y="11" on="1"/>
      </contour>
    </TTGlyph>
    <TTGlyph name="aogonek.ss02" xMin="38" yMin="-190" xMax="503" yMax="545">
      <contour>
        <pt x="415" y="545" on="0"/>
        <pt x="503" y="461" on="0"/>
        <pt x="503" y="378" on="1"/>
        <pt x="503" y="349" on="0"/>
        <pt x="497" y="314" on="1"/>
        <pt x="442" y="0" on="1"/>
        <pt x="365" y="-33" on="1"/>
        <pt x="279" y="-69" on="0"/>
        <pt x="279" y="-127" on="1"/>
        <pt x="279" y="-149" on="0"/>
        <pt x="312" y="-171" on="0"/>
        <pt x="339" y="-171" on="1"/>
        <pt x="368" y="-171" on="0"/>
        <pt x="405" y="-158" on="1"/>
        <pt x="401" y="-178" on="1"/>
        <pt x="368" y="-190" on="0"/>
        <pt x="336" y="-190" on="1"/>
        <pt x="301" y="-190" on="0"/>
        <pt x="259" y="-161" on="0"/>
        <pt x="259" y="-131" on="1"/>
        <pt x="259" y="-58" on="0"/>
        <pt x="362" y="-15" on="1"/>
        <pt x="425" y="11" on="1"/>
        <pt x="449" y="146" on="1"/>
        <pt x="411" y="75" on="0"/>
        <pt x="278" y="-10" on="0"/>
        <pt x="191" y="-10" on="1"/>
        <pt x="120" y="-10" on="0"/>
        <pt x="38" y="62" on="0"/>
        <pt x="38" y="128" on="1"/>
        <pt x="38" y="184" on="0"/>
        <pt x="97" y="269" on="0"/>
        <pt x="202" y="315" on="0"/>
        <pt x="269" y="315" on="1"/>
        <pt x="478" y="315" on="1"/>
        <pt x="483" y="350" on="0"/>
        <pt x="483" y="374" on="1"/>
        <pt x="483" y="452" on="0"/>
        <pt x="408" y="528" on="0"/>
        <pt x="330" y="528" on="1"/>
        <pt x="251" y="528" on="0"/>
        <pt x="136" y="439" on="0"/>
        <pt x="109" y="360" on="1"/>
        <pt x="90" y="360" on="1"/>
        <pt x="119" y="444" on="0"/>
        <pt x="243" y="545" on="0"/>
        <pt x="333" y="545" on="1"/>
      </contour>
      <contour>
        <pt x="475" y="297" on="1"/>
        <pt x="266" y="297" on="1"/>
        <pt x="202" y="297" on="0"/>
        <pt x="107" y="254" on="0"/>
        <pt x="56" y="177" on="0"/>
        <pt x="56" y="128" on="1"/>
        <pt x="56" y="71" on="0"/>
        <pt x="131" y="7" on="0"/>
        <pt x="194" y="7" on="1"/>
        <pt x="260" y="7" on="0"/>
        <pt x="375" y="68" on="0"/>
        <pt x="454" y="180" on="0"/>
        <pt x="467" y="253" on="1"/>
      </contour>
    </TTGlyph>
    <TTGlyph name="apostrophemod.ss01" xMin="82" yMin="593" xMax="171" yMax="740">
      <component glyphName="quoteright.ss01" x="0" y="0" flags="0x0"/>
    </TTGlyph>
    <TTGlyph name="approxequal" xMin="42" yMin="268" xMax="389" yMax="531">
      <component glyphName="asciitilde" x="0" y="-11" flags="0x4"/>
      <component glyphName="asciitilde" x="0" y="164" flags="0x4"/>
    </TTGlyph>
    <TTGlyph name="aring" xMin="54" yMin="-7" xMax="634" yMax="795">
      <component glyphName="a" x="0" y="0" flags="0x0"/>
      <component glyphName="ring" x="209" y="0" flags="0x0"/>
    </TTGlyph>
    <TTGlyph name="aring.ss02" xMin="38" yMin="-10" xMax="506" yMax="795">
      <component glyphName="ring" x="207" y="0" flags="0x0"/>
      <component glyphName="a.ss02" x="0" y="0" flags="0x0"/>
    </TTGlyph>
    <TTGlyph name="asciicircum" xMin="23" yMin="174" xMax="495" yMax="683">
      <contour>
        <pt x="43" y="174" on="1"/>
        <pt x="23" y="174" on="1"/>
        <pt x="343" y="683" on="1"/>
        <pt x="355" y="683" on="1"/>
        <pt x="495" y="174" on="1"/>
        <pt x="475" y="174" on="1"/>
        <pt x="345" y="653" on="1"/>
      </contour>
    </TTGlyph>
    <TTGlyph name="asciitilde" xMin="42" yMin="279" xMax="389" yMax="367">
      <contour>
        <pt x="57" y="320" on="0"/>
        <pt x="110" y="367" on="0"/>
        <pt x="146" y="367" on="1"/>
        <pt x="169" y="367" on="0"/>
        <pt x="201" y="350" on="0"/>
        <pt x="224" y="332" on="1"/>
        <pt x="245" y="316" on="0"/>
        <pt x="272" y="300" on="0"/>
        <pt x="291" y="300" on="1"/>
        <pt x="316" y="300" on="0"/>
        <pt x="359" y="339" on="0"/>
        <pt x="369" y="367" on="1"/>
        <pt x="389" y="367" on="1"/>
        <pt x="374" y="326" on="0"/>
        <pt x="321" y="279" on="0"/>
        <pt x="285" y="279" on="1"/>
        <pt x="262" y="279" on="0"/>
        <pt x="229" y="297" on="0"/>
        <pt x="208" y="314" on="1"/>
        <pt x="186" y="331" on="0"/>
        <pt x="158" y="346" on="0"/>
        <pt x="139" y="346" on="1"/>
        <pt x="114" y="346" on="0"/>
        <pt x="72" y="307" on="0"/>
        <pt x="62" y="279" on="1"/>
        <pt x="42" y="279" on="1"/>
      </contour>
    </TTGlyph>
    <TTGlyph name="asterisk" xMin="88" yMin="360" xMax="442" yMax="728">
      <contour>
        <pt x="435" y="641" on="1"/>
        <pt x="442" y="624" on="1"/>
        <pt x="281" y="545" on="1"/>
        <pt x="413" y="464" on="1"/>
        <pt x="404" y="449" on="1"/>
        <pt x="272" y="531" on="1"/>
        <pt x="243" y="360" on="1"/>
        <pt x="225" y="360" on="1"/>
        <pt x="256" y="531" on="1"/>
        <pt x="96" y="449" on="1"/>
        <pt x="88" y="466" on="1"/>
        <pt x="251" y="545" on="1"/>
        <pt x="120" y="626" on="1"/>
        <pt x="129" y="641" on="1"/>
        <pt x="261" y="559" on="1"/>
        <pt x="290" y="728" on="1"/>
        <pt x="308" y="728" on="1"/>
        <pt x="277" y="559" on="1"/>
      </contour>
    </TTGlyph>
    <TTGlyph name="at" xMin="66" yMin="-186" xMax="881" yMax="624">
      <contour>
        <pt x="631" y="624" on="0"/>
        <pt x="791" y="540" on="0"/>
        <pt x="881" y="390" on="0"/>
        <pt x="881" y="294" on="1"/>
        <pt x="881" y="218" on="0"/>
        <pt x="837" y="80" on="0"/>
        <pt x="754" y="-5" on="0"/>
        <pt x="698" y="-5" on="1"/>
        <pt x="657" y="-5" on="0"/>
        <pt x="613" y="49" on="0"/>
        <pt x="613" y="93" on="1"/>
        <pt x="613" y="106" on="0"/>
        <pt x="614" y="113" on="1"/>
        <pt x="585" y="57" on="0"/>
        <pt x="483" y="-5" on="0"/>
        <pt x="425" y="-5" on="1"/>
        <pt x="351" y="-5" on="0"/>
        <pt x="267" y="86" on="0"/>
        <pt x="267" y="163" on="1"/>
        <pt x="267" y="235" on="0"/>
        <pt x="327" y="361" on="0"/>
        <pt x="435" y="437" on="0"/>
        <pt x="503" y="437" on="1"/>
        <pt x="562" y="437" on="0"/>
        <pt x="640" y="372" on="0"/>
        <pt x="649" y="313" on="1"/>
        <pt x="668" y="422" on="1"/>
        <pt x="686" y="422" on="1"/>
        <pt x="634" y="126" on="1"/>
        <pt x="631" y="110" on="0"/>
        <pt x="631" y="95" on="1"/>
        <pt x="631" y="58" on="0"/>
        <pt x="668" y="13" on="0"/>
        <pt x="701" y="13" on="1"/>
        <pt x="748" y="13" on="0"/>
        <pt x="821" y="94" on="0"/>
        <pt x="861" y="222" on="0"/>
        <pt x="861" y="290" on="1"/>
        <pt x="861" y="384" on="0"/>
        <pt x="777" y="527" on="0"/>
        <pt x="625" y="606" on="0"/>
        <pt x="526" y="606" on="1"/>
        <pt x="403" y="606" on="0"/>
        <pt x="201" y="481" on="0"/>
        <pt x="86" y="269" on="0"/>
        <pt x="86" y="145" on="1"/>
        <pt x="86" y="48" on="0"/>
        <pt x="168" y="-93" on="0"/>
        <pt x="317" y="-168" on="0"/>
        <pt x="415" y="-168" on="1"/>
        <pt x="499" y="-168" on="0"/>
        <pt x="579" y="-136" on="1"/>
        <pt x="584" y="-154" on="1"/>
        <pt x="499" y="-186" on="0"/>
        <pt x="409" y="-186" on="1"/>
        <pt x="308" y="-186" on="0"/>
        <pt x="153" y="-106" on="0"/>
        <pt x="66" y="43" on="0"/>
        <pt x="66" y="142" on="1"/>
        <pt x="66" y="275" on="0"/>
        <pt x="187" y="496" on="0"/>
        <pt x="399" y="624" on="0"/>
        <pt x="529" y="624" on="1"/>
      </contour>
      <contour>
        <pt x="502" y="13" on="0"/>
        <pt x="615" y="119" on="0"/>
        <pt x="632" y="216" on="1"/>
        <pt x="638" y="245" on="0"/>
        <pt x="638" y="271" on="1"/>
        <pt x="638" y="337" on="0"/>
        <pt x="568" y="419" on="0"/>
        <pt x="501" y="419" on="1"/>
        <pt x="438" y="419" on="0"/>
        <pt x="340" y="347" on="0"/>
        <pt x="287" y="230" on="0"/>
        <pt x="287" y="165" on="1"/>
        <pt x="287" y="94" on="0"/>
        <pt x="362" y="13" on="0"/>
        <pt x="429" y="13" on="1"/>
      </contour>
    </TTGlyph>
    <TTGlyph name="atilde" xMin="54" yMin="-7" xMax="634" yMax="670">
      <component glyphName="a" x="0" y="0" flags="0x0"/>
      <component glyphName="tilde" x="203" y="0" flags="0x0"/>
    </TTGlyph>
    <TTGlyph name="atilde.ss02" xMin="38" yMin="-10" xMax="541" yMax="670">
      <component glyphName="tilde" x="201" y="0" flags="0x0"/>
      <component glyphName="a.ss02" x="0" y="0" flags="0x0"/>
    </TTGlyph>
    <TTGlyph name="b" xMin="37" yMin="-7" xMax="617" yMax="740">
      <contour>
        <pt x="160" y="451" on="0"/>
        <pt x="304" y="547" on="0"/>
        <pt x="397" y="547" on="1"/>
        <pt x="499" y="547" on="0"/>
        <pt x="617" y="433" on="0"/>
        <pt x="617" y="334" on="1"/>
        <pt x="617" y="303" on="0"/>
        <pt x="611" y="270" on="1"/>
        <pt x="596" y="185" on="0"/>
        <pt x="508" y="60" on="0"/>
        <pt x="376" y="-7" on="0"/>
        <pt x="299" y="-7" on="1"/>
        <pt x="206" y="-7" on="0"/>
        <pt x="95" y="89" on="0"/>
        <pt x="85" y="165" on="1"/>
        <pt x="56" y="0" on="1"/>
        <pt x="37" y="0" on="1"/>
        <pt x="168" y="740" on="1"/>
        <pt x="187" y="740" on="1"/>
        <pt x="123" y="375" on="1"/>
      </contour>
      <contour>
        <pt x="597" y="303" on="0"/>
        <pt x="597" y="332" on="1"/>
        <pt x="597" y="425" on="0"/>
        <pt x="490" y="529" on="0"/>
        <pt x="394" y="529" on="1"/>
        <pt x="324" y="529" on="0"/>
        <pt x="201" y="464" on="0"/>
        <pt x="118" y="347" on="0"/>
        <pt x="104" y="270" on="1"/>
        <pt x="99" y="245" on="0"/>
        <pt x="99" y="213" on="1"/>
        <pt x="99" y="120" on="0"/>
        <pt x="209" y="11" on="0"/>
        <pt x="302" y="11" on="1"/>
        <pt x="414" y="11" on="0"/>
        <pt x="570" y="150" on="0"/>
        <pt x="591" y="270" on="1"/>
      </contour>
    </TTGlyph>
    <TTGlyph name="backslash" xMin="126" yMin="-156" xMax="309" yMax="935">
      <contour>
        <pt x="288" y="-156" on="1"/>
        <pt x="126" y="935" on="1"/>
        <pt x="149" y="935" on="1"/>
        <pt x="309" y="-156" on="1"/>
      </contour>
    </TTGlyph>
    <TTGlyph name="bar" xMin="22" yMin="-86" xMax="195" yMax="778">
      <contour>
        <pt x="42" y="-86" on="1"/>
        <pt x="22" y="-86" on="1"/>
        <pt x="175" y="778" on="1"/>
        <pt x="195" y="778" on="1"/>
      </contour>
    </TTGlyph>
    <TTGlyph name="braceleft" xMin="56" yMin="-185" xMax="410" yMax="929">
      <contour>
        <pt x="60" y="384" on="1"/>
        <pt x="133" y="406" on="0"/>
        <pt x="189" y="476" on="0"/>
        <pt x="199" y="530" on="1"/>
        <pt x="205" y="566" on="0"/>
        <pt x="207" y="645" on="0"/>
        <pt x="207" y="653" on="1"/>
        <pt x="207" y="698" on="0"/>
        <pt x="210" y="759" on="0"/>
        <pt x="216" y="791" on="1"/>
        <pt x="239" y="929" on="0"/>
        <pt x="379" y="929" on="1"/>
        <pt x="410" y="929" on="1"/>
        <pt x="407" y="911" on="1"/>
        <pt x="376" y="911" on="1"/>
        <pt x="318" y="911" on="0"/>
        <pt x="247" y="855" on="0"/>
        <pt x="236" y="791" on="1"/>
        <pt x="226" y="733" on="0"/>
        <pt x="226" y="643" on="1"/>
        <pt x="226" y="635" on="0"/>
        <pt x="224" y="560" on="0"/>
        <pt x="219" y="530" on="1"/>
        <pt x="196" y="398" on="0"/>
        <pt x="76" y="373" on="1"/>
        <pt x="76" y="371" on="1"/>
        <pt x="125" y="354" on="0"/>
        <pt x="167" y="305" on="0"/>
        <pt x="167" y="261" on="1"/>
        <pt x="167" y="233" on="0"/>
        <pt x="148" y="161" on="0"/>
        <pt x="126" y="89" on="1"/>
        <pt x="105" y="26" on="0"/>
        <pt x="84" y="-55" on="0"/>
        <pt x="84" y="-84" on="1"/>
        <pt x="84" y="-167" on="0"/>
        <pt x="186" y="-167" on="1"/>
        <pt x="217" y="-167" on="1"/>
        <pt x="214" y="-185" on="1"/>
        <pt x="183" y="-185" on="1"/>
        <pt x="125" y="-185" on="0"/>
        <pt x="64" y="-137" on="0"/>
        <pt x="64" y="-84" on="1"/>
        <pt x="64" y="-55" on="0"/>
        <pt x="85" y="25" on="0"/>
        <pt x="106" y="91" on="1"/>
        <pt x="126" y="153" on="0"/>
        <pt x="147" y="233" on="0"/>
        <pt x="147" y="261" on="1"/>
        <pt x="147" y="299" on="0"/>
        <pt x="110" y="342" on="0"/>
        <pt x="56" y="360" on="1"/>
      </contour>
    </TTGlyph>
    <TTGlyph name="braceright" xMin="-79" yMin="-185" xMax="275" yMax="929">
      <contour>
        <pt x="196" y="338" on="0"/>
        <pt x="141" y="262" on="0"/>
        <pt x="132" y="214" on="1"/>
        <pt x="126" y="178" on="0"/>
        <pt x="124" y="99" on="0"/>
        <pt x="124" y="91" on="1"/>
        <pt x="124" y="47" on="0"/>
        <pt x="121" y="-15" on="0"/>
        <pt x="115" y="-47" on="1"/>
        <pt x="102" y="-119" on="0"/>
        <pt x="19" y="-185" on="0"/>
        <pt x="-48" y="-185" on="1"/>
        <pt x="-79" y="-185" on="1"/>
        <pt x="-76" y="-167" on="1"/>
        <pt x="-45" y="-167" on="1"/>
        <pt x="13" y="-167" on="0"/>
        <pt x="84" y="-111" on="0"/>
        <pt x="95" y="-47" on="1"/>
        <pt x="105" y="11" on="0"/>
        <pt x="105" y="101" on="1"/>
        <pt x="105" y="109" on="0"/>
        <pt x="107" y="184" on="0"/>
        <pt x="112" y="214" on="1"/>
        <pt x="122" y="273" on="0"/>
        <pt x="196" y="356" on="0"/>
        <pt x="261" y="371" on="1"/>
        <pt x="261" y="373" on="1"/>
        <pt x="212" y="385" on="0"/>
        <pt x="165" y="448" on="0"/>
        <pt x="165" y="494" on="1"/>
        <pt x="165" y="512" on="0"/>
        <pt x="168" y="530" on="1"/>
        <pt x="174" y="565" on="0"/>
        <pt x="201" y="644" on="1"/>
        <pt x="234" y="738" on="0"/>
        <pt x="243" y="791" on="1"/>
        <pt x="246" y="811" on="0"/>
        <pt x="246" y="825" on="1"/>
        <pt x="246" y="911" on="0"/>
        <pt x="145" y="911" on="1"/>
        <pt x="114" y="911" on="1"/>
        <pt x="117" y="929" on="1"/>
        <pt x="148" y="929" on="1"/>
        <pt x="206" y="929" on="0"/>
        <pt x="266" y="881" on="0"/>
        <pt x="266" y="829" on="1"/>
        <pt x="266" y="812" on="0"/>
        <pt x="263" y="791" on="1"/>
        <pt x="254" y="742" on="0"/>
        <pt x="224" y="655" on="1"/>
        <pt x="195" y="573" on="0"/>
        <pt x="188" y="530" on="1"/>
        <pt x="184" y="506" on="0"/>
        <pt x="184" y="491" on="1"/>
        <pt x="184" y="414" on="0"/>
        <pt x="275" y="384" on="1"/>
        <pt x="271" y="360" on="1"/>
      </contour>
    </TTGlyph>
    <TTGlyph name="bracketleft" xMin="5" yMin="-185" xMax="296" yMax="934">
      <contour>
        <pt x="296" y="934" on="1"/>
        <pt x="293" y="916" on="1"/>
        <pt x="219" y="916" on="1"/>
        <pt x="28" y="-167" on="1"/>
        <pt x="102" y="-167" on="1"/>
        <pt x="99" y="-185" on="1"/>
        <pt x="5" y="-185" on="1"/>
        <pt x="202" y="934" on="1"/>
      </contour>
    </TTGlyph>
    <TTGlyph name="bracketright" xMin="-26" yMin="-185" xMax="265" yMax="934">
      <contour>
        <pt x="68" y="-185" on="1"/>
        <pt x="-26" y="-185" on="1"/>
        <pt x="-23" y="-167" on="1"/>
        <pt x="51" y="-167" on="1"/>
        <pt x="242" y="916" on="1"/>
        <pt x="168" y="916" on="1"/>
        <pt x="171" y="934" on="1"/>
        <pt x="265" y="934" on="1"/>
      </contour>
    </TTGlyph>
    <TTGlyph name="breve" xMin="118" yMin="616" xMax="356" yMax="724">
      <contour>
        <pt x="348" y="679" on="0"/>
        <pt x="278" y="616" on="0"/>
        <pt x="219" y="616" on="1"/>
        <pt x="167" y="616" on="0"/>
        <pt x="118" y="666" on="0"/>
        <pt x="118" y="702" on="1"/>
        <pt x="118" y="714" on="0"/>
        <pt x="119" y="720" on="1"/>
        <pt x="120" y="724" on="1"/>
        <pt x="140" y="724" on="1"/>
        <pt x="138" y="710" on="0"/>
        <pt x="138" y="704" on="1"/>
        <pt x="138" y="670" on="0"/>
        <pt x="182" y="634" on="0"/>
        <pt x="222" y="634" on="1"/>
        <pt x="269" y="634" on="0"/>
        <pt x="329" y="681" on="0"/>
        <pt x="336" y="724" on="1"/>
        <pt x="356" y="724" on="1"/>
        <pt x="355" y="720" on="1"/>
      </contour>
    </TTGlyph>
    <TTGlyph name="brokenbar" xMin="22" yMin="-86" xMax="195" yMax="778">
      <contour>
        <pt x="175" y="778" on="1"/>
        <pt x="195" y="778" on="1"/>
        <pt x="133" y="428" on="1"/>
        <pt x="113" y="428" on="1"/>
      </contour>
      <contour>
        <pt x="42" y="-86" on="1"/>
        <pt x="22" y="-86" on="1"/>
        <pt x="84" y="265" on="1"/>
        <pt x="104" y="265" on="1"/>
      </contour>
    </TTGlyph>
    <TTGlyph name="bullet" xMin="40" yMin="236" xMax="239" yMax="432">
      <contour>
        <pt x="86" y="236" on="0"/>
        <pt x="40" y="282" on="0"/>
        <pt x="40" y="317" on="1"/>
        <pt x="40" y="347" on="0"/>
        <pt x="74" y="400" on="0"/>
        <pt x="128" y="432" on="0"/>
        <pt x="157" y="432" on="1"/>
        <pt x="194" y="432" on="0"/>
        <pt x="239" y="387" on="0"/>
        <pt x="239" y="351" on="1"/>
        <pt x="239" y="321" on="0"/>
        <pt x="206" y="268" on="0"/>
        <pt x="152" y="236" on="0"/>
        <pt x="122" y="236" on="1"/>
      </contour>
    </TTGlyph>
    <TTGlyph name="c" xMin="54" yMin="-7" xMax="585" yMax="547">
      <contour>
        <pt x="75" y="355" on="0"/>
        <pt x="164" y="481" on="0"/>
        <pt x="294" y="547" on="0"/>
        <pt x="369" y="547" on="1"/>
        <pt x="472" y="547" on="0"/>
        <pt x="585" y="442" on="0"/>
        <pt x="583" y="357" on="1"/>
        <pt x="563" y="357" on="1"/>
        <pt x="564" y="437" on="0"/>
        <pt x="457" y="529" on="0"/>
        <pt x="366" y="529" on="1"/>
        <pt x="301" y="529" on="0"/>
        <pt x="182" y="472" on="0"/>
        <pt x="95" y="356" on="0"/>
        <pt x="80" y="270" on="1"/>
        <pt x="74" y="236" on="0"/>
        <pt x="74" y="207" on="1"/>
        <pt x="74" y="111" on="0"/>
        <pt x="187" y="11" on="0"/>
        <pt x="274" y="11" on="1"/>
        <pt x="365" y="11" on="0"/>
        <pt x="506" y="104" on="0"/>
        <pt x="533" y="183" on="1"/>
        <pt x="553" y="183" on="1"/>
        <pt x="524" y="98" on="0"/>
        <pt x="374" y="-7" on="0"/>
        <pt x="271" y="-7" on="1"/>
        <pt x="172" y="-7" on="0"/>
        <pt x="54" y="106" on="0"/>
        <pt x="54" y="206" on="1"/>
        <pt x="54" y="236" on="0"/>
        <pt x="60" y="270" on="1"/>
      </contour>
    </TTGlyph>
    <TTGlyph name="cacute" xMin="54" yMin="-7" xMax="585" yMax="740">
      <component glyphName="c" x="0" y="0" flags="0x0"/>
      <component glyphName="acute" x="170" y="0" flags="0x0"/>
    </TTGlyph>
    <TTGlyph name="caron" xMin="115" yMin="617" xMax="366" yMax="718">
      <contour>
        <pt x="362" y="698" on="1"/>
        <pt x="225" y="617" on="1"/>
        <pt x="115" y="698" on="1"/>
        <pt x="119" y="718" on="1"/>
        <pt x="229" y="637" on="1"/>
        <pt x="366" y="718" on="1"/>
      </contour>
    </TTGlyph>
    <TTGlyph name="ccaron" xMin="54" yMin="-7" xMax="585" yMax="718">
      <component glyphName="c" x="0" y="0" flags="0x0"/>
      <component glyphName="caron" x="153" y="0" flags="0x0"/>
    </TTGlyph>
    <TTGlyph name="ccedilla" xMin="54" yMin="-254" xMax="585" yMax="547">
      <contour>
        <pt x="472" y="547" on="0"/>
        <pt x="585" y="442" on="0"/>
        <pt x="583" y="357" on="1"/>
        <pt x="563" y="357" on="1"/>
        <pt x="564" y="437" on="0"/>
        <pt x="457" y="529" on="0"/>
        <pt x="366" y="529" on="1"/>
        <pt x="301" y="529" on="0"/>
        <pt x="182" y="472" on="0"/>
        <pt x="95" y="356" on="0"/>
        <pt x="80" y="270" on="1"/>
        <pt x="74" y="236" on="0"/>
        <pt x="74" y="207" on="1"/>
        <pt x="74" y="111" on="0"/>
        <pt x="187" y="11" on="0"/>
        <pt x="274" y="11" on="1"/>
        <pt x="365" y="11" on="0"/>
        <pt x="506" y="104" on="0"/>
        <pt x="533" y="183" on="1"/>
        <pt x="553" y="183" on="1"/>
        <pt x="525" y="100" on="0"/>
        <pt x="380" y="-4" on="0"/>
        <pt x="281" y="-7" on="1"/>
        <pt x="266" y="-89" on="1"/>
        <pt x="322" y="-85" on="0"/>
        <pt x="379" y="-119" on="0"/>
        <pt x="379" y="-153" on="1"/>
        <pt x="379" y="-163" on="0"/>
        <pt x="378" y="-168" on="1"/>
        <pt x="371" y="-207" on="0"/>
        <pt x="308" y="-254" on="0"/>
        <pt x="257" y="-254" on="1"/>
        <pt x="194" y="-254" on="1"/>
        <pt x="197" y="-234" on="1"/>
        <pt x="257" y="-234" on="1"/>
        <pt x="346" y="-234" on="0"/>
        <pt x="358" y="-168" on="1"/>
        <pt x="359" y="-164" on="0"/>
        <pt x="359" y="-156" on="1"/>
        <pt x="359" y="-134" on="0"/>
        <pt x="322" y="-107" on="0"/>
        <pt x="280" y="-107" on="1"/>
        <pt x="243" y="-107" on="1"/>
        <pt x="261" y="-7" on="1"/>
        <pt x="166" y="-4" on="0"/>
        <pt x="54" y="109" on="0"/>
        <pt x="54" y="206" on="1"/>
        <pt x="54" y="236" on="0"/>
        <pt x="60" y="270" on="1"/>
        <pt x="75" y="355" on="0"/>
        <pt x="164" y="481" on="0"/>
        <pt x="294" y="547" on="0"/>
        <pt x="369" y="547" on="1"/>
      </contour>
    </TTGlyph>
    <TTGlyph name="cdotaccent" xMin="54" yMin="-7" xMax="585" yMax="665">
      <component glyphName="c" x="0" y="0" flags="0x0"/>
      <component glyphName="dotaccent" x="236" y="-22" flags="0x4"/>
    </TTGlyph>
    <TTGlyph name="cedilla" xMin="-52" yMin="-254" xMax="133" yMax="7">
      <contour>
        <pt x="76" y="-85" on="0"/>
        <pt x="133" y="-119" on="0"/>
        <pt x="133" y="-153" on="1"/>
        <pt x="133" y="-163" on="0"/>
        <pt x="132" y="-168" on="1"/>
        <pt x="125" y="-207" on="0"/>
        <pt x="62" y="-254" on="0"/>
        <pt x="11" y="-254" on="1"/>
        <pt x="-52" y="-254" on="1"/>
        <pt x="-49" y="-234" on="1"/>
        <pt x="11" y="-234" on="1"/>
        <pt x="100" y="-234" on="0"/>
        <pt x="112" y="-168" on="1"/>
        <pt x="113" y="-164" on="0"/>
        <pt x="113" y="-156" on="1"/>
        <pt x="113" y="-134" on="0"/>
        <pt x="76" y="-107" on="0"/>
        <pt x="34" y="-107" on="1"/>
        <pt x="-3" y="-107" on="1"/>
        <pt x="17" y="7" on="1"/>
        <pt x="37" y="7" on="1"/>
        <pt x="20" y="-89" on="1"/>
      </contour>
    </TTGlyph>
    <TTGlyph name="cent" xMin="55" yMin="-93" xMax="540" yMax="623">
      <contour>
        <pt x="439" y="516" on="0"/>
        <pt x="540" y="412" on="0"/>
        <pt x="538" y="327" on="1"/>
        <pt x="518" y="327" on="1"/>
        <pt x="519" y="407" on="0"/>
        <pt x="422" y="499" on="0"/>
        <pt x="340" y="499" on="1"/>
        <pt x="281" y="499" on="0"/>
        <pt x="172" y="449" on="0"/>
        <pt x="93" y="346" on="0"/>
        <pt x="80" y="270" on="1"/>
        <pt x="75" y="238" on="0"/>
        <pt x="75" y="216" on="1"/>
        <pt x="75" y="130" on="0"/>
        <pt x="180" y="41" on="0"/>
        <pt x="260" y="41" on="1"/>
        <pt x="342" y="41" on="0"/>
        <pt x="471" y="133" on="0"/>
        <pt x="498" y="213" on="1"/>
        <pt x="518" y="213" on="1"/>
        <pt x="489" y="128" on="0"/>
        <pt x="351" y="24" on="0"/>
        <pt x="258" y="23" on="1"/>
        <pt x="238" y="-93" on="1"/>
        <pt x="218" y="-93" on="1"/>
        <pt x="239" y="24" on="1"/>
        <pt x="155" y="29" on="0"/>
        <pt x="55" y="130" on="0"/>
        <pt x="55" y="215" on="1"/>
        <pt x="55" y="238" on="0"/>
        <pt x="60" y="270" on="1"/>
        <pt x="79" y="379" on="0"/>
        <pt x="225" y="510" on="0"/>
        <pt x="325" y="516" on="1"/>
        <pt x="344" y="623" on="1"/>
        <pt x="364" y="623" on="1"/>
        <pt x="345" y="517" on="1"/>
      </contour>
    </TTGlyph>
    <TTGlyph name="circumflex" xMin="102" yMin="620" xMax="352" yMax="721">
      <contour>
        <pt x="240" y="701" on="1"/>
        <pt x="102" y="620" on="1"/>
        <pt x="105" y="640" on="1"/>
        <pt x="244" y="721" on="1"/>
        <pt x="352" y="640" on="1"/>
        <pt x="349" y="620" on="1"/>
      </contour>
    </TTGlyph>
    <TTGlyph name="colon" xMin="-12" yMin="-2" xMax="42" yMax="505">
      <component glyphName="period" x="0" y="0" flags="0x0"/>
      <component glyphName="period" x="0" y="453" flags="0x4"/>
    </TTGlyph>
    <TTGlyph name="colon.ss01" xMin="-17" yMin="0" xMax="122" yMax="503">
      <contour>
        <pt x="122" y="503" on="1"/>
        <pt x="113" y="454" on="1"/>
        <pt x="63" y="454" on="1"/>
        <pt x="72" y="503" on="1"/>
      </contour>
      <contour>
        <pt x="42" y="49" on="1"/>
        <pt x="33" y="0" on="1"/>
        <pt x="-17" y="0" on="1"/>
        <pt x="-8" y="49" on="1"/>
      </contour>
    </TTGlyph>
    <TTGlyph name="comma" xMin="-98" yMin="-155" xMax="49" yMax="93">
      <contour>
        <pt x="49" y="93" on="1"/>
        <pt x="-78" y="-155" on="1"/>
        <pt x="-98" y="-155" on="1"/>
        <pt x="23" y="93" on="1"/>
      </contour>
    </TTGlyph>
    <TTGlyph name="comma.ss01" xMin="-38" yMin="-86" xMax="46" yMax="31">
      <contour>
        <pt x="44" y="9" on="0"/>
        <pt x="42" y="-2" on="1"/>
        <pt x="28" y="-86" on="0"/>
        <pt x="-38" y="-86" on="1"/>
        <pt x="-35" y="-68" on="1"/>
        <pt x="8" y="-68" on="0"/>
        <pt x="18" y="-14" on="1"/>
        <pt x="19" y="-7" on="1"/>
        <pt x="-12" y="-7" on="1"/>
        <pt x="-5" y="31" on="1"/>
        <pt x="46" y="31" on="1"/>
      </contour>
    </TTGlyph>
    <TTGlyph name="copyright" xMin="67" yMin="2" xMax="764" yMax="702">
      <contour>
        <pt x="565" y="702" on="0"/>
        <pt x="695" y="633" on="0"/>
        <pt x="764" y="509" on="0"/>
        <pt x="764" y="427" on="1"/>
        <pt x="764" y="388" on="0"/>
        <pt x="757" y="352" on="1"/>
        <pt x="739" y="250" on="0"/>
        <pt x="626" y="91" on="0"/>
        <pt x="455" y="2" on="0"/>
        <pt x="355" y="2" on="1"/>
        <pt x="267" y="2" on="0"/>
        <pt x="137" y="71" on="0"/>
        <pt x="67" y="197" on="0"/>
        <pt x="67" y="279" on="1"/>
        <pt x="67" y="308" on="0"/>
        <pt x="74" y="352" on="1"/>
        <pt x="92" y="454" on="0"/>
        <pt x="207" y="613" on="0"/>
        <pt x="378" y="702" on="0"/>
        <pt x="478" y="702" on="1"/>
      </contour>
      <contour>
        <pt x="378" y="684" on="0"/>
        <pt x="217" y="598" on="0"/>
        <pt x="111" y="447" on="0"/>
        <pt x="94" y="352" on="1"/>
        <pt x="88" y="316" on="0"/>
        <pt x="88" y="282" on="1"/>
        <pt x="88" y="205" on="0"/>
        <pt x="151" y="86" on="0"/>
        <pt x="273" y="20" on="0"/>
        <pt x="358" y="20" on="1"/>
        <pt x="455" y="20" on="0"/>
        <pt x="615" y="106" on="0"/>
        <pt x="721" y="257" on="0"/>
        <pt x="737" y="352" on="1"/>
        <pt x="744" y="396" on="0"/>
        <pt x="744" y="423" on="1"/>
        <pt x="744" y="500" on="0"/>
        <pt x="680" y="618" on="0"/>
        <pt x="559" y="684" on="0"/>
        <pt x="475" y="684" on="1"/>
      </contour>
      <contour>
        <pt x="403" y="590" on="0"/>
        <pt x="296" y="535" on="0"/>
        <pt x="219" y="428" on="0"/>
        <pt x="206" y="353" on="1"/>
        <pt x="201" y="328" on="0"/>
        <pt x="201" y="296" on="1"/>
        <pt x="201" y="209" on="0"/>
        <pt x="300" y="114" on="0"/>
        <pt x="377" y="114" on="1"/>
        <pt x="448" y="114" on="0"/>
        <pt x="575" y="195" on="0"/>
        <pt x="608" y="269" on="1"/>
        <pt x="587" y="269" on="1"/>
        <pt x="555" y="204" on="0"/>
        <pt x="443" y="134" on="0"/>
        <pt x="381" y="134" on="1"/>
        <pt x="311" y="134" on="0"/>
        <pt x="220" y="221" on="0"/>
        <pt x="220" y="301" on="1"/>
        <pt x="220" y="321" on="0"/>
        <pt x="225" y="351" on="1"/>
        <pt x="237" y="421" on="0"/>
        <pt x="309" y="520" on="0"/>
        <pt x="406" y="570" on="0"/>
        <pt x="458" y="570" on="1"/>
        <pt x="520" y="570" on="0"/>
        <pt x="607" y="500" on="0"/>
        <pt x="616" y="435" on="1"/>
        <pt x="637" y="435" on="1"/>
        <pt x="630" y="509" on="0"/>
        <pt x="532" y="590" on="0"/>
        <pt x="461" y="590" on="1"/>
      </contour>
    </TTGlyph>
    <TTGlyph name="currency" xMin="60" yMin="190" xMax="477" yMax="566">
      <contour>
        <pt x="403" y="492" on="1"/>
        <pt x="423" y="458" on="0"/>
        <pt x="423" y="414" on="1"/>
        <pt x="423" y="397" on="0"/>
        <pt x="420" y="377" on="1"/>
        <pt x="408" y="309" on="0"/>
        <pt x="364" y="263" on="1"/>
        <pt x="415" y="203" on="1"/>
        <pt x="399" y="190" on="1"/>
        <pt x="350" y="249" on="1"/>
        <pt x="298" y="205" on="0"/>
        <pt x="239" y="205" on="1"/>
        <pt x="208" y="205" on="0"/>
        <pt x="158" y="228" on="0"/>
        <pt x="142" y="250" on="1"/>
        <pt x="72" y="190" on="1"/>
        <pt x="60" y="203" on="1"/>
        <pt x="133" y="263" on="1"/>
        <pt x="115" y="296" on="0"/>
        <pt x="115" y="338" on="1"/>
        <pt x="115" y="349" on="0"/>
        <pt x="119" y="377" on="1"/>
        <pt x="131" y="445" on="0"/>
        <pt x="174" y="491" on="1"/>
        <pt x="122" y="553" on="1"/>
        <pt x="138" y="566" on="1"/>
        <pt x="188" y="505" on="1"/>
        <pt x="238" y="549" on="0"/>
        <pt x="299" y="549" on="1"/>
        <pt x="327" y="549" on="0"/>
        <pt x="377" y="526" on="0"/>
        <pt x="394" y="505" on="1"/>
        <pt x="465" y="566" on="1"/>
        <pt x="477" y="553" on="1"/>
      </contour>
      <contour>
        <pt x="403" y="395" on="0"/>
        <pt x="403" y="412" on="1"/>
        <pt x="403" y="466" on="0"/>
        <pt x="342" y="531" on="0"/>
        <pt x="296" y="531" on="1"/>
        <pt x="239" y="531" on="0"/>
        <pt x="152" y="447" on="0"/>
        <pt x="139" y="377" on="1"/>
        <pt x="135" y="349" on="0"/>
        <pt x="135" y="339" on="1"/>
        <pt x="135" y="284" on="0"/>
        <pt x="193" y="223" on="0"/>
        <pt x="242" y="223" on="1"/>
        <pt x="277" y="223" on="0"/>
        <pt x="343" y="260" on="0"/>
        <pt x="392" y="330" on="0"/>
        <pt x="400" y="377" on="1"/>
      </contour>
    </TTGlyph>
    <TTGlyph name="d" xMin="54" yMin="-7" xMax="669" yMax="740">
      <contour>
        <pt x="75" y="355" on="0"/>
        <pt x="163" y="480" on="0"/>
        <pt x="295" y="547" on="0"/>
        <pt x="372" y="547" on="1"/>
        <pt x="465" y="547" on="0"/>
        <pt x="577" y="451" on="0"/>
        <pt x="586" y="375" on="1"/>
        <pt x="650" y="740" on="1"/>
        <pt x="669" y="740" on="1"/>
        <pt x="538" y="0" on="1"/>
        <pt x="519" y="0" on="1"/>
        <pt x="549" y="166" on="1"/>
        <pt x="514" y="90" on="0"/>
        <pt x="367" y="-7" on="0"/>
        <pt x="274" y="-7" on="1"/>
        <pt x="172" y="-7" on="0"/>
        <pt x="54" y="107" on="0"/>
        <pt x="54" y="206" on="1"/>
        <pt x="54" y="237" on="0"/>
        <pt x="60" y="270" on="1"/>
      </contour>
      <contour>
        <pt x="572" y="295" on="0"/>
        <pt x="572" y="327" on="1"/>
        <pt x="572" y="420" on="0"/>
        <pt x="462" y="529" on="0"/>
        <pt x="369" y="529" on="1"/>
        <pt x="257" y="529" on="0"/>
        <pt x="101" y="390" on="0"/>
        <pt x="80" y="270" on="1"/>
        <pt x="74" y="237" on="0"/>
        <pt x="74" y="208" on="1"/>
        <pt x="74" y="115" on="0"/>
        <pt x="181" y="11" on="0"/>
        <pt x="277" y="11" on="1"/>
        <pt x="347" y="11" on="0"/>
        <pt x="470" y="76" on="0"/>
        <pt x="553" y="193" on="0"/>
        <pt x="567" y="270" on="1"/>
      </contour>
    </TTGlyph>
    <TTGlyph name="dagger" xMin="74" yMin="-254" xMax="447" yMax="774">
      <contour>
        <pt x="443" y="520" on="1"/>
        <pt x="267" y="523" on="1"/>
        <pt x="132" y="-254" on="1"/>
        <pt x="114" y="-254" on="1"/>
        <pt x="252" y="523" on="1"/>
        <pt x="74" y="520" on="1"/>
        <pt x="78" y="540" on="1"/>
        <pt x="254" y="537" on="1"/>
        <pt x="295" y="774" on="1"/>
        <pt x="313" y="774" on="1"/>
        <pt x="269" y="537" on="1"/>
        <pt x="447" y="540" on="1"/>
      </contour>
    </TTGlyph>
    <TTGlyph name="daggerdbl" xMin="-21" yMin="-254" xMax="448" yMax="774">
      <contour>
        <pt x="268" y="523" on="1"/>
        <pt x="175" y="-3" on="1"/>
        <pt x="353" y="1" on="1"/>
        <pt x="349" y="-20" on="1"/>
        <pt x="172" y="-17" on="1"/>
        <pt x="132" y="-254" on="1"/>
        <pt x="114" y="-254" on="1"/>
        <pt x="157" y="-17" on="1"/>
        <pt x="-21" y="-20" on="1"/>
        <pt x="-17" y="1" on="1"/>
        <pt x="160" y="-3" on="1"/>
        <pt x="253" y="523" on="1"/>
        <pt x="74" y="520" on="1"/>
        <pt x="78" y="540" on="1"/>
        <pt x="255" y="537" on="1"/>
        <pt x="295" y="774" on="1"/>
        <pt x="313" y="774" on="1"/>
        <pt x="270" y="537" on="1"/>
        <pt x="448" y="540" on="1"/>
        <pt x="444" y="520" on="1"/>
      </contour>
    </TTGlyph>
    <TTGlyph name="danda" xMin="100" yMin="0" xMax="247" yMax="742">
      <contour>
        <pt x="247" y="742" on="1"/>
        <pt x="117" y="0" on="1"/>
        <pt x="100" y="0" on="1"/>
        <pt x="230" y="742" on="1"/>
      </contour>
    </TTGlyph>
    <TTGlyph name="dcaron" xMin="54" yMin="-7" xMax="781" yMax="740">
      <contour>
        <pt x="75" y="355" on="0"/>
        <pt x="163" y="480" on="0"/>
        <pt x="295" y="547" on="0"/>
        <pt x="372" y="547" on="1"/>
        <pt x="465" y="547" on="0"/>
        <pt x="577" y="451" on="0"/>
        <pt x="586" y="375" on="1"/>
        <pt x="650" y="740" on="1"/>
        <pt x="669" y="740" on="1"/>
        <pt x="538" y="0" on="1"/>
        <pt x="519" y="0" on="1"/>
        <pt x="549" y="166" on="1"/>
        <pt x="514" y="90" on="0"/>
        <pt x="367" y="-7" on="0"/>
        <pt x="274" y="-7" on="1"/>
        <pt x="172" y="-7" on="0"/>
        <pt x="54" y="107" on="0"/>
        <pt x="54" y="206" on="1"/>
        <pt x="54" y="237" on="0"/>
        <pt x="60" y="270" on="1"/>
      </contour>
      <contour>
        <pt x="779" y="704" on="0"/>
        <pt x="773" y="671" on="1"/>
        <pt x="765" y="627" on="0"/>
        <pt x="725" y="593" on="0"/>
        <pt x="692" y="593" on="1"/>
        <pt x="695" y="613" on="1"/>
        <pt x="720" y="613" on="0"/>
        <pt x="744" y="635" on="0"/>
        <pt x="748" y="658" on="1"/>
        <pt x="754" y="687" on="1"/>
        <pt x="716" y="687" on="1"/>
        <pt x="725" y="740" on="1"/>
        <pt x="781" y="740" on="1"/>
      </contour>
      <contour>
        <pt x="572" y="295" on="0"/>
        <pt x="572" y="327" on="1"/>
        <pt x="572" y="420" on="0"/>
        <pt x="462" y="529" on="0"/>
        <pt x="369" y="529" on="1"/>
        <pt x="257" y="529" on="0"/>
        <pt x="101" y="390" on="0"/>
        <pt x="80" y="270" on="1"/>
        <pt x="74" y="237" on="0"/>
        <pt x="74" y="208" on="1"/>
        <pt x="74" y="115" on="0"/>
        <pt x="181" y="11" on="0"/>
        <pt x="277" y="11" on="1"/>
        <pt x="347" y="11" on="0"/>
        <pt x="470" y="76" on="0"/>
        <pt x="553" y="193" on="0"/>
        <pt x="567" y="270" on="1"/>
      </contour>
    </TTGlyph>
    <TTGlyph name="dcroat" xMin="54" yMin="-7" xMax="724" yMax="740">
      <contour>
        <pt x="721" y="650" on="1"/>
        <pt x="653" y="650" on="1"/>
        <pt x="538" y="0" on="1"/>
        <pt x="519" y="0" on="1"/>
        <pt x="549" y="166" on="1"/>
        <pt x="514" y="90" on="0"/>
        <pt x="367" y="-7" on="0"/>
        <pt x="274" y="-7" on="1"/>
        <pt x="172" y="-7" on="0"/>
        <pt x="54" y="107" on="0"/>
        <pt x="54" y="206" on="1"/>
        <pt x="54" y="237" on="0"/>
        <pt x="60" y="270" on="1"/>
        <pt x="75" y="355" on="0"/>
        <pt x="163" y="480" on="0"/>
        <pt x="295" y="547" on="0"/>
        <pt x="372" y="547" on="1"/>
        <pt x="465" y="547" on="0"/>
        <pt x="577" y="451" on="0"/>
        <pt x="586" y="375" on="1"/>
        <pt x="634" y="650" on="1"/>
        <pt x="429" y="650" on="1"/>
        <pt x="432" y="668" on="1"/>
        <pt x="637" y="668" on="1"/>
        <pt x="650" y="740" on="1"/>
        <pt x="669" y="740" on="1"/>
        <pt x="656" y="668" on="1"/>
        <pt x="724" y="668" on="1"/>
      </contour>
      <contour>
        <pt x="572" y="295" on="0"/>
        <pt x="572" y="327" on="1"/>
        <pt x="572" y="420" on="0"/>
        <pt x="462" y="529" on="0"/>
        <pt x="369" y="529" on="1"/>
        <pt x="257" y="529" on="0"/>
        <pt x="101" y="390" on="0"/>
        <pt x="80" y="270" on="1"/>
        <pt x="74" y="237" on="0"/>
        <pt x="74" y="208" on="1"/>
        <pt x="74" y="115" on="0"/>
        <pt x="181" y="11" on="0"/>
        <pt x="277" y="11" on="1"/>
        <pt x="347" y="11" on="0"/>
        <pt x="470" y="76" on="0"/>
        <pt x="553" y="193" on="0"/>
        <pt x="567" y="270" on="1"/>
      </contour>
    </TTGlyph>
    <TTGlyph name="degree" xMin="70" yMin="347" xMax="374" yMax="691">
      <contour>
        <pt x="88" y="596" on="0"/>
        <pt x="185" y="691" on="0"/>
        <pt x="252" y="691" on="1"/>
        <pt x="309" y="691" on="0"/>
        <pt x="374" y="621" on="0"/>
        <pt x="374" y="561" on="1"/>
        <pt x="374" y="539" on="0"/>
        <pt x="370" y="519" on="1"/>
        <pt x="356" y="442" on="0"/>
        <pt x="259" y="347" on="0"/>
        <pt x="192" y="347" on="1"/>
        <pt x="135" y="347" on="0"/>
        <pt x="70" y="417" on="0"/>
        <pt x="70" y="477" on="1"/>
        <pt x="70" y="499" on="0"/>
        <pt x="74" y="519" on="1"/>
      </contour>
      <contour>
        <pt x="354" y="539" on="0"/>
        <pt x="354" y="561" on="1"/>
        <pt x="354" y="614" on="0"/>
        <pt x="299" y="673" on="0"/>
        <pt x="249" y="673" on="1"/>
        <pt x="190" y="673" on="0"/>
        <pt x="107" y="591" on="0"/>
        <pt x="94" y="519" on="1"/>
        <pt x="90" y="499" on="0"/>
        <pt x="90" y="477" on="1"/>
        <pt x="90" y="424" on="0"/>
        <pt x="145" y="365" on="0"/>
        <pt x="195" y="365" on="1"/>
        <pt x="254" y="365" on="0"/>
        <pt x="337" y="447" on="0"/>
        <pt x="350" y="519" on="1"/>
      </contour>
    </TTGlyph>
    <TTGlyph name="dieresis" xMin="132" yMin="627" xMax="324" yMax="687">
      <contour>
        <pt x="145" y="627" on="0"/>
        <pt x="132" y="641" on="0"/>
        <pt x="132" y="652" on="1"/>
        <pt x="132" y="666" on="0"/>
        <pt x="153" y="687" on="0"/>
        <pt x="167" y="687" on="1"/>
        <pt x="177" y="687" on="0"/>
        <pt x="190" y="673" on="0"/>
        <pt x="190" y="662" on="1"/>
        <pt x="190" y="648" on="0"/>
        <pt x="169" y="627" on="0"/>
        <pt x="156" y="627" on="1"/>
      </contour>
      <contour>
        <pt x="279" y="627" on="0"/>
        <pt x="266" y="641" on="0"/>
        <pt x="266" y="652" on="1"/>
        <pt x="266" y="666" on="0"/>
        <pt x="287" y="687" on="0"/>
        <pt x="301" y="687" on="1"/>
        <pt x="311" y="687" on="0"/>
        <pt x="324" y="673" on="0"/>
        <pt x="324" y="663" on="1"/>
        <pt x="324" y="649" on="0"/>
        <pt x="303" y="627" on="0"/>
        <pt x="290" y="627" on="1"/>
      </contour>
    </TTGlyph>
    <TTGlyph name="divide" xMin="58" yMin="140" xMax="570" yMax="622">
      <contour>
        <pt x="322" y="568" on="0"/>
        <pt x="310" y="579" on="0"/>
        <pt x="310" y="589" on="1"/>
        <pt x="310" y="603" on="0"/>
        <pt x="329" y="622" on="0"/>
        <pt x="342" y="622" on="1"/>
        <pt x="352" y="622" on="0"/>
        <pt x="364" y="611" on="0"/>
        <pt x="364" y="601" on="1"/>
        <pt x="364" y="587" on="0"/>
        <pt x="345" y="568" on="0"/>
        <pt x="332" y="568" on="1"/>
      </contour>
      <contour>
        <pt x="570" y="389" on="1"/>
        <pt x="567" y="371" on="1"/>
        <pt x="58" y="371" on="1"/>
        <pt x="61" y="389" on="1"/>
      </contour>
      <contour>
        <pt x="262" y="140" on="0"/>
        <pt x="250" y="151" on="0"/>
        <pt x="250" y="161" on="1"/>
        <pt x="250" y="175" on="0"/>
        <pt x="269" y="194" on="0"/>
        <pt x="282" y="194" on="1"/>
        <pt x="292" y="194" on="0"/>
        <pt x="304" y="183" on="0"/>
        <pt x="304" y="173" on="1"/>
        <pt x="304" y="159" on="0"/>
        <pt x="285" y="140" on="0"/>
        <pt x="272" y="140" on="1"/>
      </contour>
    </TTGlyph>
    <TTGlyph name="divide.ss01" xMin="58" yMin="145" xMax="570" yMax="618">
      <contour>
        <pt x="381" y="618" on="1"/>
        <pt x="373" y="569" on="1"/>
        <pt x="323" y="569" on="1"/>
        <pt x="331" y="618" on="1"/>
      </contour>
      <contour>
        <pt x="570" y="389" on="1"/>
        <pt x="567" y="371" on="1"/>
        <pt x="58" y="371" on="1"/>
        <pt x="61" y="389" on="1"/>
      </contour>
      <contour>
        <pt x="307" y="194" on="1"/>
        <pt x="298" y="145" on="1"/>
        <pt x="248" y="145" on="1"/>
        <pt x="257" y="194" on="1"/>
      </contour>
    </TTGlyph>
    <TTGlyph name="dollar" xMin="42" yMin="-87" xMax="510" yMax="800">
      <contour>
        <pt x="487" y="603" on="0"/>
        <pt x="421" y="684" on="0"/>
        <pt x="352" y="692" on="1"/>
        <pt x="295" y="367" on="1"/>
        <pt x="349" y="350" on="0"/>
        <pt x="417" y="318" on="0"/>
        <pt x="462" y="258" on="0"/>
        <pt x="462" y="210" on="1"/>
        <pt x="462" y="189" on="0"/>
        <pt x="458" y="169" on="1"/>
        <pt x="450" y="125" on="0"/>
        <pt x="397" y="45" on="0"/>
        <pt x="302" y="-7" on="0"/>
        <pt x="236" y="-7" on="1"/>
        <pt x="229" y="-7" on="1"/>
        <pt x="215" y="-87" on="1"/>
        <pt x="195" y="-87" on="1"/>
        <pt x="209" y="-6" on="1"/>
        <pt x="155" y="-1" on="0"/>
        <pt x="78" y="50" on="0"/>
        <pt x="42" y="127" on="0"/>
        <pt x="45" y="169" on="1"/>
        <pt x="65" y="169" on="1"/>
        <pt x="64" y="138" on="0"/>
        <pt x="91" y="70" on="0"/>
        <pt x="158" y="18" on="0"/>
        <pt x="212" y="12" on="1"/>
        <pt x="272" y="353" on="1"/>
        <pt x="217" y="370" on="0"/>
        <pt x="150" y="402" on="0"/>
        <pt x="104" y="460" on="0"/>
        <pt x="104" y="506" on="1"/>
        <pt x="104" y="517" on="0"/>
        <pt x="108" y="543" on="1"/>
        <pt x="121" y="616" on="0"/>
        <pt x="237" y="711" on="0"/>
        <pt x="328" y="711" on="1"/>
        <pt x="335" y="711" on="1"/>
        <pt x="351" y="800" on="1"/>
        <pt x="371" y="800" on="1"/>
        <pt x="355" y="710" on="1"/>
        <pt x="432" y="702" on="0"/>
        <pt x="507" y="614" on="0"/>
        <pt x="510" y="559" on="1"/>
        <pt x="490" y="559" on="1"/>
      </contour>
      <contour>
        <pt x="332" y="693" on="1"/>
        <pt x="325" y="693" on="1"/>
        <pt x="248" y="693" on="0"/>
        <pt x="140" y="614" on="0"/>
        <pt x="128" y="543" on="1"/>
        <pt x="125" y="525" on="0"/>
        <pt x="125" y="510" on="1"/>
        <pt x="125" y="470" on="0"/>
        <pt x="165" y="418" on="0"/>
        <pt x="227" y="388" on="0"/>
        <pt x="276" y="373" on="1"/>
      </contour>
      <contour>
        <pt x="441" y="189" on="0"/>
        <pt x="441" y="204" on="1"/>
        <pt x="441" y="246" on="0"/>
        <pt x="401" y="300" on="0"/>
        <pt x="339" y="332" on="0"/>
        <pt x="291" y="347" on="1"/>
        <pt x="232" y="11" on="1"/>
        <pt x="239" y="11" on="1"/>
        <pt x="322" y="11" on="0"/>
        <pt x="426" y="101" on="0"/>
        <pt x="438" y="169" on="1"/>
      </contour>
    </TTGlyph>
    <TTGlyph name="dotaccent" xMin="115" yMin="627" xMax="175" yMax="687">
      <contour>
        <pt x="130" y="627" on="0"/>
        <pt x="115" y="642" on="0"/>
        <pt x="115" y="652" on="1"/>
        <pt x="115" y="665" on="0"/>
        <pt x="137" y="687" on="0"/>
        <pt x="151" y="687" on="1"/>
        <pt x="161" y="687" on="0"/>
        <pt x="175" y="673" on="0"/>
        <pt x="175" y="662" on="1"/>
        <pt x="175" y="649" on="0"/>
        <pt x="154" y="627" on="0"/>
        <pt x="140" y="627" on="1"/>
      </contour>
    </TTGlyph>
    <TTGlyph name="dotlessi" xMin="37" yMin="0" xMax="153" yMax="540">
      <contour>
        <pt x="153" y="540" on="1"/>
        <pt x="57" y="0" on="1"/>
        <pt x="37" y="0" on="1"/>
        <pt x="133" y="540" on="1"/>
      </contour>
    </TTGlyph>
    <TTGlyph name="dottedcircle" xMin="50" yMin="-9" xMax="601" yMax="540">
      <contour>
        <pt x="344" y="479" on="0"/>
        <pt x="320" y="456" on="0"/>
        <pt x="301" y="456" on="1"/>
        <pt x="282" y="456" on="0"/>
        <pt x="258" y="479" on="0"/>
        <pt x="258" y="498" on="1"/>
        <pt x="258" y="517" on="0"/>
        <pt x="282" y="540" on="0"/>
        <pt x="301" y="540" on="1"/>
        <pt x="320" y="540" on="0"/>
        <pt x="344" y="517" on="0"/>
        <pt x="344" y="498" on="1"/>
      </contour>
      <contour>
        <pt x="465" y="464" on="0"/>
        <pt x="441" y="441" on="0"/>
        <pt x="422" y="441" on="1"/>
        <pt x="403" y="441" on="0"/>
        <pt x="379" y="464" on="0"/>
        <pt x="379" y="483" on="1"/>
        <pt x="379" y="502" on="0"/>
        <pt x="403" y="525" on="0"/>
        <pt x="422" y="525" on="1"/>
        <pt x="441" y="525" on="0"/>
        <pt x="465" y="502" on="0"/>
        <pt x="465" y="483" on="1"/>
      </contour>
      <contour>
        <pt x="227" y="437" on="0"/>
        <pt x="203" y="414" on="0"/>
        <pt x="184" y="414" on="1"/>
        <pt x="165" y="414" on="0"/>
        <pt x="141" y="437" on="0"/>
        <pt x="141" y="456" on="1"/>
        <pt x="141" y="475" on="0"/>
        <pt x="165" y="498" on="0"/>
        <pt x="184" y="498" on="1"/>
        <pt x="203" y="498" on="0"/>
        <pt x="227" y="475" on="0"/>
        <pt x="227" y="456" on="1"/>
      </contour>
      <contour>
        <pt x="557" y="390" on="0"/>
        <pt x="533" y="367" on="0"/>
        <pt x="514" y="367" on="1"/>
        <pt x="495" y="367" on="0"/>
        <pt x="471" y="390" on="0"/>
        <pt x="471" y="409" on="1"/>
        <pt x="471" y="428" on="0"/>
        <pt x="495" y="451" on="0"/>
        <pt x="514" y="451" on="1"/>
        <pt x="533" y="451" on="0"/>
        <pt x="557" y="428" on="0"/>
        <pt x="557" y="409" on="1"/>
      </contour>
      <contour>
        <pt x="151" y="338" on="0"/>
        <pt x="127" y="315" on="0"/>
        <pt x="108" y="315" on="1"/>
        <pt x="89" y="315" on="0"/>
        <pt x="65" y="338" on="0"/>
        <pt x="65" y="357" on="1"/>
        <pt x="65" y="376" on="0"/>
        <pt x="89" y="399" on="0"/>
        <pt x="108" y="399" on="1"/>
        <pt x="127" y="399" on="0"/>
        <pt x="151" y="376" on="0"/>
        <pt x="151" y="357" on="1"/>
      </contour>
      <contour>
        <pt x="601" y="276" on="0"/>
        <pt x="577" y="253" on="0"/>
        <pt x="558" y="253" on="1"/>
        <pt x="539" y="253" on="0"/>
        <pt x="515" y="276" on="0"/>
        <pt x="515" y="295" on="1"/>
        <pt x="515" y="314" on="0"/>
        <pt x="539" y="337" on="0"/>
        <pt x="558" y="337" on="1"/>
        <pt x="577" y="337" on="0"/>
        <pt x="601" y="314" on="0"/>
        <pt x="601" y="295" on="1"/>
      </contour>
      <contour>
        <pt x="136" y="217" on="0"/>
        <pt x="112" y="194" on="0"/>
        <pt x="93" y="194" on="1"/>
        <pt x="74" y="194" on="0"/>
        <pt x="50" y="217" on="0"/>
        <pt x="50" y="236" on="1"/>
        <pt x="50" y="255" on="0"/>
        <pt x="74" y="278" on="0"/>
        <pt x="93" y="278" on="1"/>
        <pt x="112" y="278" on="0"/>
        <pt x="136" y="255" on="0"/>
        <pt x="136" y="236" on="1"/>
      </contour>
      <contour>
        <pt x="591" y="156" on="0"/>
        <pt x="567" y="133" on="0"/>
        <pt x="548" y="133" on="1"/>
        <pt x="529" y="133" on="0"/>
        <pt x="505" y="156" on="0"/>
        <pt x="505" y="175" on="1"/>
        <pt x="505" y="194" on="0"/>
        <pt x="529" y="217" on="0"/>
        <pt x="548" y="217" on="1"/>
        <pt x="567" y="217" on="0"/>
        <pt x="591" y="194" on="0"/>
        <pt x="591" y="175" on="1"/>
      </contour>
      <contour>
        <pt x="181" y="104" on="0"/>
        <pt x="157" y="81" on="0"/>
        <pt x="138" y="81" on="1"/>
        <pt x="119" y="81" on="0"/>
        <pt x="95" y="104" on="0"/>
        <pt x="95" y="123" on="1"/>
        <pt x="95" y="142" on="0"/>
        <pt x="119" y="165" on="0"/>
        <pt x="138" y="165" on="1"/>
        <pt x="157" y="165" on="0"/>
        <pt x="181" y="142" on="0"/>
        <pt x="181" y="123" on="1"/>
      </contour>
      <contour>
        <pt x="518" y="60" on="0"/>
        <pt x="494" y="37" on="0"/>
        <pt x="475" y="37" on="1"/>
        <pt x="456" y="37" on="0"/>
        <pt x="432" y="60" on="0"/>
        <pt x="432" y="79" on="1"/>
        <pt x="432" y="98" on="0"/>
        <pt x="456" y="121" on="0"/>
        <pt x="475" y="121" on="1"/>
        <pt x="494" y="121" on="0"/>
        <pt x="518" y="98" on="0"/>
        <pt x="518" y="79" on="1"/>
      </contour>
      <contour>
        <pt x="279" y="28" on="0"/>
        <pt x="255" y="5" on="0"/>
        <pt x="236" y="5" on="1"/>
        <pt x="217" y="5" on="0"/>
        <pt x="193" y="28" on="0"/>
        <pt x="193" y="47" on="1"/>
        <pt x="193" y="66" on="0"/>
        <pt x="217" y="89" on="0"/>
        <pt x="236" y="89" on="1"/>
        <pt x="255" y="89" on="0"/>
        <pt x="279" y="66" on="0"/>
        <pt x="279" y="47" on="1"/>
      </contour>
      <contour>
        <pt x="403" y="14" on="0"/>
        <pt x="379" y="-9" on="0"/>
        <pt x="360" y="-9" on="1"/>
        <pt x="341" y="-9" on="0"/>
        <pt x="317" y="14" on="0"/>
        <pt x="317" y="33" on="1"/>
        <pt x="317" y="52" on="0"/>
        <pt x="341" y="75" on="0"/>
        <pt x="360" y="75" on="1"/>
        <pt x="379" y="75" on="0"/>
        <pt x="403" y="52" on="0"/>
        <pt x="403" y="33" on="1"/>
      </contour>
    </TTGlyph>
    <TTGlyph name="doubledanda" xMin="100" yMin="0" xMax="402" yMax="742">
      <contour>
        <pt x="247" y="742" on="1"/>
        <pt x="117" y="0" on="1"/>
        <pt x="100" y="0" on="1"/>
        <pt x="230" y="742" on="1"/>
      </contour>
      <contour>
        <pt x="402" y="742" on="1"/>
        <pt x="272" y="0" on="1"/>
        <pt x="255" y="0" on="1"/>
        <pt x="385" y="742" on="1"/>
      </contour>
    </TTGlyph>
    <TTGlyph name="dvA" xMin="60" yMin="0" xMax="916" yMax="749">
      <contour>
        <pt x="916" y="740" on="1"/>
        <pt x="914" y="724" on="1"/>
        <pt x="752" y="724" on="1"/>
        <pt x="624" y="0" on="1"/>
        <pt x="607" y="0" on="1"/>
        <pt x="675" y="385" on="1"/>
        <pt x="425" y="386" on="1"/>
        <pt x="448" y="367" on="0"/>
        <pt x="473" y="308" on="0"/>
        <pt x="473" y="273" on="1"/>
        <pt x="473" y="256" on="0"/>
        <pt x="470" y="238" on="1"/>
        <pt x="455" y="152" on="0"/>
        <pt x="328" y="48" on="0"/>
        <pt x="238" y="48" on="1"/>
        <pt x="158" y="48" on="0"/>
        <pt x="60" y="135" on="0"/>
        <pt x="60" y="207" on="1"/>
        <pt x="60" y="225" on="0"/>
        <pt x="63" y="244" on="1"/>
        <pt x="80" y="244" on="1"/>
        <pt x="77" y="226" on="0"/>
        <pt x="77" y="210" on="1"/>
        <pt x="77" y="144" on="0"/>
        <pt x="166" y="64" on="0"/>
        <pt x="240" y="64" on="1"/>
        <pt x="323" y="64" on="0"/>
        <pt x="439" y="160" on="0"/>
        <pt x="453" y="238" on="1"/>
        <pt x="456" y="255" on="0"/>
        <pt x="456" y="271" on="1"/>
        <pt x="456" y="329" on="0"/>
        <pt x="381" y="408" on="0"/>
        <pt x="300" y="408" on="1"/>
        <pt x="266" y="408" on="1"/>
        <pt x="269" y="424" on="1"/>
        <pt x="303" y="424" on="1"/>
        <pt x="359" y="424" on="0"/>
        <pt x="443" y="468" on="0"/>
        <pt x="492" y="536" on="0"/>
        <pt x="498" y="572" on="1"/>
        <pt x="501" y="589" on="0"/>
        <pt x="501" y="604" on="1"/>
        <pt x="501" y="665" on="0"/>
        <pt x="419" y="733" on="0"/>
        <pt x="355" y="733" on="1"/>
        <pt x="278" y="733" on="0"/>
        <pt x="160" y="648" on="0"/>
        <pt x="148" y="577" on="1"/>
        <pt x="131" y="577" on="1"/>
        <pt x="145" y="657" on="0"/>
        <pt x="273" y="749" on="0"/>
        <pt x="358" y="749" on="1"/>
        <pt x="430" y="749" on="0"/>
        <pt x="519" y="673" on="0"/>
        <pt x="519" y="608" on="1"/>
        <pt x="519" y="593" on="0"/>
        <pt x="516" y="576" on="1"/>
        <pt x="505" y="514" on="0"/>
        <pt x="421" y="429" on="0"/>
        <pt x="351" y="417" on="1"/>
        <pt x="351" y="416" on="1"/>
        <pt x="380" y="413" on="0"/>
        <pt x="402" y="401" on="1"/>
        <pt x="678" y="401" on="1"/>
        <pt x="738" y="740" on="1"/>
      </contour>
    </TTGlyph>
    <TTGlyph name="dvAA" xMin="60" yMin="0" xMax="1187" yMax="749">
      <contour>
        <pt x="1184" y="724" on="1"/>
        <pt x="1022" y="724" on="1"/>
        <pt x="895" y="0" on="1"/>
        <pt x="878" y="0" on="1"/>
        <pt x="1005" y="724" on="1"/>
        <pt x="752" y="724" on="1"/>
        <pt x="624" y="0" on="1"/>
        <pt x="607" y="0" on="1"/>
        <pt x="675" y="385" on="1"/>
        <pt x="425" y="386" on="1"/>
        <pt x="448" y="367" on="0"/>
        <pt x="473" y="308" on="0"/>
        <pt x="473" y="273" on="1"/>
        <pt x="473" y="256" on="0"/>
        <pt x="470" y="238" on="1"/>
        <pt x="455" y="152" on="0"/>
        <pt x="328" y="48" on="0"/>
        <pt x="238" y="48" on="1"/>
        <pt x="158" y="48" on="0"/>
        <pt x="60" y="135" on="0"/>
        <pt x="60" y="207" on="1"/>
        <pt x="60" y="225" on="0"/>
        <pt x="63" y="244" on="1"/>
        <pt x="80" y="244" on="1"/>
        <pt x="77" y="226" on="0"/>
        <pt x="77" y="210" on="1"/>
        <pt x="77" y="144" on="0"/>
        <pt x="166" y="64" on="0"/>
        <pt x="240" y="64" on="1"/>
        <pt x="323" y="64" on="0"/>
        <pt x="439" y="160" on="0"/>
        <pt x="453" y="238" on="1"/>
        <pt x="456" y="255" on="0"/>
        <pt x="456" y="271" on="1"/>
        <pt x="456" y="329" on="0"/>
        <pt x="381" y="408" on="0"/>
        <pt x="300" y="408" on="1"/>
        <pt x="266" y="408" on="1"/>
        <pt x="269" y="424" on="1"/>
        <pt x="303" y="424" on="1"/>
        <pt x="359" y="424" on="0"/>
        <pt x="443" y="468" on="0"/>
        <pt x="492" y="536" on="0"/>
        <pt x="498" y="572" on="1"/>
        <pt x="501" y="589" on="0"/>
        <pt x="501" y="604" on="1"/>
        <pt x="501" y="665" on="0"/>
        <pt x="419" y="733" on="0"/>
        <pt x="355" y="733" on="1"/>
        <pt x="278" y="733" on="0"/>
        <pt x="160" y="648" on="0"/>
        <pt x="148" y="577" on="1"/>
        <pt x="131" y="577" on="1"/>
        <pt x="145" y="657" on="0"/>
        <pt x="273" y="749" on="0"/>
        <pt x="358" y="749" on="1"/>
        <pt x="430" y="749" on="0"/>
        <pt x="519" y="673" on="0"/>
        <pt x="519" y="608" on="1"/>
        <pt x="519" y="593" on="0"/>
        <pt x="516" y="576" on="1"/>
        <pt x="505" y="514" on="0"/>
        <pt x="421" y="429" on="0"/>
        <pt x="351" y="417" on="1"/>
        <pt x="351" y="416" on="1"/>
        <pt x="380" y="413" on="0"/>
        <pt x="402" y="401" on="1"/>
        <pt x="678" y="401" on="1"/>
        <pt x="738" y="740" on="1"/>
        <pt x="1187" y="740" on="1"/>
      </contour>
    </TTGlyph>
    <TTGlyph name="dvAI" xMin="26" yMin="19" xMax="750" yMax="964">
      <contour>
        <pt x="747" y="724" on="1"/>
        <pt x="613" y="724" on="1"/>
        <pt x="587" y="576" on="1"/>
        <pt x="569" y="473" on="0"/>
        <pt x="479" y="381" on="0"/>
        <pt x="396" y="381" on="1"/>
        <pt x="373" y="382" on="1"/>
        <pt x="376" y="398" on="1"/>
        <pt x="384" y="397" on="0"/>
        <pt x="398" y="397" on="1"/>
        <pt x="473" y="397" on="0"/>
        <pt x="553" y="482" on="0"/>
        <pt x="570" y="576" on="1"/>
        <pt x="596" y="724" on="1"/>
        <pt x="198" y="724" on="1"/>
        <pt x="119" y="278" on="1"/>
        <pt x="112" y="238" on="0"/>
        <pt x="112" y="212" on="1"/>
        <pt x="112" y="129" on="0"/>
        <pt x="208" y="35" on="0"/>
        <pt x="299" y="35" on="1"/>
        <pt x="395" y="35" on="0"/>
        <pt x="512" y="147" on="0"/>
        <pt x="529" y="250" on="1"/>
        <pt x="546" y="250" on="1"/>
        <pt x="528" y="140" on="0"/>
        <pt x="400" y="19" on="0"/>
        <pt x="296" y="19" on="1"/>
        <pt x="197" y="19" on="0"/>
        <pt x="95" y="120" on="0"/>
        <pt x="95" y="210" on="1"/>
        <pt x="95" y="236" on="0"/>
        <pt x="102" y="278" on="1"/>
        <pt x="181" y="724" on="1"/>
        <pt x="26" y="724" on="1"/>
        <pt x="29" y="740" on="1"/>
        <pt x="597" y="740" on="1"/>
        <pt x="553" y="838" on="0"/>
        <pt x="486" y="925" on="0"/>
        <pt x="420" y="948" on="0"/>
        <pt x="360" y="948" on="1"/>
        <pt x="328" y="948" on="1"/>
        <pt x="331" y="964" on="1"/>
        <pt x="363" y="964" on="1"/>
        <pt x="426" y="964" on="0"/>
        <pt x="497" y="939" on="0"/>
        <pt x="568" y="845" on="0"/>
        <pt x="615" y="740" on="1"/>
        <pt x="750" y="740" on="1"/>
      </contour>
    </TTGlyph>
    <TTGlyph name="dvAU" xMin="60" yMin="0" xMax="1187" yMax="1014">
      <contour>
        <pt x="1187" y="740" on="1"/>
        <pt x="1184" y="724" on="1"/>
        <pt x="1022" y="724" on="1"/>
        <pt x="895" y="0" on="1"/>
        <pt x="878" y="0" on="1"/>
        <pt x="1005" y="724" on="1"/>
        <pt x="752" y="724" on="1"/>
        <pt x="624" y="0" on="1"/>
        <pt x="607" y="0" on="1"/>
        <pt x="675" y="385" on="1"/>
        <pt x="425" y="386" on="1"/>
        <pt x="448" y="367" on="0"/>
        <pt x="473" y="308" on="0"/>
        <pt x="473" y="273" on="1"/>
        <pt x="473" y="256" on="0"/>
        <pt x="470" y="238" on="1"/>
        <pt x="455" y="152" on="0"/>
        <pt x="328" y="48" on="0"/>
        <pt x="238" y="48" on="1"/>
        <pt x="158" y="48" on="0"/>
        <pt x="60" y="135" on="0"/>
        <pt x="60" y="207" on="1"/>
        <pt x="60" y="225" on="0"/>
        <pt x="63" y="244" on="1"/>
        <pt x="80" y="244" on="1"/>
        <pt x="77" y="226" on="0"/>
        <pt x="77" y="210" on="1"/>
        <pt x="77" y="144" on="0"/>
        <pt x="166" y="64" on="0"/>
        <pt x="240" y="64" on="1"/>
        <pt x="323" y="64" on="0"/>
        <pt x="439" y="160" on="0"/>
        <pt x="453" y="238" on="1"/>
        <pt x="456" y="255" on="0"/>
        <pt x="456" y="271" on="1"/>
        <pt x="456" y="329" on="0"/>
        <pt x="381" y="408" on="0"/>
        <pt x="300" y="408" on="1"/>
        <pt x="266" y="408" on="1"/>
        <pt x="269" y="424" on="1"/>
        <pt x="303" y="424" on="1"/>
        <pt x="359" y="424" on="0"/>
        <pt x="443" y="468" on="0"/>
        <pt x="492" y="536" on="0"/>
        <pt x="498" y="572" on="1"/>
        <pt x="501" y="589" on="0"/>
        <pt x="501" y="604" on="1"/>
        <pt x="501" y="665" on="0"/>
        <pt x="419" y="733" on="0"/>
        <pt x="355" y="733" on="1"/>
        <pt x="278" y="733" on="0"/>
        <pt x="160" y="648" on="0"/>
        <pt x="148" y="577" on="1"/>
        <pt x="131" y="577" on="1"/>
        <pt x="145" y="657" on="0"/>
        <pt x="273" y="749" on="0"/>
        <pt x="358" y="749" on="1"/>
        <pt x="430" y="749" on="0"/>
        <pt x="519" y="673" on="0"/>
        <pt x="519" y="608" on="1"/>
        <pt x="519" y="593" on="0"/>
        <pt x="516" y="576" on="1"/>
        <pt x="505" y="514" on="0"/>
        <pt x="421" y="429" on="0"/>
        <pt x="351" y="417" on="1"/>
        <pt x="351" y="416" on="1"/>
        <pt x="380" y="413" on="0"/>
        <pt x="402" y="401" on="1"/>
        <pt x="678" y="401" on="1"/>
        <pt x="738" y="740" on="1"/>
        <pt x="1093" y="740" on="1"/>
        <pt x="1042" y="795" on="0"/>
        <pt x="969" y="845" on="0"/>
        <pt x="900" y="858" on="0"/>
        <pt x="840" y="858" on="1"/>
        <pt x="808" y="858" on="1"/>
        <pt x="811" y="874" on="1"/>
        <pt x="843" y="874" on="1"/>
        <pt x="903" y="874" on="0"/>
        <pt x="971" y="862" on="0"/>
        <pt x="1042" y="816" on="0"/>
        <pt x="1088" y="764" on="1"/>
        <pt x="1049" y="874" on="0"/>
        <pt x="987" y="972" on="0"/>
        <pt x="923" y="998" on="0"/>
        <pt x="865" y="998" on="1"/>
        <pt x="833" y="998" on="1"/>
        <pt x="835" y="1014" on="1"/>
        <pt x="867" y="1014" on="1"/>
        <pt x="931" y="1014" on="0"/>
        <pt x="1000" y="984" on="0"/>
        <pt x="1068" y="869" on="0"/>
        <pt x="1111" y="740" on="1"/>
      </contour>
    </TTGlyph>
    <TTGlyph name="dvAbbreviationsign" xMin="91" yMin="204" xMax="418" yMax="516">
      <contour>
        <pt x="343" y="516" on="0"/>
        <pt x="418" y="446" on="0"/>
        <pt x="418" y="389" on="1"/>
        <pt x="418" y="375" on="0"/>
        <pt x="415" y="358" on="1"/>
        <pt x="403" y="290" on="0"/>
        <pt x="301" y="204" on="0"/>
        <pt x="232" y="204" on="1"/>
        <pt x="169" y="204" on="0"/>
        <pt x="91" y="274" on="0"/>
        <pt x="91" y="331" on="1"/>
        <pt x="91" y="345" on="0"/>
        <pt x="94" y="360" on="1"/>
        <pt x="106" y="428" on="0"/>
        <pt x="211" y="516" on="0"/>
        <pt x="282" y="516" on="1"/>
      </contour>
      <contour>
        <pt x="235" y="500" on="0"/>
        <pt x="156" y="456" on="0"/>
        <pt x="109" y="380" on="0"/>
        <pt x="109" y="333" on="1"/>
        <pt x="109" y="282" on="0"/>
        <pt x="176" y="220" on="0"/>
        <pt x="232" y="220" on="1"/>
        <pt x="294" y="220" on="0"/>
        <pt x="387" y="297" on="0"/>
        <pt x="398" y="358" on="1"/>
        <pt x="400" y="368" on="0"/>
        <pt x="400" y="386" on="1"/>
        <pt x="400" y="437" on="0"/>
        <pt x="336" y="500" on="0"/>
        <pt x="282" y="500" on="1"/>
      </contour>
    </TTGlyph>
    <TTGlyph name="dvAcandra" xMin="60" yMin="0" xMax="1064" yMax="999">
      <component glyphName="dvA" x="0" y="0" flags="0x0"/>
      <component glyphName="dvmEcandra" x="924" y="30" flags="0x4"/>
    </TTGlyph>
    <TTGlyph name="dvAnusvara" xMin="-69" yMin="855" xMax="-20" yMax="903">
      <contour>
        <pt x="-20" y="871" on="0"/>
        <pt x="-37" y="855" on="0"/>
        <pt x="-48" y="855" on="1"/>
        <pt x="-58" y="855" on="0"/>
        <pt x="-69" y="866" on="0"/>
        <pt x="-69" y="875" on="1"/>
        <pt x="-69" y="887" on="0"/>
        <pt x="-52" y="903" on="0"/>
        <pt x="-41" y="903" on="1"/>
        <pt x="-31" y="903" on="0"/>
        <pt x="-20" y="892" on="0"/>
        <pt x="-20" y="883" on="1"/>
      </contour>
    </TTGlyph>
    <TTGlyph name="dvAnusvara.amI" xMin="89" yMin="855" xMax="138" yMax="903">
      <contour>
        <pt x="138" y="871" on="0"/>
        <pt x="121" y="855" on="0"/>
        <pt x="110" y="855" on="1"/>
        <pt x="100" y="855" on="0"/>
        <pt x="89" y="866" on="0"/>
        <pt x="89" y="875" on="1"/>
        <pt x="89" y="887" on="0"/>
        <pt x="106" y="903" on="0"/>
        <pt x="118" y="903" on="1"/>
        <pt x="128" y="903" on="0"/>
        <pt x="138" y="892" on="0"/>
        <pt x="138" y="883" on="1"/>
      </contour>
    </TTGlyph>
    <TTGlyph name="dvAvagraha" xMin="40" yMin="75" xMax="516" yMax="672">
      <contour>
        <pt x="40" y="75" on="1"/>
        <pt x="43" y="91" on="1"/>
        <pt x="284" y="91" on="1"/>
        <pt x="339" y="91" on="0"/>
        <pt x="401" y="152" on="0"/>
        <pt x="401" y="195" on="1"/>
        <pt x="401" y="234" on="0"/>
        <pt x="348" y="309" on="0"/>
        <pt x="295" y="363" on="1"/>
        <pt x="238" y="421" on="0"/>
        <pt x="180" y="503" on="0"/>
        <pt x="180" y="549" on="1"/>
        <pt x="180" y="556" on="0"/>
        <pt x="182" y="572" on="1"/>
        <pt x="192" y="627" on="0"/>
        <pt x="275" y="672" on="0"/>
        <pt x="334" y="672" on="1"/>
        <pt x="516" y="672" on="1"/>
        <pt x="513" y="656" on="1"/>
        <pt x="335" y="656" on="1"/>
        <pt x="278" y="656" on="0"/>
        <pt x="197" y="610" on="0"/>
        <pt x="197" y="552" on="1"/>
        <pt x="197" y="511" on="0"/>
        <pt x="252" y="433" on="0"/>
        <pt x="306" y="378" on="1"/>
        <pt x="361" y="322" on="0"/>
        <pt x="418" y="241" on="0"/>
        <pt x="418" y="197" on="1"/>
        <pt x="418" y="149" on="0"/>
        <pt x="353" y="75" on="0"/>
        <pt x="281" y="75" on="1"/>
      </contour>
    </TTGlyph>
    <TTGlyph name="dvB" xMin="27" yMin="120" xMax="627" yMax="740">
      <contour>
        <pt x="627" y="740" on="1"/>
        <pt x="624" y="724" on="1"/>
        <pt x="27" y="724" on="1"/>
        <pt x="30" y="740" on="1"/>
      </contour>
      <contour>
        <pt x="430" y="593" on="0"/>
        <pt x="520" y="537" on="0"/>
        <pt x="562" y="447" on="0"/>
        <pt x="562" y="396" on="1"/>
        <pt x="562" y="375" on="0"/>
        <pt x="559" y="355" on="1"/>
        <pt x="548" y="292" on="0"/>
        <pt x="473" y="185" on="0"/>
        <pt x="356" y="120" on="0"/>
        <pt x="285" y="120" on="1"/>
        <pt x="226" y="120" on="0"/>
        <pt x="131" y="165" on="0"/>
        <pt x="77" y="251" on="0"/>
        <pt x="77" y="309" on="1"/>
        <pt x="77" y="333" on="0"/>
        <pt x="81" y="353" on="1"/>
        <pt x="94" y="426" on="0"/>
        <pt x="176" y="535" on="0"/>
        <pt x="295" y="593" on="0"/>
        <pt x="361" y="593" on="1"/>
      </contour>
      <contour>
        <pt x="547" y="383" on="0"/>
        <pt x="547" y="396" on="1"/>
        <pt x="547" y="444" on="0"/>
        <pt x="507" y="526" on="0"/>
        <pt x="423" y="577" on="0"/>
        <pt x="360" y="577" on="1"/>
        <pt x="315" y="577" on="0"/>
        <pt x="229" y="547" on="0"/>
        <pt x="194" y="518" on="1"/>
        <pt x="462" y="207" on="1"/>
        <pt x="494" y="238" on="0"/>
        <pt x="536" y="317" on="0"/>
        <pt x="543" y="355" on="1"/>
      </contour>
      <contour>
        <pt x="94" y="333" on="0"/>
        <pt x="94" y="310" on="1"/>
        <pt x="94" y="229" on="0"/>
        <pt x="202" y="136" on="0"/>
        <pt x="285" y="136" on="1"/>
        <pt x="379" y="136" on="0"/>
        <pt x="451" y="196" on="1"/>
        <pt x="182" y="509" on="1"/>
        <pt x="116" y="449" on="0"/>
        <pt x="98" y="353" on="1"/>
      </contour>
    </TTGlyph>
    <TTGlyph name="dvBA" xMin="27" yMin="0" xMax="790" yMax="740">
      <contour>
        <pt x="790" y="740" on="1"/>
        <pt x="787" y="724" on="1"/>
        <pt x="625" y="724" on="1"/>
        <pt x="498" y="0" on="1"/>
        <pt x="481" y="0" on="1"/>
        <pt x="529" y="268" on="1"/>
        <pt x="496" y="204" on="0"/>
        <pt x="370" y="120" on="0"/>
        <pt x="285" y="120" on="1"/>
        <pt x="227" y="120" on="0"/>
        <pt x="132" y="165" on="0"/>
        <pt x="78" y="250" on="0"/>
        <pt x="78" y="308" on="1"/>
        <pt x="78" y="332" on="0"/>
        <pt x="82" y="353" on="1"/>
        <pt x="95" y="426" on="0"/>
        <pt x="176" y="535" on="0"/>
        <pt x="294" y="593" on="0"/>
        <pt x="360" y="593" on="1"/>
        <pt x="446" y="593" on="0"/>
        <pt x="547" y="506" on="0"/>
        <pt x="558" y="441" on="1"/>
        <pt x="608" y="724" on="1"/>
        <pt x="27" y="724" on="1"/>
        <pt x="30" y="740" on="1"/>
      </contour>
      <contour>
        <pt x="495" y="238" on="0"/>
        <pt x="537" y="317" on="0"/>
        <pt x="543" y="355" on="1"/>
        <pt x="547" y="374" on="0"/>
        <pt x="547" y="397" on="1"/>
        <pt x="547" y="445" on="0"/>
        <pt x="507" y="527" on="0"/>
        <pt x="423" y="577" on="0"/>
        <pt x="360" y="577" on="1"/>
        <pt x="315" y="577" on="0"/>
        <pt x="229" y="547" on="0"/>
        <pt x="194" y="518" on="1"/>
        <pt x="462" y="206" on="1"/>
      </contour>
      <contour>
        <pt x="95" y="333" on="0"/>
        <pt x="95" y="309" on="1"/>
        <pt x="95" y="228" on="0"/>
        <pt x="202" y="136" on="0"/>
        <pt x="286" y="136" on="1"/>
        <pt x="381" y="136" on="0"/>
        <pt x="451" y="196" on="1"/>
        <pt x="183" y="508" on="1"/>
        <pt x="117" y="450" on="0"/>
        <pt x="99" y="353" on="1"/>
      </contour>
    </TTGlyph>
    <TTGlyph name="dvBH" xMin="77" yMin="136" xMax="604" yMax="749">
      <contour>
        <pt x="602" y="429" on="1"/>
        <pt x="408" y="429" on="1"/>
        <pt x="390" y="325" on="1"/>
        <pt x="374" y="231" on="0"/>
        <pt x="280" y="136" on="0"/>
        <pt x="210" y="136" on="1"/>
        <pt x="150" y="136" on="0"/>
        <pt x="77" y="204" on="0"/>
        <pt x="77" y="260" on="1"/>
        <pt x="77" y="274" on="0"/>
        <pt x="80" y="290" on="1"/>
        <pt x="93" y="360" on="0"/>
        <pt x="198" y="445" on="0"/>
        <pt x="272" y="445" on="1"/>
        <pt x="394" y="445" on="1"/>
        <pt x="414" y="556" on="1"/>
        <pt x="420" y="589" on="0"/>
        <pt x="420" y="617" on="1"/>
        <pt x="420" y="672" on="0"/>
        <pt x="370" y="732" on="0"/>
        <pt x="319" y="732" on="1"/>
        <pt x="264" y="732" on="0"/>
        <pt x="182" y="657" on="0"/>
        <pt x="170" y="592" on="1"/>
        <pt x="167" y="571" on="0"/>
        <pt x="167" y="548" on="1"/>
        <pt x="150" y="548" on="1"/>
        <pt x="150" y="571" on="0"/>
        <pt x="153" y="592" on="1"/>
        <pt x="166" y="665" on="0"/>
        <pt x="257" y="749" on="0"/>
        <pt x="319" y="749" on="1"/>
        <pt x="378" y="749" on="0"/>
        <pt x="437" y="681" on="0"/>
        <pt x="437" y="617" on="1"/>
        <pt x="437" y="590" on="0"/>
        <pt x="431" y="557" on="1"/>
        <pt x="411" y="445" on="1"/>
        <pt x="604" y="445" on="1"/>
      </contour>
      <contour>
        <pt x="392" y="429" on="1"/>
        <pt x="270" y="429" on="1"/>
        <pt x="204" y="429" on="0"/>
        <pt x="108" y="353" on="0"/>
        <pt x="97" y="290" on="1"/>
        <pt x="94" y="275" on="0"/>
        <pt x="94" y="261" on="1"/>
        <pt x="94" y="211" on="0"/>
        <pt x="158" y="152" on="0"/>
        <pt x="210" y="152" on="1"/>
        <pt x="272" y="152" on="0"/>
        <pt x="359" y="242" on="0"/>
        <pt x="373" y="324" on="1"/>
      </contour>
    </TTGlyph>
    <TTGlyph name="dvBHA" xMin="77" yMin="0" xMax="842" yMax="749">
      <contour>
        <pt x="842" y="740" on="1"/>
        <pt x="840" y="724" on="1"/>
        <pt x="678" y="724" on="1"/>
        <pt x="550" y="0" on="1"/>
        <pt x="533" y="0" on="1"/>
        <pt x="608" y="429" on="1"/>
        <pt x="408" y="429" on="1"/>
        <pt x="390" y="325" on="1"/>
        <pt x="374" y="231" on="0"/>
        <pt x="280" y="136" on="0"/>
        <pt x="210" y="136" on="1"/>
        <pt x="150" y="136" on="0"/>
        <pt x="77" y="204" on="0"/>
        <pt x="77" y="260" on="1"/>
        <pt x="77" y="274" on="0"/>
        <pt x="80" y="290" on="1"/>
        <pt x="93" y="360" on="0"/>
        <pt x="198" y="445" on="0"/>
        <pt x="272" y="445" on="1"/>
        <pt x="394" y="445" on="1"/>
        <pt x="414" y="556" on="1"/>
        <pt x="420" y="589" on="0"/>
        <pt x="420" y="617" on="1"/>
        <pt x="420" y="672" on="0"/>
        <pt x="370" y="732" on="0"/>
        <pt x="319" y="732" on="1"/>
        <pt x="264" y="732" on="0"/>
        <pt x="182" y="657" on="0"/>
        <pt x="170" y="592" on="1"/>
        <pt x="167" y="571" on="0"/>
        <pt x="167" y="548" on="1"/>
        <pt x="150" y="548" on="1"/>
        <pt x="150" y="571" on="0"/>
        <pt x="153" y="592" on="1"/>
        <pt x="166" y="665" on="0"/>
        <pt x="257" y="749" on="0"/>
        <pt x="319" y="749" on="1"/>
        <pt x="378" y="749" on="0"/>
        <pt x="437" y="681" on="0"/>
        <pt x="437" y="617" on="1"/>
        <pt x="437" y="590" on="0"/>
        <pt x="431" y="557" on="1"/>
        <pt x="411" y="445" on="1"/>
        <pt x="611" y="445" on="1"/>
        <pt x="663" y="740" on="1"/>
      </contour>
      <contour>
        <pt x="392" y="429" on="1"/>
        <pt x="270" y="429" on="1"/>
        <pt x="204" y="429" on="0"/>
        <pt x="108" y="353" on="0"/>
        <pt x="97" y="290" on="1"/>
        <pt x="94" y="275" on="0"/>
        <pt x="94" y="261" on="1"/>
        <pt x="94" y="211" on="0"/>
        <pt x="158" y="152" on="0"/>
        <pt x="210" y="152" on="1"/>
        <pt x="272" y="152" on="0"/>
        <pt x="359" y="242" on="0"/>
        <pt x="373" y="324" on="1"/>
      </contour>
    </TTGlyph>
    <TTGlyph name="dvBH_LA" xMin="77" yMin="104" xMax="1475" yMax="749">
      <contour>
        <pt x="1178" y="724" on="1"/>
        <pt x="1149" y="560" on="1"/>
        <pt x="1218" y="557" on="0"/>
        <pt x="1290" y="467" on="0"/>
        <pt x="1290" y="396" on="1"/>
        <pt x="1290" y="373" on="0"/>
        <pt x="1285" y="341" on="1"/>
        <pt x="1267" y="236" on="0"/>
        <pt x="1133" y="104" on="0"/>
        <pt x="1027" y="104" on="1"/>
        <pt x="1014" y="104" on="0"/>
        <pt x="990" y="106" on="1"/>
        <pt x="993" y="123" on="1"/>
        <pt x="1015" y="121" on="0"/>
        <pt x="1024" y="121" on="1"/>
        <pt x="1124" y="121" on="0"/>
        <pt x="1251" y="243" on="0"/>
        <pt x="1268" y="341" on="1"/>
        <pt x="1273" y="371" on="0"/>
        <pt x="1273" y="394" on="1"/>
        <pt x="1273" y="462" on="0"/>
        <pt x="1206" y="544" on="0"/>
        <pt x="1139" y="544" on="1"/>
        <pt x="1056" y="544" on="0"/>
        <pt x="944" y="416" on="0"/>
        <pt x="924" y="303" on="1"/>
        <pt x="923" y="295" on="1"/>
        <pt x="906" y="295" on="1"/>
        <pt x="907" y="303" on="1"/>
        <pt x="915" y="349" on="0"/>
        <pt x="915" y="384" on="1"/>
        <pt x="915" y="460" on="0"/>
        <pt x="848" y="544" on="0"/>
        <pt x="783" y="544" on="1"/>
        <pt x="699" y="544" on="0"/>
        <pt x="593" y="432" on="0"/>
        <pt x="577" y="341" on="1"/>
        <pt x="572" y="309" on="0"/>
        <pt x="572" y="287" on="1"/>
        <pt x="572" y="211" on="0"/>
        <pt x="658" y="121" on="0"/>
        <pt x="743" y="121" on="1"/>
        <pt x="752" y="121" on="0"/>
        <pt x="774" y="123" on="1"/>
        <pt x="771" y="106" on="1"/>
        <pt x="751" y="104" on="0"/>
        <pt x="742" y="104" on="1"/>
        <pt x="651" y="104" on="0"/>
        <pt x="554" y="203" on="0"/>
        <pt x="554" y="285" on="1"/>
        <pt x="554" y="311" on="0"/>
        <pt x="560" y="341" on="1"/>
        <pt x="569" y="388" on="0"/>
        <pt x="587" y="429" on="1"/>
        <pt x="408" y="429" on="1"/>
        <pt x="390" y="325" on="1"/>
        <pt x="374" y="231" on="0"/>
        <pt x="280" y="136" on="0"/>
        <pt x="210" y="136" on="1"/>
        <pt x="150" y="136" on="0"/>
        <pt x="77" y="204" on="0"/>
        <pt x="77" y="260" on="1"/>
        <pt x="77" y="274" on="0"/>
        <pt x="80" y="290" on="1"/>
        <pt x="93" y="360" on="0"/>
        <pt x="198" y="445" on="0"/>
        <pt x="272" y="445" on="1"/>
        <pt x="394" y="445" on="1"/>
        <pt x="414" y="556" on="1"/>
        <pt x="420" y="589" on="0"/>
        <pt x="420" y="617" on="1"/>
        <pt x="420" y="672" on="0"/>
        <pt x="370" y="732" on="0"/>
        <pt x="319" y="732" on="1"/>
        <pt x="264" y="732" on="0"/>
        <pt x="182" y="657" on="0"/>
        <pt x="170" y="592" on="1"/>
        <pt x="167" y="571" on="0"/>
        <pt x="167" y="548" on="1"/>
        <pt x="150" y="548" on="1"/>
        <pt x="150" y="571" on="0"/>
        <pt x="153" y="592" on="1"/>
        <pt x="166" y="665" on="0"/>
        <pt x="257" y="749" on="0"/>
        <pt x="319" y="749" on="1"/>
        <pt x="378" y="749" on="0"/>
        <pt x="437" y="681" on="0"/>
        <pt x="437" y="617" on="1"/>
        <pt x="437" y="590" on="0"/>
        <pt x="431" y="557" on="1"/>
        <pt x="411" y="445" on="1"/>
        <pt x="595" y="445" on="1"/>
        <pt x="624" y="499" on="0"/>
        <pt x="721" y="560" on="0"/>
        <pt x="784" y="560" on="1"/>
        <pt x="864" y="560" on="0"/>
        <pt x="933" y="456" on="0"/>
        <pt x="930" y="387" on="1"/>
        <pt x="932" y="387" on="1"/>
        <pt x="954" y="455" on="0"/>
        <pt x="1053" y="557" on="0"/>
        <pt x="1132" y="560" on="1"/>
        <pt x="1161" y="724" on="1"/>
        <pt x="591" y="724" on="1"/>
        <pt x="594" y="740" on="1"/>
        <pt x="1475" y="740" on="1"/>
        <pt x="1472" y="724" on="1"/>
      </contour>
      <contour>
        <pt x="392" y="429" on="1"/>
        <pt x="270" y="429" on="1"/>
        <pt x="204" y="429" on="0"/>
        <pt x="108" y="353" on="0"/>
        <pt x="97" y="290" on="1"/>
        <pt x="94" y="275" on="0"/>
        <pt x="94" y="261" on="1"/>
        <pt x="94" y="211" on="0"/>
        <pt x="158" y="152" on="0"/>
        <pt x="210" y="152" on="1"/>
        <pt x="272" y="152" on="0"/>
        <pt x="359" y="242" on="0"/>
        <pt x="373" y="324" on="1"/>
      </contour>
    </TTGlyph>
    <TTGlyph name="dvBH_NA" xMin="77" yMin="0" xMax="1358" yMax="749">
      <contour>
        <pt x="1355" y="724" on="1"/>
        <pt x="1194" y="724" on="1"/>
        <pt x="1066" y="0" on="1"/>
        <pt x="1049" y="0" on="1"/>
        <pt x="1137" y="496" on="1"/>
        <pt x="850" y="496" on="1"/>
        <pt x="887" y="484" on="0"/>
        <pt x="934" y="417" on="0"/>
        <pt x="934" y="370" on="1"/>
        <pt x="934" y="354" on="0"/>
        <pt x="931" y="336" on="1"/>
        <pt x="917" y="258" on="0"/>
        <pt x="799" y="160" on="0"/>
        <pt x="720" y="160" on="1"/>
        <pt x="649" y="160" on="0"/>
        <pt x="564" y="238" on="0"/>
        <pt x="564" y="302" on="1"/>
        <pt x="564" y="318" on="0"/>
        <pt x="567" y="334" on="1"/>
        <pt x="576" y="388" on="0"/>
        <pt x="608" y="429" on="1"/>
        <pt x="408" y="429" on="1"/>
        <pt x="390" y="325" on="1"/>
        <pt x="374" y="231" on="0"/>
        <pt x="280" y="136" on="0"/>
        <pt x="210" y="136" on="1"/>
        <pt x="150" y="136" on="0"/>
        <pt x="77" y="204" on="0"/>
        <pt x="77" y="260" on="1"/>
        <pt x="77" y="274" on="0"/>
        <pt x="80" y="290" on="1"/>
        <pt x="93" y="360" on="0"/>
        <pt x="198" y="445" on="0"/>
        <pt x="272" y="445" on="1"/>
        <pt x="394" y="445" on="1"/>
        <pt x="414" y="556" on="1"/>
        <pt x="420" y="589" on="0"/>
        <pt x="420" y="617" on="1"/>
        <pt x="420" y="672" on="0"/>
        <pt x="370" y="732" on="0"/>
        <pt x="319" y="732" on="1"/>
        <pt x="263" y="732" on="0"/>
        <pt x="179" y="657" on="0"/>
        <pt x="170" y="592" on="1"/>
        <pt x="167" y="571" on="0"/>
        <pt x="167" y="548" on="1"/>
        <pt x="150" y="548" on="1"/>
        <pt x="150" y="571" on="0"/>
        <pt x="153" y="592" on="1"/>
        <pt x="163" y="664" on="0"/>
        <pt x="256" y="749" on="0"/>
        <pt x="319" y="749" on="1"/>
        <pt x="378" y="749" on="0"/>
        <pt x="437" y="681" on="0"/>
        <pt x="437" y="617" on="1"/>
        <pt x="437" y="590" on="0"/>
        <pt x="431" y="557" on="1"/>
        <pt x="411" y="445" on="1"/>
        <pt x="622" y="445" on="1"/>
        <pt x="651" y="477" on="0"/>
        <pt x="736" y="511" on="0"/>
        <pt x="787" y="511" on="1"/>
        <pt x="1139" y="511" on="1"/>
        <pt x="1177" y="724" on="1"/>
        <pt x="635" y="724" on="1"/>
        <pt x="638" y="740" on="1"/>
        <pt x="1358" y="740" on="1"/>
      </contour>
      <contour>
        <pt x="917" y="353" on="0"/>
        <pt x="917" y="369" on="1"/>
        <pt x="917" y="425" on="0"/>
        <pt x="841" y="495" on="0"/>
        <pt x="779" y="495" on="1"/>
        <pt x="705" y="495" on="0"/>
        <pt x="597" y="406" on="0"/>
        <pt x="584" y="334" on="1"/>
        <pt x="581" y="318" on="0"/>
        <pt x="581" y="302" on="1"/>
        <pt x="581" y="245" on="0"/>
        <pt x="657" y="176" on="0"/>
        <pt x="723" y="176" on="1"/>
        <pt x="769" y="176" on="0"/>
        <pt x="851" y="219" on="0"/>
        <pt x="906" y="292" on="0"/>
        <pt x="914" y="336" on="1"/>
      </contour>
      <contour>
        <pt x="392" y="429" on="1"/>
        <pt x="270" y="429" on="1"/>
        <pt x="204" y="429" on="0"/>
        <pt x="108" y="353" on="0"/>
        <pt x="97" y="290" on="1"/>
        <pt x="94" y="275" on="0"/>
        <pt x="94" y="261" on="1"/>
        <pt x="94" y="211" on="0"/>
        <pt x="158" y="152" on="0"/>
        <pt x="210" y="152" on="1"/>
        <pt x="272" y="152" on="0"/>
        <pt x="359" y="242" on="0"/>
        <pt x="373" y="324" on="1"/>
      </contour>
    </TTGlyph>
    <TTGlyph name="dvBH_R" xMin="81" yMin="-60" xMax="605" yMax="749">
      <contour>
        <pt x="605" y="445" on="1"/>
        <pt x="602" y="429" on="1"/>
        <pt x="409" y="429" on="1"/>
        <pt x="394" y="345" on="1"/>
        <pt x="378" y="251" on="0"/>
        <pt x="284" y="156" on="0"/>
        <pt x="214" y="156" on="1"/>
        <pt x="154" y="156" on="0"/>
        <pt x="81" y="224" on="0"/>
        <pt x="81" y="280" on="1"/>
        <pt x="81" y="294" on="0"/>
        <pt x="84" y="310" on="1"/>
        <pt x="97" y="371" on="0"/>
        <pt x="200" y="445" on="0"/>
        <pt x="272" y="445" on="1"/>
        <pt x="395" y="445" on="1"/>
        <pt x="414" y="556" on="1"/>
        <pt x="420" y="589" on="0"/>
        <pt x="420" y="617" on="1"/>
        <pt x="420" y="672" on="0"/>
        <pt x="370" y="732" on="0"/>
        <pt x="319" y="732" on="1"/>
        <pt x="263" y="732" on="0"/>
        <pt x="182" y="658" on="0"/>
        <pt x="170" y="592" on="1"/>
        <pt x="167" y="571" on="0"/>
        <pt x="167" y="548" on="1"/>
        <pt x="150" y="548" on="1"/>
        <pt x="150" y="571" on="0"/>
        <pt x="153" y="592" on="1"/>
        <pt x="166" y="665" on="0"/>
        <pt x="257" y="749" on="0"/>
        <pt x="319" y="749" on="1"/>
        <pt x="378" y="749" on="0"/>
        <pt x="437" y="681" on="0"/>
        <pt x="437" y="617" on="1"/>
        <pt x="437" y="590" on="0"/>
        <pt x="431" y="557" on="1"/>
        <pt x="411" y="445" on="1"/>
      </contour>
      <contour>
        <pt x="392" y="429" on="1"/>
        <pt x="270" y="429" on="1"/>
        <pt x="196" y="429" on="0"/>
        <pt x="98" y="347" on="0"/>
        <pt x="98" y="281" on="1"/>
        <pt x="98" y="231" on="0"/>
        <pt x="162" y="172" on="0"/>
        <pt x="214" y="172" on="1"/>
        <pt x="276" y="172" on="0"/>
        <pt x="363" y="262" on="0"/>
        <pt x="377" y="344" on="1"/>
      </contour>
      <contour>
        <pt x="193" y="-60" on="1"/>
        <pt x="573" y="263" on="1"/>
        <pt x="569" y="239" on="1"/>
        <pt x="219" y="-60" on="1"/>
      </contour>
    </TTGlyph>
    <TTGlyph name="dvBH_RA" xMin="81" yMin="-60" xMax="863" yMax="749">
      <contour>
        <pt x="863" y="740" on="1"/>
        <pt x="860" y="724" on="1"/>
        <pt x="698" y="724" on="1"/>
        <pt x="570" y="0" on="1"/>
        <pt x="553" y="0" on="1"/>
        <pt x="600" y="265" on="1"/>
        <pt x="219" y="-60" on="1"/>
        <pt x="193" y="-60" on="1"/>
        <pt x="604" y="290" on="1"/>
        <pt x="629" y="429" on="1"/>
        <pt x="409" y="429" on="1"/>
        <pt x="394" y="345" on="1"/>
        <pt x="378" y="251" on="0"/>
        <pt x="284" y="156" on="0"/>
        <pt x="214" y="156" on="1"/>
        <pt x="154" y="156" on="0"/>
        <pt x="81" y="224" on="0"/>
        <pt x="81" y="280" on="1"/>
        <pt x="81" y="294" on="0"/>
        <pt x="84" y="310" on="1"/>
        <pt x="97" y="371" on="0"/>
        <pt x="200" y="445" on="0"/>
        <pt x="272" y="445" on="1"/>
        <pt x="395" y="445" on="1"/>
        <pt x="414" y="556" on="1"/>
        <pt x="420" y="589" on="0"/>
        <pt x="420" y="617" on="1"/>
        <pt x="420" y="672" on="0"/>
        <pt x="370" y="732" on="0"/>
        <pt x="319" y="732" on="1"/>
        <pt x="263" y="732" on="0"/>
        <pt x="182" y="658" on="0"/>
        <pt x="170" y="592" on="1"/>
        <pt x="167" y="571" on="0"/>
        <pt x="167" y="548" on="1"/>
        <pt x="150" y="548" on="1"/>
        <pt x="150" y="571" on="0"/>
        <pt x="153" y="592" on="1"/>
        <pt x="166" y="665" on="0"/>
        <pt x="257" y="749" on="0"/>
        <pt x="319" y="749" on="1"/>
        <pt x="378" y="749" on="0"/>
        <pt x="437" y="681" on="0"/>
        <pt x="437" y="617" on="1"/>
        <pt x="437" y="590" on="0"/>
        <pt x="431" y="557" on="1"/>
        <pt x="411" y="445" on="1"/>
        <pt x="632" y="445" on="1"/>
        <pt x="684" y="740" on="1"/>
      </contour>
      <contour>
        <pt x="392" y="429" on="1"/>
        <pt x="270" y="429" on="1"/>
        <pt x="196" y="429" on="0"/>
        <pt x="98" y="347" on="0"/>
        <pt x="98" y="281" on="1"/>
        <pt x="98" y="231" on="0"/>
        <pt x="162" y="172" on="0"/>
        <pt x="214" y="172" on="1"/>
        <pt x="276" y="172" on="0"/>
        <pt x="363" y="262" on="0"/>
        <pt x="377" y="344" on="1"/>
      </contour>
    </TTGlyph>
    <TTGlyph name="dvBH_R_YA" xMin="80" yMin="-60" xMax="1302" yMax="749">
      <contour>
        <pt x="1299" y="724" on="1"/>
        <pt x="1137" y="724" on="1"/>
        <pt x="1010" y="0" on="1"/>
        <pt x="993" y="0" on="1"/>
        <pt x="1043" y="283" on="1"/>
        <pt x="1012" y="224" on="0"/>
        <pt x="879" y="138" on="0"/>
        <pt x="788" y="138" on="1"/>
        <pt x="712" y="138" on="0"/>
        <pt x="606" y="197" on="0"/>
        <pt x="583" y="252" on="1"/>
        <pt x="219" y="-60" on="1"/>
        <pt x="193" y="-60" on="1"/>
        <pt x="577" y="267" on="1"/>
        <pt x="566" y="302" on="0"/>
        <pt x="566" y="344" on="1"/>
        <pt x="566" y="376" on="0"/>
        <pt x="572" y="410" on="1"/>
        <pt x="574" y="424" on="0"/>
        <pt x="576" y="429" on="1"/>
        <pt x="409" y="429" on="1"/>
        <pt x="394" y="345" on="1"/>
        <pt x="378" y="251" on="0"/>
        <pt x="284" y="156" on="0"/>
        <pt x="214" y="156" on="1"/>
        <pt x="155" y="156" on="0"/>
        <pt x="80" y="223" on="0"/>
        <pt x="80" y="277" on="1"/>
        <pt x="80" y="286" on="0"/>
        <pt x="84" y="310" on="1"/>
        <pt x="97" y="371" on="0"/>
        <pt x="200" y="445" on="0"/>
        <pt x="272" y="445" on="1"/>
        <pt x="395" y="445" on="1"/>
        <pt x="414" y="556" on="1"/>
        <pt x="420" y="589" on="0"/>
        <pt x="420" y="617" on="1"/>
        <pt x="420" y="672" on="0"/>
        <pt x="370" y="732" on="0"/>
        <pt x="319" y="732" on="1"/>
        <pt x="262" y="732" on="0"/>
        <pt x="180" y="658" on="0"/>
        <pt x="170" y="592" on="1"/>
        <pt x="167" y="571" on="0"/>
        <pt x="167" y="548" on="1"/>
        <pt x="150" y="548" on="1"/>
        <pt x="150" y="571" on="0"/>
        <pt x="153" y="592" on="1"/>
        <pt x="163" y="664" on="0"/>
        <pt x="256" y="749" on="0"/>
        <pt x="319" y="749" on="1"/>
        <pt x="378" y="749" on="0"/>
        <pt x="437" y="681" on="0"/>
        <pt x="437" y="617" on="1"/>
        <pt x="437" y="590" on="0"/>
        <pt x="431" y="557" on="1"/>
        <pt x="411" y="445" on="1"/>
        <pt x="598" y="445" on="1"/>
        <pt x="804" y="445" on="0"/>
        <pt x="837" y="635" on="1"/>
        <pt x="852" y="724" on="1"/>
        <pt x="606" y="724" on="1"/>
        <pt x="609" y="740" on="1"/>
        <pt x="1302" y="740" on="1"/>
      </contour>
      <contour>
        <pt x="1120" y="724" on="1"/>
        <pt x="869" y="724" on="1"/>
        <pt x="854" y="635" on="1"/>
        <pt x="818" y="432" on="0"/>
        <pt x="602" y="429" on="1"/>
        <pt x="592" y="429" on="1"/>
        <pt x="588" y="410" on="1"/>
        <pt x="581" y="376" on="0"/>
        <pt x="581" y="342" on="1"/>
        <pt x="581" y="251" on="0"/>
        <pt x="692" y="154" on="0"/>
        <pt x="792" y="154" on="1"/>
        <pt x="853" y="154" on="0"/>
        <pt x="965" y="205" on="0"/>
        <pt x="1043" y="299" on="0"/>
        <pt x="1056" y="360" on="1"/>
      </contour>
      <contour>
        <pt x="392" y="429" on="1"/>
        <pt x="270" y="429" on="1"/>
        <pt x="205" y="429" on="0"/>
        <pt x="111" y="364" on="0"/>
        <pt x="101" y="310" on="1"/>
        <pt x="98" y="295" on="0"/>
        <pt x="98" y="281" on="1"/>
        <pt x="98" y="231" on="0"/>
        <pt x="162" y="172" on="0"/>
        <pt x="214" y="172" on="1"/>
        <pt x="276" y="172" on="0"/>
        <pt x="363" y="262" on="0"/>
        <pt x="377" y="344" on="1"/>
      </contour>
    </TTGlyph>
    <TTGlyph name="dvBH_VA" xMin="77" yMin="0" xMax="1269" yMax="749">
      <contour>
        <pt x="1269" y="740" on="1"/>
        <pt x="1266" y="724" on="1"/>
        <pt x="1104" y="724" on="1"/>
        <pt x="977" y="0" on="1"/>
        <pt x="960" y="0" on="1"/>
        <pt x="1007" y="268" on="1"/>
        <pt x="975" y="206" on="0"/>
        <pt x="851" y="125" on="0"/>
        <pt x="766" y="125" on="1"/>
        <pt x="677" y="125" on="0"/>
        <pt x="567" y="223" on="0"/>
        <pt x="567" y="310" on="1"/>
        <pt x="567" y="336" on="0"/>
        <pt x="571" y="359" on="1"/>
        <pt x="577" y="395" on="0"/>
        <pt x="593" y="429" on="1"/>
        <pt x="408" y="429" on="1"/>
        <pt x="390" y="325" on="1"/>
        <pt x="374" y="231" on="0"/>
        <pt x="280" y="136" on="0"/>
        <pt x="210" y="136" on="1"/>
        <pt x="150" y="136" on="0"/>
        <pt x="77" y="204" on="0"/>
        <pt x="77" y="260" on="1"/>
        <pt x="77" y="274" on="0"/>
        <pt x="80" y="290" on="1"/>
        <pt x="93" y="360" on="0"/>
        <pt x="198" y="445" on="0"/>
        <pt x="272" y="445" on="1"/>
        <pt x="394" y="445" on="1"/>
        <pt x="414" y="556" on="1"/>
        <pt x="420" y="589" on="0"/>
        <pt x="420" y="617" on="1"/>
        <pt x="420" y="672" on="0"/>
        <pt x="370" y="732" on="0"/>
        <pt x="319" y="732" on="1"/>
        <pt x="264" y="732" on="0"/>
        <pt x="182" y="657" on="0"/>
        <pt x="170" y="592" on="1"/>
        <pt x="167" y="571" on="0"/>
        <pt x="167" y="548" on="1"/>
        <pt x="150" y="548" on="1"/>
        <pt x="150" y="571" on="0"/>
        <pt x="153" y="592" on="1"/>
        <pt x="166" y="665" on="0"/>
        <pt x="257" y="749" on="0"/>
        <pt x="319" y="749" on="1"/>
        <pt x="378" y="749" on="0"/>
        <pt x="437" y="681" on="0"/>
        <pt x="437" y="617" on="1"/>
        <pt x="437" y="590" on="0"/>
        <pt x="431" y="557" on="1"/>
        <pt x="411" y="445" on="1"/>
        <pt x="600" y="445" on="1"/>
        <pt x="636" y="512" on="0"/>
        <pt x="766" y="588" on="0"/>
        <pt x="841" y="588" on="1"/>
        <pt x="929" y="588" on="0"/>
        <pt x="1027" y="505" on="0"/>
        <pt x="1037" y="440" on="1"/>
        <pt x="1087" y="724" on="1"/>
        <pt x="611" y="724" on="1"/>
        <pt x="614" y="740" on="1"/>
      </contour>
      <contour>
        <pt x="840" y="141" on="0"/>
        <pt x="949" y="206" on="0"/>
        <pt x="1013" y="304" on="0"/>
        <pt x="1022" y="354" on="1"/>
        <pt x="1026" y="373" on="0"/>
        <pt x="1026" y="398" on="1"/>
        <pt x="1026" y="472" on="0"/>
        <pt x="936" y="572" on="0"/>
        <pt x="842" y="572" on="1"/>
        <pt x="783" y="572" on="0"/>
        <pt x="675" y="521" on="0"/>
        <pt x="600" y="424" on="0"/>
        <pt x="588" y="359" on="1"/>
        <pt x="584" y="338" on="0"/>
        <pt x="584" y="312" on="1"/>
        <pt x="584" y="231" on="0"/>
        <pt x="684" y="141" on="0"/>
        <pt x="766" y="141" on="1"/>
      </contour>
      <contour>
        <pt x="392" y="429" on="1"/>
        <pt x="270" y="429" on="1"/>
        <pt x="204" y="429" on="0"/>
        <pt x="108" y="353" on="0"/>
        <pt x="97" y="290" on="1"/>
        <pt x="94" y="275" on="0"/>
        <pt x="94" y="261" on="1"/>
        <pt x="94" y="211" on="0"/>
        <pt x="158" y="152" on="0"/>
        <pt x="210" y="152" on="1"/>
        <pt x="272" y="152" on="0"/>
        <pt x="359" y="242" on="0"/>
        <pt x="373" y="324" on="1"/>
      </contour>
    </TTGlyph>
    <TTGlyph name="dvBH_YA" xMin="77" yMin="0" xMax="1302" yMax="749">
      <contour>
        <pt x="1299" y="724" on="1"/>
        <pt x="1137" y="724" on="1"/>
        <pt x="1010" y="0" on="1"/>
        <pt x="993" y="0" on="1"/>
        <pt x="1043" y="283" on="1"/>
        <pt x="1012" y="224" on="0"/>
        <pt x="879" y="138" on="0"/>
        <pt x="788" y="138" on="1"/>
        <pt x="683" y="138" on="0"/>
        <pt x="566" y="246" on="0"/>
        <pt x="566" y="344" on="1"/>
        <pt x="566" y="376" on="0"/>
        <pt x="572" y="410" on="1"/>
        <pt x="574" y="424" on="0"/>
        <pt x="576" y="429" on="1"/>
        <pt x="408" y="429" on="1"/>
        <pt x="390" y="325" on="1"/>
        <pt x="374" y="231" on="0"/>
        <pt x="280" y="136" on="0"/>
        <pt x="210" y="136" on="1"/>
        <pt x="150" y="136" on="0"/>
        <pt x="77" y="204" on="0"/>
        <pt x="77" y="260" on="1"/>
        <pt x="77" y="274" on="0"/>
        <pt x="80" y="290" on="1"/>
        <pt x="93" y="360" on="0"/>
        <pt x="198" y="445" on="0"/>
        <pt x="272" y="445" on="1"/>
        <pt x="394" y="445" on="1"/>
        <pt x="414" y="556" on="1"/>
        <pt x="420" y="589" on="0"/>
        <pt x="420" y="617" on="1"/>
        <pt x="420" y="672" on="0"/>
        <pt x="370" y="732" on="0"/>
        <pt x="319" y="732" on="1"/>
        <pt x="264" y="732" on="0"/>
        <pt x="182" y="657" on="0"/>
        <pt x="170" y="592" on="1"/>
        <pt x="167" y="571" on="0"/>
        <pt x="167" y="548" on="1"/>
        <pt x="150" y="548" on="1"/>
        <pt x="150" y="571" on="0"/>
        <pt x="153" y="592" on="1"/>
        <pt x="166" y="665" on="0"/>
        <pt x="257" y="749" on="0"/>
        <pt x="319" y="749" on="1"/>
        <pt x="378" y="749" on="0"/>
        <pt x="437" y="681" on="0"/>
        <pt x="437" y="617" on="1"/>
        <pt x="437" y="590" on="0"/>
        <pt x="431" y="557" on="1"/>
        <pt x="411" y="445" on="1"/>
        <pt x="598" y="445" on="1"/>
        <pt x="804" y="445" on="0"/>
        <pt x="837" y="635" on="1"/>
        <pt x="852" y="724" on="1"/>
        <pt x="606" y="724" on="1"/>
        <pt x="609" y="740" on="1"/>
        <pt x="1302" y="740" on="1"/>
      </contour>
      <contour>
        <pt x="1120" y="724" on="1"/>
        <pt x="869" y="724" on="1"/>
        <pt x="854" y="635" on="1"/>
        <pt x="818" y="432" on="0"/>
        <pt x="602" y="429" on="1"/>
        <pt x="592" y="429" on="1"/>
        <pt x="588" y="410" on="1"/>
        <pt x="581" y="376" on="0"/>
        <pt x="581" y="342" on="1"/>
        <pt x="581" y="251" on="0"/>
        <pt x="692" y="154" on="0"/>
        <pt x="792" y="154" on="1"/>
        <pt x="853" y="154" on="0"/>
        <pt x="965" y="205" on="0"/>
        <pt x="1043" y="299" on="0"/>
        <pt x="1056" y="360" on="1"/>
      </contour>
      <contour>
        <pt x="392" y="429" on="1"/>
        <pt x="270" y="429" on="1"/>
        <pt x="204" y="429" on="0"/>
        <pt x="108" y="353" on="0"/>
        <pt x="97" y="290" on="1"/>
        <pt x="94" y="275" on="0"/>
        <pt x="94" y="261" on="1"/>
        <pt x="94" y="211" on="0"/>
        <pt x="158" y="152" on="0"/>
        <pt x="210" y="152" on="1"/>
        <pt x="272" y="152" on="0"/>
        <pt x="359" y="242" on="0"/>
        <pt x="373" y="324" on="1"/>
      </contour>
    </TTGlyph>
    <TTGlyph name="dvB_BA" xMin="27" yMin="0" xMax="1250" yMax="740">
      <contour>
        <pt x="1247" y="724" on="1"/>
        <pt x="1085" y="724" on="1"/>
        <pt x="958" y="0" on="1"/>
        <pt x="941" y="0" on="1"/>
        <pt x="989" y="268" on="1"/>
        <pt x="956" y="204" on="0"/>
        <pt x="830" y="120" on="0"/>
        <pt x="745" y="120" on="1"/>
        <pt x="660" y="120" on="0"/>
        <pt x="546" y="211" on="0"/>
        <pt x="539" y="289" on="1"/>
        <pt x="506" y="215" on="0"/>
        <pt x="371" y="120" on="0"/>
        <pt x="285" y="120" on="1"/>
        <pt x="226" y="120" on="0"/>
        <pt x="131" y="165" on="0"/>
        <pt x="77" y="251" on="0"/>
        <pt x="77" y="309" on="1"/>
        <pt x="77" y="333" on="0"/>
        <pt x="81" y="353" on="1"/>
        <pt x="94" y="426" on="0"/>
        <pt x="176" y="535" on="0"/>
        <pt x="295" y="593" on="0"/>
        <pt x="361" y="593" on="1"/>
        <pt x="454" y="593" on="0"/>
        <pt x="554" y="493" on="0"/>
        <pt x="561" y="420" on="1"/>
        <pt x="595" y="501" on="0"/>
        <pt x="736" y="593" on="0"/>
        <pt x="820" y="593" on="1"/>
        <pt x="906" y="593" on="0"/>
        <pt x="1007" y="506" on="0"/>
        <pt x="1018" y="441" on="1"/>
        <pt x="1068" y="724" on="1"/>
        <pt x="27" y="724" on="1"/>
        <pt x="30" y="740" on="1"/>
        <pt x="1250" y="740" on="1"/>
      </contour>
      <contour>
        <pt x="491" y="235" on="0"/>
        <pt x="531" y="306" on="0"/>
        <pt x="540" y="342" on="1"/>
        <pt x="542" y="353" on="1"/>
        <pt x="545" y="367" on="1"/>
        <pt x="547" y="385" on="0"/>
        <pt x="547" y="395" on="1"/>
        <pt x="547" y="471" on="0"/>
        <pt x="453" y="577" on="0"/>
        <pt x="360" y="577" on="1"/>
        <pt x="315" y="577" on="0"/>
        <pt x="229" y="547" on="0"/>
        <pt x="194" y="518" on="1"/>
        <pt x="462" y="207" on="1"/>
      </contour>
      <contour>
        <pt x="955" y="238" on="0"/>
        <pt x="997" y="317" on="0"/>
        <pt x="1003" y="355" on="1"/>
        <pt x="1007" y="374" on="0"/>
        <pt x="1007" y="397" on="1"/>
        <pt x="1007" y="445" on="0"/>
        <pt x="967" y="527" on="0"/>
        <pt x="883" y="577" on="0"/>
        <pt x="820" y="577" on="1"/>
        <pt x="775" y="577" on="0"/>
        <pt x="689" y="547" on="0"/>
        <pt x="654" y="518" on="1"/>
        <pt x="922" y="206" on="1"/>
      </contour>
      <contour>
        <pt x="94" y="333" on="0"/>
        <pt x="94" y="310" on="1"/>
        <pt x="94" y="229" on="0"/>
        <pt x="202" y="136" on="0"/>
        <pt x="285" y="136" on="1"/>
        <pt x="379" y="136" on="0"/>
        <pt x="451" y="196" on="1"/>
        <pt x="182" y="509" on="1"/>
        <pt x="116" y="449" on="0"/>
        <pt x="98" y="353" on="1"/>
      </contour>
      <contour>
        <pt x="555" y="333" on="0"/>
        <pt x="555" y="309" on="1"/>
        <pt x="555" y="228" on="0"/>
        <pt x="662" y="136" on="0"/>
        <pt x="746" y="136" on="1"/>
        <pt x="841" y="136" on="0"/>
        <pt x="911" y="196" on="1"/>
        <pt x="643" y="508" on="1"/>
        <pt x="577" y="450" on="0"/>
        <pt x="559" y="353" on="1"/>
      </contour>
    </TTGlyph>
    <TTGlyph name="dvB_BHA" xMin="27" yMin="0" xMax="1288" yMax="749">
      <contour>
        <pt x="1288" y="740" on="1"/>
        <pt x="1286" y="724" on="1"/>
        <pt x="1124" y="724" on="1"/>
        <pt x="996" y="0" on="1"/>
        <pt x="979" y="0" on="1"/>
        <pt x="1054" y="429" on="1"/>
        <pt x="854" y="429" on="1"/>
        <pt x="836" y="325" on="1"/>
        <pt x="820" y="231" on="0"/>
        <pt x="726" y="136" on="0"/>
        <pt x="656" y="136" on="1"/>
        <pt x="596" y="136" on="0"/>
        <pt x="524" y="203" on="0"/>
        <pt x="523" y="259" on="1"/>
        <pt x="486" y="196" on="0"/>
        <pt x="362" y="120" on="0"/>
        <pt x="285" y="120" on="1"/>
        <pt x="226" y="120" on="0"/>
        <pt x="131" y="165" on="0"/>
        <pt x="77" y="251" on="0"/>
        <pt x="77" y="309" on="1"/>
        <pt x="77" y="333" on="0"/>
        <pt x="81" y="353" on="1"/>
        <pt x="94" y="426" on="0"/>
        <pt x="176" y="535" on="0"/>
        <pt x="295" y="593" on="0"/>
        <pt x="361" y="593" on="1"/>
        <pt x="429" y="593" on="0"/>
        <pt x="520" y="537" on="0"/>
        <pt x="562" y="449" on="0"/>
        <pt x="562" y="398" on="1"/>
        <pt x="562" y="380" on="0"/>
        <pt x="561" y="372" on="1"/>
        <pt x="587" y="407" on="0"/>
        <pt x="669" y="445" on="0"/>
        <pt x="718" y="445" on="1"/>
        <pt x="840" y="445" on="1"/>
        <pt x="860" y="556" on="1"/>
        <pt x="866" y="589" on="0"/>
        <pt x="866" y="617" on="1"/>
        <pt x="866" y="672" on="0"/>
        <pt x="816" y="732" on="0"/>
        <pt x="765" y="732" on="1"/>
        <pt x="741" y="732" on="0"/>
        <pt x="717" y="724" on="1"/>
        <pt x="27" y="724" on="1"/>
        <pt x="30" y="740" on="1"/>
        <pt x="712" y="740" on="1"/>
        <pt x="736" y="749" on="0"/>
        <pt x="765" y="749" on="1"/>
        <pt x="824" y="749" on="0"/>
        <pt x="883" y="681" on="0"/>
        <pt x="883" y="617" on="1"/>
        <pt x="883" y="590" on="0"/>
        <pt x="877" y="557" on="1"/>
        <pt x="857" y="445" on="1"/>
        <pt x="1057" y="445" on="1"/>
        <pt x="1109" y="740" on="1"/>
      </contour>
      <contour>
        <pt x="511" y="254" on="0"/>
        <pt x="532" y="316" on="1"/>
        <pt x="535" y="323" on="1"/>
        <pt x="543" y="355" on="1"/>
        <pt x="547" y="383" on="0"/>
        <pt x="547" y="396" on="1"/>
        <pt x="547" y="444" on="0"/>
        <pt x="507" y="526" on="0"/>
        <pt x="423" y="577" on="0"/>
        <pt x="360" y="577" on="1"/>
        <pt x="315" y="577" on="0"/>
        <pt x="229" y="547" on="0"/>
        <pt x="194" y="518" on="1"/>
        <pt x="462" y="207" on="1"/>
      </contour>
      <contour>
        <pt x="94" y="333" on="0"/>
        <pt x="94" y="310" on="1"/>
        <pt x="94" y="229" on="0"/>
        <pt x="202" y="136" on="0"/>
        <pt x="285" y="136" on="1"/>
        <pt x="379" y="136" on="0"/>
        <pt x="451" y="196" on="1"/>
        <pt x="182" y="509" on="1"/>
        <pt x="116" y="449" on="0"/>
        <pt x="98" y="353" on="1"/>
      </contour>
      <contour>
        <pt x="838" y="429" on="1"/>
        <pt x="716" y="429" on="1"/>
        <pt x="650" y="429" on="0"/>
        <pt x="554" y="353" on="0"/>
        <pt x="543" y="290" on="1"/>
        <pt x="540" y="275" on="0"/>
        <pt x="540" y="261" on="1"/>
        <pt x="540" y="211" on="0"/>
        <pt x="604" y="152" on="0"/>
        <pt x="656" y="152" on="1"/>
        <pt x="718" y="152" on="0"/>
        <pt x="805" y="242" on="0"/>
        <pt x="819" y="324" on="1"/>
      </contour>
    </TTGlyph>
    <TTGlyph name="dvB_BH_RA" xMin="27" yMin="-60" xMax="1309" yMax="749">
      <contour>
        <pt x="1309" y="740" on="1"/>
        <pt x="1306" y="724" on="1"/>
        <pt x="1144" y="724" on="1"/>
        <pt x="1016" y="0" on="1"/>
        <pt x="999" y="0" on="1"/>
        <pt x="1046" y="265" on="1"/>
        <pt x="665" y="-60" on="1"/>
        <pt x="639" y="-60" on="1"/>
        <pt x="1050" y="290" on="1"/>
        <pt x="1075" y="429" on="1"/>
        <pt x="855" y="429" on="1"/>
        <pt x="840" y="345" on="1"/>
        <pt x="824" y="251" on="0"/>
        <pt x="730" y="156" on="0"/>
        <pt x="660" y="156" on="1"/>
        <pt x="603" y="156" on="0"/>
        <pt x="533" y="216" on="0"/>
        <pt x="528" y="267" on="1"/>
        <pt x="492" y="201" on="0"/>
        <pt x="365" y="120" on="0"/>
        <pt x="285" y="120" on="1"/>
        <pt x="226" y="120" on="0"/>
        <pt x="131" y="165" on="0"/>
        <pt x="77" y="251" on="0"/>
        <pt x="77" y="309" on="1"/>
        <pt x="77" y="333" on="0"/>
        <pt x="81" y="353" on="1"/>
        <pt x="94" y="426" on="0"/>
        <pt x="176" y="535" on="0"/>
        <pt x="295" y="593" on="0"/>
        <pt x="361" y="593" on="1"/>
        <pt x="434" y="593" on="0"/>
        <pt x="527" y="530" on="0"/>
        <pt x="566" y="432" on="0"/>
        <pt x="562" y="378" on="1"/>
        <pt x="588" y="410" on="0"/>
        <pt x="669" y="445" on="0"/>
        <pt x="718" y="445" on="1"/>
        <pt x="841" y="445" on="1"/>
        <pt x="860" y="556" on="1"/>
        <pt x="866" y="589" on="0"/>
        <pt x="866" y="617" on="1"/>
        <pt x="866" y="672" on="0"/>
        <pt x="816" y="732" on="0"/>
        <pt x="765" y="732" on="1"/>
        <pt x="742" y="732" on="0"/>
        <pt x="716" y="724" on="1"/>
        <pt x="27" y="724" on="1"/>
        <pt x="30" y="740" on="1"/>
        <pt x="712" y="740" on="1"/>
        <pt x="736" y="749" on="0"/>
        <pt x="765" y="749" on="1"/>
        <pt x="824" y="749" on="0"/>
        <pt x="883" y="681" on="0"/>
        <pt x="883" y="617" on="1"/>
        <pt x="883" y="590" on="0"/>
        <pt x="877" y="557" on="1"/>
        <pt x="857" y="445" on="1"/>
        <pt x="1078" y="445" on="1"/>
        <pt x="1130" y="740" on="1"/>
      </contour>
      <contour>
        <pt x="507" y="251" on="0"/>
        <pt x="530" y="309" on="1"/>
        <pt x="530" y="310" on="1"/>
        <pt x="532" y="323" on="0"/>
        <pt x="540" y="342" on="1"/>
        <pt x="543" y="355" on="1"/>
        <pt x="547" y="383" on="0"/>
        <pt x="547" y="396" on="1"/>
        <pt x="547" y="444" on="0"/>
        <pt x="507" y="526" on="0"/>
        <pt x="423" y="577" on="0"/>
        <pt x="360" y="577" on="1"/>
        <pt x="315" y="577" on="0"/>
        <pt x="229" y="547" on="0"/>
        <pt x="194" y="518" on="1"/>
        <pt x="462" y="207" on="1"/>
      </contour>
      <contour>
        <pt x="94" y="333" on="0"/>
        <pt x="94" y="310" on="1"/>
        <pt x="94" y="229" on="0"/>
        <pt x="202" y="136" on="0"/>
        <pt x="285" y="136" on="1"/>
        <pt x="379" y="136" on="0"/>
        <pt x="451" y="196" on="1"/>
        <pt x="182" y="509" on="1"/>
        <pt x="116" y="449" on="0"/>
        <pt x="98" y="353" on="1"/>
      </contour>
      <contour>
        <pt x="838" y="429" on="1"/>
        <pt x="716" y="429" on="1"/>
        <pt x="659" y="429" on="0"/>
        <pt x="573" y="379" on="0"/>
        <pt x="555" y="335" on="1"/>
        <pt x="547" y="309" on="1"/>
        <pt x="544" y="294" on="0"/>
        <pt x="544" y="280" on="1"/>
        <pt x="544" y="231" on="0"/>
        <pt x="608" y="172" on="0"/>
        <pt x="660" y="172" on="1"/>
        <pt x="722" y="172" on="0"/>
        <pt x="809" y="262" on="0"/>
        <pt x="823" y="344" on="1"/>
      </contour>
    </TTGlyph>
    <TTGlyph name="dvB_DA" xMin="27" yMin="0" xMax="1168" yMax="740">
      <contour>
        <pt x="1165" y="724" on="1"/>
        <pt x="995" y="724" on="1"/>
        <pt x="968" y="572" on="1"/>
        <pt x="847" y="572" on="1"/>
        <pt x="778" y="572" on="0"/>
        <pt x="657" y="525" on="0"/>
        <pt x="573" y="429" on="0"/>
        <pt x="561" y="358" on="1"/>
        <pt x="557" y="337" on="0"/>
        <pt x="557" y="313" on="1"/>
        <pt x="557" y="236" on="0"/>
        <pt x="652" y="145" on="0"/>
        <pt x="734" y="145" on="1"/>
        <pt x="778" y="145" on="0"/>
        <pt x="871" y="182" on="0"/>
        <pt x="943" y="261" on="0"/>
        <pt x="953" y="321" on="1"/>
        <pt x="968" y="321" on="1"/>
        <pt x="912" y="0" on="1"/>
        <pt x="895" y="0" on="1"/>
        <pt x="937" y="241" on="1"/>
        <pt x="912" y="192" on="0"/>
        <pt x="799" y="129" on="0"/>
        <pt x="732" y="129" on="1"/>
        <pt x="649" y="129" on="0"/>
        <pt x="546" y="218" on="0"/>
        <pt x="540" y="293" on="1"/>
        <pt x="508" y="217" on="0"/>
        <pt x="372" y="120" on="0"/>
        <pt x="285" y="120" on="1"/>
        <pt x="226" y="120" on="0"/>
        <pt x="131" y="165" on="0"/>
        <pt x="77" y="251" on="0"/>
        <pt x="77" y="309" on="1"/>
        <pt x="77" y="333" on="0"/>
        <pt x="81" y="353" on="1"/>
        <pt x="94" y="426" on="0"/>
        <pt x="176" y="535" on="0"/>
        <pt x="295" y="593" on="0"/>
        <pt x="361" y="593" on="1"/>
        <pt x="454" y="593" on="0"/>
        <pt x="554" y="493" on="0"/>
        <pt x="561" y="419" on="1"/>
        <pt x="596" y="504" on="0"/>
        <pt x="751" y="588" on="0"/>
        <pt x="849" y="588" on="1"/>
        <pt x="953" y="588" on="1"/>
        <pt x="978" y="724" on="1"/>
        <pt x="27" y="724" on="1"/>
        <pt x="30" y="740" on="1"/>
        <pt x="1168" y="740" on="1"/>
      </contour>
      <contour>
        <pt x="494" y="238" on="0"/>
        <pt x="536" y="317" on="0"/>
        <pt x="543" y="355" on="1"/>
        <pt x="547" y="383" on="0"/>
        <pt x="547" y="396" on="1"/>
        <pt x="547" y="444" on="0"/>
        <pt x="507" y="526" on="0"/>
        <pt x="423" y="577" on="0"/>
        <pt x="360" y="577" on="1"/>
        <pt x="315" y="577" on="0"/>
        <pt x="229" y="547" on="0"/>
        <pt x="194" y="518" on="1"/>
        <pt x="462" y="207" on="1"/>
      </contour>
      <contour>
        <pt x="94" y="333" on="0"/>
        <pt x="94" y="310" on="1"/>
        <pt x="94" y="229" on="0"/>
        <pt x="202" y="136" on="0"/>
        <pt x="285" y="136" on="1"/>
        <pt x="379" y="136" on="0"/>
        <pt x="451" y="196" on="1"/>
        <pt x="182" y="509" on="1"/>
        <pt x="116" y="449" on="0"/>
        <pt x="98" y="353" on="1"/>
      </contour>
    </TTGlyph>
    <TTGlyph name="dvB_DHA" xMin="27" yMin="0" xMax="1230" yMax="749">
      <contour>
        <pt x="1228" y="724" on="1"/>
        <pt x="1066" y="724" on="1"/>
        <pt x="938" y="0" on="1"/>
        <pt x="921" y="0" on="1"/>
        <pt x="969" y="275" on="1"/>
        <pt x="930" y="202" on="0"/>
        <pt x="788" y="116" on="0"/>
        <pt x="703" y="116" on="1"/>
        <pt x="624" y="116" on="0"/>
        <pt x="522" y="191" on="0"/>
        <pt x="521" y="256" on="1"/>
        <pt x="485" y="194" on="0"/>
        <pt x="362" y="120" on="0"/>
        <pt x="285" y="120" on="1"/>
        <pt x="226" y="120" on="0"/>
        <pt x="131" y="165" on="0"/>
        <pt x="77" y="251" on="0"/>
        <pt x="77" y="309" on="1"/>
        <pt x="77" y="333" on="0"/>
        <pt x="81" y="353" on="1"/>
        <pt x="94" y="426" on="0"/>
        <pt x="176" y="535" on="0"/>
        <pt x="295" y="593" on="0"/>
        <pt x="361" y="593" on="1"/>
        <pt x="408" y="593" on="0"/>
        <pt x="439" y="581" on="1"/>
        <pt x="437" y="565" on="1"/>
        <pt x="406" y="577" on="0"/>
        <pt x="360" y="577" on="1"/>
        <pt x="315" y="577" on="0"/>
        <pt x="229" y="547" on="0"/>
        <pt x="194" y="518" on="1"/>
        <pt x="462" y="206" on="1"/>
        <pt x="509" y="252" on="0"/>
        <pt x="530" y="311" on="1"/>
        <pt x="547" y="364" on="0"/>
        <pt x="630" y="426" on="0"/>
        <pt x="678" y="430" on="1"/>
        <pt x="678" y="432" on="1"/>
        <pt x="632" y="440" on="0"/>
        <pt x="571" y="505" on="0"/>
        <pt x="571" y="558" on="1"/>
        <pt x="571" y="575" on="0"/>
        <pt x="574" y="594" on="1"/>
        <pt x="582" y="636" on="0"/>
        <pt x="628" y="704" on="0"/>
        <pt x="663" y="724" on="1"/>
        <pt x="27" y="724" on="1"/>
        <pt x="30" y="740" on="1"/>
        <pt x="697" y="740" on="1"/>
        <pt x="697" y="739" on="1"/>
        <pt x="724" y="749" on="0"/>
        <pt x="757" y="749" on="1"/>
        <pt x="818" y="749" on="0"/>
        <pt x="886" y="685" on="0"/>
        <pt x="886" y="630" on="1"/>
        <pt x="886" y="600" on="0"/>
        <pt x="878" y="573" on="1"/>
        <pt x="861" y="573" on="1"/>
        <pt x="869" y="600" on="0"/>
        <pt x="869" y="628" on="1"/>
        <pt x="869" y="678" on="0"/>
        <pt x="809" y="733" on="0"/>
        <pt x="754" y="733" on="1"/>
        <pt x="693" y="733" on="0"/>
        <pt x="601" y="652" on="0"/>
        <pt x="591" y="593" on="1"/>
        <pt x="588" y="577" on="0"/>
        <pt x="588" y="561" on="1"/>
        <pt x="588" y="505" on="0"/>
        <pt x="665" y="440" on="0"/>
        <pt x="740" y="440" on="1"/>
        <pt x="794" y="440" on="1"/>
        <pt x="791" y="424" on="1"/>
        <pt x="737" y="424" on="1"/>
        <pt x="673" y="424" on="0"/>
        <pt x="584" y="379" on="0"/>
        <pt x="539" y="305" on="0"/>
        <pt x="539" y="260" on="1"/>
        <pt x="539" y="199" on="0"/>
        <pt x="633" y="132" on="0"/>
        <pt x="706" y="132" on="1"/>
        <pt x="771" y="132" on="0"/>
        <pt x="889" y="190" on="0"/>
        <pt x="972" y="294" on="0"/>
        <pt x="984" y="359" on="1"/>
        <pt x="1050" y="732" on="1"/>
        <pt x="1051" y="740" on="1"/>
        <pt x="1230" y="740" on="1"/>
      </contour>
      <contour>
        <pt x="94" y="333" on="0"/>
        <pt x="94" y="310" on="1"/>
        <pt x="94" y="229" on="0"/>
        <pt x="202" y="136" on="0"/>
        <pt x="285" y="136" on="1"/>
        <pt x="383" y="136" on="0"/>
        <pt x="451" y="196" on="1"/>
        <pt x="182" y="509" on="1"/>
        <pt x="116" y="449" on="0"/>
        <pt x="98" y="353" on="1"/>
      </contour>
    </TTGlyph>
    <TTGlyph name="dvB_DH_VA" xMin="27" yMin="0" xMax="1691" yMax="749">
      <contour>
        <pt x="1691" y="740" on="1"/>
        <pt x="1688" y="724" on="1"/>
        <pt x="1526" y="724" on="1"/>
        <pt x="1399" y="0" on="1"/>
        <pt x="1382" y="0" on="1"/>
        <pt x="1429" y="268" on="1"/>
        <pt x="1397" y="206" on="0"/>
        <pt x="1273" y="125" on="0"/>
        <pt x="1188" y="125" on="1"/>
        <pt x="1100" y="125" on="0"/>
        <pt x="990" y="222" on="0"/>
        <pt x="989" y="307" on="1"/>
        <pt x="949" y="214" on="0"/>
        <pt x="803" y="116" on="0"/>
        <pt x="703" y="116" on="1"/>
        <pt x="619" y="116" on="0"/>
        <pt x="520" y="188" on="0"/>
        <pt x="521" y="256" on="1"/>
        <pt x="485" y="194" on="0"/>
        <pt x="362" y="120" on="0"/>
        <pt x="285" y="120" on="1"/>
        <pt x="226" y="120" on="0"/>
        <pt x="131" y="165" on="0"/>
        <pt x="77" y="251" on="0"/>
        <pt x="77" y="309" on="1"/>
        <pt x="77" y="333" on="0"/>
        <pt x="81" y="353" on="1"/>
        <pt x="94" y="426" on="0"/>
        <pt x="176" y="535" on="0"/>
        <pt x="295" y="593" on="0"/>
        <pt x="361" y="593" on="1"/>
        <pt x="408" y="593" on="0"/>
        <pt x="439" y="581" on="1"/>
        <pt x="437" y="565" on="1"/>
        <pt x="406" y="577" on="0"/>
        <pt x="360" y="577" on="1"/>
        <pt x="315" y="577" on="0"/>
        <pt x="229" y="547" on="0"/>
        <pt x="194" y="518" on="1"/>
        <pt x="462" y="206" on="1"/>
        <pt x="509" y="252" on="0"/>
        <pt x="530" y="311" on="1"/>
        <pt x="531" y="311" on="1"/>
        <pt x="548" y="364" on="0"/>
        <pt x="630" y="426" on="0"/>
        <pt x="678" y="430" on="1"/>
        <pt x="678" y="432" on="1"/>
        <pt x="632" y="440" on="0"/>
        <pt x="571" y="505" on="0"/>
        <pt x="571" y="558" on="1"/>
        <pt x="571" y="575" on="0"/>
        <pt x="574" y="594" on="1"/>
        <pt x="582" y="636" on="0"/>
        <pt x="628" y="704" on="0"/>
        <pt x="663" y="724" on="1"/>
        <pt x="27" y="724" on="1"/>
        <pt x="30" y="740" on="1"/>
        <pt x="697" y="740" on="1"/>
        <pt x="697" y="739" on="1"/>
        <pt x="724" y="749" on="0"/>
        <pt x="757" y="749" on="1"/>
        <pt x="818" y="749" on="0"/>
        <pt x="886" y="685" on="0"/>
        <pt x="886" y="630" on="1"/>
        <pt x="886" y="600" on="0"/>
        <pt x="878" y="573" on="1"/>
        <pt x="861" y="573" on="1"/>
        <pt x="869" y="600" on="0"/>
        <pt x="869" y="628" on="1"/>
        <pt x="869" y="678" on="0"/>
        <pt x="809" y="733" on="0"/>
        <pt x="754" y="733" on="1"/>
        <pt x="693" y="733" on="0"/>
        <pt x="601" y="652" on="0"/>
        <pt x="591" y="593" on="1"/>
        <pt x="588" y="577" on="0"/>
        <pt x="588" y="561" on="1"/>
        <pt x="588" y="505" on="0"/>
        <pt x="665" y="440" on="0"/>
        <pt x="740" y="440" on="1"/>
        <pt x="794" y="440" on="1"/>
        <pt x="791" y="424" on="1"/>
        <pt x="737" y="424" on="1"/>
        <pt x="673" y="424" on="0"/>
        <pt x="583" y="378" on="0"/>
        <pt x="538" y="301" on="0"/>
        <pt x="538" y="255" on="1"/>
        <pt x="538" y="195" on="0"/>
        <pt x="632" y="132" on="0"/>
        <pt x="706" y="132" on="1"/>
        <pt x="813" y="132" on="0"/>
        <pt x="966" y="256" on="0"/>
        <pt x="996" y="374" on="1"/>
        <pt x="1011" y="439" on="0"/>
        <pt x="1090" y="536" on="0"/>
        <pt x="1202" y="588" on="0"/>
        <pt x="1263" y="588" on="1"/>
        <pt x="1351" y="588" on="0"/>
        <pt x="1449" y="505" on="0"/>
        <pt x="1459" y="440" on="1"/>
        <pt x="1509" y="724" on="1"/>
        <pt x="1046" y="724" on="1"/>
        <pt x="1049" y="740" on="1"/>
      </contour>
      <contour>
        <pt x="1262" y="141" on="0"/>
        <pt x="1371" y="206" on="0"/>
        <pt x="1435" y="304" on="0"/>
        <pt x="1444" y="354" on="1"/>
        <pt x="1448" y="373" on="0"/>
        <pt x="1448" y="398" on="1"/>
        <pt x="1448" y="472" on="0"/>
        <pt x="1358" y="572" on="0"/>
        <pt x="1264" y="572" on="1"/>
        <pt x="1205" y="572" on="0"/>
        <pt x="1097" y="521" on="0"/>
        <pt x="1022" y="424" on="0"/>
        <pt x="1010" y="359" on="1"/>
        <pt x="1006" y="338" on="0"/>
        <pt x="1006" y="312" on="1"/>
        <pt x="1006" y="231" on="0"/>
        <pt x="1106" y="141" on="0"/>
        <pt x="1188" y="141" on="1"/>
      </contour>
      <contour>
        <pt x="94" y="333" on="0"/>
        <pt x="94" y="310" on="1"/>
        <pt x="94" y="229" on="0"/>
        <pt x="202" y="136" on="0"/>
        <pt x="285" y="136" on="1"/>
        <pt x="383" y="136" on="0"/>
        <pt x="451" y="196" on="1"/>
        <pt x="182" y="509" on="1"/>
        <pt x="116" y="449" on="0"/>
        <pt x="98" y="353" on="1"/>
      </contour>
    </TTGlyph>
    <TTGlyph name="dvB_JA" xMin="27" yMin="0" xMax="1373" yMax="740">
      <contour>
        <pt x="1370" y="724" on="1"/>
        <pt x="1209" y="724" on="1"/>
        <pt x="1081" y="0" on="1"/>
        <pt x="1064" y="0" on="1"/>
        <pt x="1151" y="493" on="1"/>
        <pt x="894" y="493" on="1"/>
        <pt x="867" y="340" on="1"/>
        <pt x="852" y="259" on="0"/>
        <pt x="748" y="159" on="0"/>
        <pt x="670" y="159" on="1"/>
        <pt x="613" y="159" on="0"/>
        <pt x="541" y="227" on="0"/>
        <pt x="536" y="283" on="1"/>
        <pt x="502" y="211" on="0"/>
        <pt x="370" y="120" on="0"/>
        <pt x="285" y="120" on="1"/>
        <pt x="226" y="120" on="0"/>
        <pt x="131" y="165" on="0"/>
        <pt x="77" y="251" on="0"/>
        <pt x="77" y="309" on="1"/>
        <pt x="77" y="333" on="0"/>
        <pt x="81" y="353" on="1"/>
        <pt x="94" y="426" on="0"/>
        <pt x="176" y="535" on="0"/>
        <pt x="295" y="593" on="0"/>
        <pt x="361" y="593" on="1"/>
        <pt x="430" y="593" on="0"/>
        <pt x="520" y="537" on="0"/>
        <pt x="562" y="447" on="0"/>
        <pt x="562" y="396" on="1"/>
        <pt x="562" y="372" on="0"/>
        <pt x="560" y="361" on="1"/>
        <pt x="560" y="359" on="1"/>
        <pt x="559" y="358" on="0"/>
        <pt x="559" y="355" on="1"/>
        <pt x="559" y="353" on="0"/>
        <pt x="557" y="347" on="1"/>
        <pt x="556" y="339" on="1"/>
        <pt x="552" y="313" on="0"/>
        <pt x="552" y="300" on="1"/>
        <pt x="552" y="243" on="0"/>
        <pt x="616" y="175" on="0"/>
        <pt x="672" y="175" on="1"/>
        <pt x="740" y="175" on="0"/>
        <pt x="837" y="266" on="0"/>
        <pt x="850" y="339" on="1"/>
        <pt x="880" y="509" on="1"/>
        <pt x="1154" y="509" on="1"/>
        <pt x="1192" y="724" on="1"/>
        <pt x="27" y="724" on="1"/>
        <pt x="30" y="740" on="1"/>
        <pt x="1373" y="740" on="1"/>
      </contour>
      <contour>
        <pt x="493" y="237" on="0"/>
        <pt x="533" y="310" on="0"/>
        <pt x="541" y="347" on="1"/>
        <pt x="543" y="355" on="1"/>
        <pt x="547" y="383" on="0"/>
        <pt x="547" y="396" on="1"/>
        <pt x="547" y="444" on="0"/>
        <pt x="507" y="526" on="0"/>
        <pt x="423" y="577" on="0"/>
        <pt x="360" y="577" on="1"/>
        <pt x="315" y="577" on="0"/>
        <pt x="229" y="547" on="0"/>
        <pt x="194" y="518" on="1"/>
        <pt x="462" y="207" on="1"/>
      </contour>
      <contour>
        <pt x="94" y="333" on="0"/>
        <pt x="94" y="310" on="1"/>
        <pt x="94" y="229" on="0"/>
        <pt x="202" y="136" on="0"/>
        <pt x="285" y="136" on="1"/>
        <pt x="379" y="136" on="0"/>
        <pt x="451" y="196" on="1"/>
        <pt x="182" y="509" on="1"/>
        <pt x="116" y="449" on="0"/>
        <pt x="98" y="353" on="1"/>
      </contour>
    </TTGlyph>
    <TTGlyph name="dvB_JHA" xMin="34" yMin="-71" xMax="1376" yMax="740">
      <contour>
        <pt x="1373" y="724" on="1"/>
        <pt x="1211" y="724" on="1"/>
        <pt x="1083" y="0" on="1"/>
        <pt x="1066" y="0" on="1"/>
        <pt x="1119" y="299" on="1"/>
        <pt x="836" y="300" on="1"/>
        <pt x="878" y="289" on="0"/>
        <pt x="928" y="232" on="0"/>
        <pt x="928" y="184" on="1"/>
        <pt x="928" y="168" on="0"/>
        <pt x="925" y="150" on="1"/>
        <pt x="914" y="85" on="0"/>
        <pt x="809" y="0" on="0"/>
        <pt x="720" y="0" on="1"/>
        <pt x="654" y="0" on="0"/>
        <pt x="572" y="42" on="0"/>
        <pt x="537" y="96" on="0"/>
        <pt x="533" y="117" on="1"/>
        <pt x="499" y="-71" on="1"/>
        <pt x="482" y="-71" on="1"/>
        <pt x="526" y="173" on="1"/>
        <pt x="541" y="173" on="1"/>
        <pt x="540" y="106" on="0"/>
        <pt x="631" y="16" on="0"/>
        <pt x="724" y="16" on="1"/>
        <pt x="804" y="16" on="0"/>
        <pt x="898" y="93" on="0"/>
        <pt x="908" y="150" on="1"/>
        <pt x="911" y="167" on="0"/>
        <pt x="911" y="180" on="1"/>
        <pt x="911" y="236" on="0"/>
        <pt x="826" y="298" on="0"/>
        <pt x="747" y="298" on="1"/>
        <pt x="702" y="298" on="1"/>
        <pt x="650" y="298" on="0"/>
        <pt x="575" y="332" on="0"/>
        <pt x="561" y="366" on="1"/>
        <pt x="548" y="299" on="0"/>
        <pt x="475" y="187" on="0"/>
        <pt x="361" y="120" on="0"/>
        <pt x="289" y="120" on="1"/>
        <pt x="199" y="120" on="0"/>
        <pt x="84" y="221" on="0"/>
        <pt x="84" y="308" on="1"/>
        <pt x="84" y="332" on="0"/>
        <pt x="88" y="353" on="1"/>
        <pt x="101" y="426" on="0"/>
        <pt x="184" y="534" on="0"/>
        <pt x="304" y="593" on="0"/>
        <pt x="370" y="593" on="1"/>
        <pt x="418" y="593" on="0"/>
        <pt x="455" y="579" on="1"/>
        <pt x="452" y="562" on="1"/>
        <pt x="412" y="577" on="0"/>
        <pt x="367" y="577" on="1"/>
        <pt x="322" y="577" on="0"/>
        <pt x="237" y="547" on="0"/>
        <pt x="202" y="519" on="1"/>
        <pt x="468" y="211" on="1"/>
        <pt x="499" y="245" on="0"/>
        <pt x="540" y="332" on="0"/>
        <pt x="547" y="375" on="1"/>
        <pt x="557" y="429" on="1"/>
        <pt x="569" y="501" on="0"/>
        <pt x="686" y="562" on="0"/>
        <pt x="762" y="562" on="1"/>
        <pt x="922" y="562" on="1"/>
        <pt x="951" y="724" on="1"/>
        <pt x="34" y="724" on="1"/>
        <pt x="37" y="740" on="1"/>
        <pt x="1376" y="740" on="1"/>
      </contour>
      <contour>
        <pt x="1194" y="724" on="1"/>
        <pt x="968" y="724" on="1"/>
        <pt x="939" y="562" on="1"/>
        <pt x="936" y="546" on="1"/>
        <pt x="767" y="546" on="1"/>
        <pt x="694" y="546" on="0"/>
        <pt x="585" y="496" on="0"/>
        <pt x="574" y="429" on="1"/>
        <pt x="572" y="420" on="0"/>
        <pt x="572" y="405" on="1"/>
        <pt x="572" y="358" on="0"/>
        <pt x="646" y="314" on="0"/>
        <pt x="705" y="314" on="1"/>
        <pt x="750" y="314" on="1"/>
        <pt x="1122" y="314" on="1"/>
      </contour>
      <contour>
        <pt x="101" y="333" on="0"/>
        <pt x="101" y="310" on="1"/>
        <pt x="101" y="229" on="0"/>
        <pt x="209" y="136" on="0"/>
        <pt x="292" y="136" on="1"/>
        <pt x="389" y="136" on="0"/>
        <pt x="455" y="199" on="1"/>
        <pt x="189" y="508" on="1"/>
        <pt x="121" y="446" on="0"/>
        <pt x="105" y="353" on="1"/>
      </contour>
    </TTGlyph>
</ttFont>
